<?xml version="1.0" encoding="UTF-8" standalone="no"?>
<!-- Created with Inkscape (http://www.inkscape.org/) -->

<svg
   xmlns:dc="http://purl.org/dc/elements/1.1/"
   xmlns:cc="http://creativecommons.org/ns#"
   xmlns:rdf="http://www.w3.org/1999/02/22-rdf-syntax-ns#"
   xmlns:svg="http://www.w3.org/2000/svg"
   xmlns="http://www.w3.org/2000/svg"
   xmlns:xlink="http://www.w3.org/1999/xlink"
   xmlns:sodipodi="http://sodipodi.sourceforge.net/DTD/sodipodi-0.dtd"
   xmlns:inkscape="http://www.inkscape.org/namespaces/inkscape"
   width="200"
   height="200"
   id="svg2"
   version="1.1"
   inkscape:version="0.91 r13725"
   sodipodi:docname="android-studio.svg">
  <defs
     id="defs4">
    <linearGradient
       id="linearGradient4258">
      <stop
         id="stop4260"
         offset="0"
         style="stop-color:#729534;stop-opacity:1" />
      <stop
         id="stop4262"
         offset="1"
         style="stop-color:#7da439;stop-opacity:1" />
    </linearGradient>
    <linearGradient
       id="linearGradient4829">
      <stop
         style="stop-color:#f4fbfc;stop-opacity:1;"
         offset="0"
         id="stop4831" />
      <stop
         style="stop-color:#d6d6d6;stop-opacity:1;"
         offset="1"
         id="stop4833" />
    </linearGradient>
    <clipPath
       clipPathUnits="userSpaceOnUse"
       id="clipPath4282">
      <rect
         style="color:#000000;fill:#4d4d4d;fill-opacity:1;fill-rule:nonzero;stroke:none;stroke-width:9.13434315;marker:none;visibility:visible;display:inline;overflow:visible;enable-background:accumulate"
         id="rect4284"
         width="246.875"
         height="234.375"
         x="462.5"
         y="1646.1122"
         ry="17"
         rx="17" />
    </clipPath>
    <linearGradient
       inkscape:collect="always"
       xlink:href="#linearGradient4829"
       id="linearGradient4835"
       x1="102.29776"
       y1="-0.42686829"
       x2="102.29776"
       y2="199.16539"
       gradientUnits="userSpaceOnUse" />
    <linearGradient
       inkscape:collect="always"
       xlink:href="#linearGradient5423"
       id="linearGradient5429"
       x1="408.66196"
       y1="44.604382"
       x2="408.66196"
       y2="562.04968"
       gradientUnits="userSpaceOnUse" />
    <linearGradient
       id="linearGradient5423">
      <stop
         style="stop-color:#00b6ff;stop-opacity:1;"
         offset="0"
         id="stop5425" />
      <stop
         style="stop-color:#0194cf;stop-opacity:1;"
         offset="1"
         id="stop5427" />
    </linearGradient>
    <linearGradient
       inkscape:collect="always"
       xlink:href="#linearGradient4258"
       id="linearGradient6197"
       gradientUnits="userSpaceOnUse"
       x1="99.036476"
       y1="-0.50471628"
       x2="99.036476"
       y2="199.83986" />
    <linearGradient
       inkscape:collect="always"
       xlink:href="#linearGradient4829"
       id="linearGradient6211"
       x1="100.89178"
       y1="0"
       x2="100.89178"
       y2="200"
       gradientUnits="userSpaceOnUse" />
    <clipPath
       clipPathUnits="userSpaceOnUse"
       id="clipPath6245">
      <rect
         style="opacity:0.85;color:#000000;fill:#ffffff;fill-opacity:1;fill-rule:nonzero;stroke:none;stroke-width:1.5;marker:none;visibility:visible;display:inline;overflow:visible;enable-background:accumulate"
         id="rect6247"
         width="300"
         height="259.375"
         x="-901.5625"
         y="792.98718"
         rx="16.46875"
         ry="16.46875" />
    </clipPath>
    <linearGradient
       gradientTransform="matrix(0,-1,1,0,-1.5e-6,47.999998)"
       gradientUnits="userSpaceOnUse"
       x2="47"
       x1="1"
       id="linearGradient3764">
      <stop
         id="stop4160"
         stop-opacity="1"
         stop-color="#7ca339" />
      <stop
         id="stop4162"
         stop-opacity="1"
         stop-color="#87b23e"
         offset="1" />
    </linearGradient>
    <clipPath
       id="clipPath-780059703">
      <g
         id="g4165"
         transform="translate(0,-1004.3622)">
        <path
           id="path4167"
           fill="#1890d0"
           transform="matrix(15.333333,0,0,11.5,414.99999,878.8622)"
           d="m -24 13 c 0 1.105 -0.672 2 -1.5 2 -0.828 0 -1.5 -0.895 -1.5 -2 0 -1.105 0.672 -2 1.5 -2 0.828 0 1.5 0.895 1.5 2 z" />
      </g>
    </clipPath>
    <clipPath
       id="clipPath-790372096">
      <g
         id="g4170"
         transform="translate(0,-1004.3622)">
        <path
           id="path4172"
           fill="#1890d0"
           transform="matrix(15.333333,0,0,11.5,414.99999,878.8622)"
           d="m -24 13 c 0 1.105 -0.672 2 -1.5 2 -0.828 0 -1.5 -0.895 -1.5 -2 0 -1.105 0.672 -2 1.5 -2 0.828 0 1.5 0.895 1.5 2 z" />
      </g>
    </clipPath>
  </defs>
  <sodipodi:namedview
     id="base"
     pagecolor="#ffffff"
     bordercolor="#666666"
     borderopacity="1.0"
     inkscape:pageopacity="0.0"
     inkscape:pageshadow="2"
     inkscape:zoom="1.8101934"
     inkscape:cx="37.758401"
     inkscape:cy="94.828852"
     inkscape:document-units="px"
     inkscape:current-layer="layer1"
     showgrid="false"
     inkscape:window-width="1600"
     inkscape:window-height="825"
     inkscape:window-x="0"
     inkscape:window-y="21"
     inkscape:window-maximized="1"
     inkscape:snap-from-guide="true"
     showguides="true"
     inkscape:guide-bbox="true">
    <sodipodi:guide
       position="0,0"
       orientation="0,200"
       id="guide3764" />
    <sodipodi:guide
       position="200,0"
       orientation="-200,0"
       id="guide3766" />
    <sodipodi:guide
       position="200,200"
       orientation="0,-200"
       id="guide3768" />
    <sodipodi:guide
       position="0,200"
       orientation="200,0"
       id="guide3770" />
  </sodipodi:namedview>
  <metadata
     id="metadata7">
    <rdf:RDF>
      <cc:Work
         rdf:about="">
        <dc:format>image/svg+xml</dc:format>
        <dc:type
           rdf:resource="http://purl.org/dc/dcmitype/StillImage" />
        <dc:title />
      </cc:Work>
    </rdf:RDF>
  </metadata>
  <g
     inkscape:label="Layer 1"
     inkscape:groupmode="layer"
     id="layer1"
     transform="translate(0,-852.36218)">
    <path
       sodipodi:type="arc"
       style="color:#000000;fill:url(#linearGradient4835);fill-opacity:1;fill-rule:nonzero;stroke:none;stroke-width:9.13434315;marker:none;visibility:visible;display:inline;overflow:visible;enable-background:accumulate"
       id="path4188"
       sodipodi:cx="100"
       sodipodi:cy="100"
       sodipodi:rx="100"
       sodipodi:ry="100"
       d="M 200,100 A 100,100 0 0 1 100,200 100,100 0 0 1 0,100 100,100 0 0 1 100,0 100,100 0 0 1 200,100 Z"
       transform="translate(0,852.36219)" />
    <path
       sodipodi:type="arc"
       style="color:#000000;fill:url(#linearGradient6197);fill-opacity:1;fill-rule:nonzero;stroke:none;stroke-width:9.13434314999999941;marker:none;visibility:visible;display:inline;overflow:visible;enable-background:accumulate"
       id="path4188-6"
       sodipodi:cx="100"
       sodipodi:cy="100"
       sodipodi:rx="100"
       sodipodi:ry="100"
       d="M 200,100 A 100,100 0 0 1 100,200 100,100 0 0 1 0,100 100,100 0 0 1 100,0 100,100 0 0 1 200,100 Z"
       transform="matrix(0.91020408,0,0,0.91020408,8.9795918,861.34178)" />
    <g
       id="g4233"
       transform="matrix(4.2555002,0,0,4.2553191,-4.2469884,848.11046)">
      <g
         id="g4188">
        <g
           id="g4190"
           clip-path="url(#clipPath-780059703)">
          <g
             id="g4192"
             transform="translate(1,1)">
            <g
               id="g4194"
               style="opacity:0.1">
              <!-- color: #87b23e -->
              <g
                 id="g4196">
                <path
                   id="path4198"
                   d="M 33.434,19 C 32.571,19 32,19.758 32,20.691 l 0,6.617 c 0,0.934 0.57,1.695 1.434,1.695 0.867,0 1.563,-0.762 1.563,-1.695 l 0,-6.617 C 34.997,19.757 34.298,19 33.434,19 m -18.871,0 c -0.863,0 -1.566,0.758 -1.566,1.691 l 0,6.617 c 0,0.934 0.703,1.695 1.566,1.695 0.863,0 1.434,-0.762 1.434,-1.695 l 0,-6.617 C 15.997,19.757 15.427,19 14.563,19 m 0,0"
                   inkscape:connector-curvature="0"
                   style="fill:#000000;fill-opacity:1;fill-rule:nonzero;stroke:none" />
                <path
                   id="path4200"
                   d="m 17,19 0,11.594 C 17,31.282 17.32,32 18,32 l 2,0 0,3.375 c 0,0.898 0.316,1.625 1.188,1.625 0.867,0 1.813,-0.727 1.813,-1.625 l 0,-3.375 2,0 0,3.375 c 0,0.898 0.941,1.625 1.813,1.625 0.867,0 1.191,-0.727 1.191,-1.625 l 0,-3.375 2,0 c 0.676,0 1,-0.719 1,-1.406 l 0,-11.594 m -6.816,1 c 1.613,0.047 0.32,1.5 1.691,2.281 1.363,0.781 2.211,-0.926 2.969,0.375 0.758,1.301 -1.285,0.961 -1.344,2.438 -0.059,1.477 1.977,1.309 1.125,2.563 -0.855,1.254 -1.543,-0.508 -2.973,0.188 -1.426,0.695 -0.227,2.207 -1.844,2.156 -1.613,-0.047 -0.32,-1.5 -1.688,-2.281 -1.367,-0.777 -2.211,0.93 -2.969,-0.375 -0.758,-1.301 1.285,-0.961 1.344,-2.438 0.059,-1.473 -1.98,-1.309 -1.125,-2.563 0.855,-1.254 1.543,0.508 2.969,-0.188 1.246,-0.609 0.504,-1.859 1.375,-2.125 0.125,-0.039 0.266,-0.039 0.469,-0.031 M 24,23.781 c -0.09,0 -0.191,0.012 -0.281,0.031 -0.719,0.141 -1.184,0.773 -1.031,1.438 0.152,0.66 0.875,1.078 1.594,0.938 0.723,-0.141 1.188,-0.773 1.031,-1.438 C 25.18,24.172 24.622,23.777 24,23.781 m 0,0"
                   inkscape:connector-curvature="0"
                   style="fill:#000000;fill-opacity:1;fill-rule:nonzero;stroke:none" />
                <path
                   id="path4202"
                   d="m 27.32,13.199 1.293,-1.844 c 0.078,-0.109 0.055,-0.25 -0.043,-0.32 -0.102,-0.07 -0.246,-0.035 -0.324,0.074 l -1.34,1.914 C 26.019,12.679 25.035,12.488 24,12.488 c -1.035,0 -2.02,0.191 -2.906,0.535 L 19.75,11.109 C 19.672,11 19.531,10.964 19.43,11.035 c -0.102,0.066 -0.121,0.211 -0.043,0.32 l 1.293,1.844 c -2.055,0.938 -3.5,2.723 -3.684,4.801 l 14,0 c -0.184,-2.078 -1.625,-3.867 -3.68,-4.801 m -6.27,2.902 c -0.43,0 -0.777,-0.34 -0.777,-0.762 0,-0.418 0.348,-0.758 0.777,-0.758 0.43,0 0.773,0.34 0.773,0.758 0,0.418 -0.348,0.762 -0.773,0.762 m 6,0 c -0.43,0 -0.777,-0.34 -0.777,-0.762 0,-0.418 0.348,-0.758 0.777,-0.758 0.426,0 0.773,0.34 0.773,0.758 0,0.418 -0.348,0.762 -0.773,0.762 m 0,0"
                   inkscape:connector-curvature="0"
                   style="fill:#000000;fill-opacity:1;fill-rule:nonzero;stroke:none" />
              </g>
            </g>
          </g>
        </g>
      </g>
      <g
         id="g4204">
        <g
           id="g4206"
           clip-path="url(#clipPath-790372096)">
          <!-- color: #87b23e -->
          <g
             id="g4208">
            <path
               id="path4210"
               d="M 33.434,19 C 32.571,19 32,19.758 32,20.691 l 0,6.617 c 0,0.934 0.57,1.695 1.434,1.695 0.867,0 1.563,-0.762 1.563,-1.695 l 0,-6.617 C 34.997,19.757 34.298,19 33.434,19 m -18.871,0 c -0.863,0 -1.566,0.758 -1.566,1.691 l 0,6.617 c 0,0.934 0.703,1.695 1.566,1.695 0.863,0 1.434,-0.762 1.434,-1.695 l 0,-6.617 C 15.997,19.757 15.427,19 14.563,19 m 0,0"
               inkscape:connector-curvature="0"
               style="fill:#f9f9f9;fill-opacity:1;fill-rule:nonzero;stroke:none" />
            <path
               id="path4212"
               d="m 17,19 0,11.594 C 17,31.282 17.32,32 18,32 l 2,0 0,3.375 c 0,0.898 0.316,1.625 1.188,1.625 0.867,0 1.813,-0.727 1.813,-1.625 l 0,-3.375 2,0 0,3.375 c 0,0.898 0.941,1.625 1.813,1.625 0.867,0 1.191,-0.727 1.191,-1.625 l 0,-3.375 2,0 c 0.676,0 1,-0.719 1,-1.406 l 0,-11.594 m -6.816,1 c 1.613,0.047 0.32,1.5 1.691,2.281 1.363,0.781 2.211,-0.926 2.969,0.375 0.758,1.301 -1.285,0.961 -1.344,2.438 -0.059,1.477 1.977,1.309 1.125,2.563 -0.855,1.254 -1.543,-0.508 -2.973,0.188 -1.426,0.695 -0.227,2.207 -1.844,2.156 -1.613,-0.047 -0.32,-1.5 -1.688,-2.281 -1.367,-0.777 -2.211,0.93 -2.969,-0.375 -0.758,-1.301 1.285,-0.961 1.344,-2.438 0.059,-1.473 -1.98,-1.309 -1.125,-2.563 0.855,-1.254 1.543,0.508 2.969,-0.188 1.246,-0.609 0.504,-1.859 1.375,-2.125 0.125,-0.039 0.266,-0.039 0.469,-0.031 M 24,23.781 c -0.09,0 -0.191,0.012 -0.281,0.031 -0.719,0.141 -1.184,0.773 -1.031,1.438 0.152,0.66 0.875,1.078 1.594,0.938 0.723,-0.141 1.188,-0.773 1.031,-1.438 C 25.18,24.172 24.622,23.777 24,23.781 m 0,0"
               inkscape:connector-curvature="0"
               style="fill:#f9f9f9;fill-opacity:1;fill-rule:nonzero;stroke:none" />
            <path
               id="path4214"
               d="m 27.32,13.199 1.293,-1.844 c 0.078,-0.109 0.055,-0.25 -0.043,-0.32 -0.102,-0.07 -0.246,-0.035 -0.324,0.074 l -1.34,1.914 C 26.019,12.679 25.035,12.488 24,12.488 c -1.035,0 -2.02,0.191 -2.906,0.535 L 19.75,11.109 C 19.672,11 19.531,10.964 19.43,11.035 c -0.102,0.066 -0.121,0.211 -0.043,0.32 l 1.293,1.844 c -2.055,0.938 -3.5,2.723 -3.684,4.801 l 14,0 c -0.184,-2.078 -1.625,-3.867 -3.68,-4.801 m -6.27,2.902 c -0.43,0 -0.777,-0.34 -0.777,-0.762 0,-0.418 0.348,-0.758 0.777,-0.758 0.43,0 0.773,0.34 0.773,0.758 0,0.418 -0.348,0.762 -0.773,0.762 m 6,0 c -0.43,0 -0.777,-0.34 -0.777,-0.762 0,-0.418 0.348,-0.758 0.777,-0.758 0.426,0 0.773,0.34 0.773,0.758 0,0.418 -0.348,0.762 -0.773,0.762 m 0,0"
               inkscape:connector-curvature="0"
               style="fill:#f9f9f9;fill-opacity:1;fill-rule:nonzero;stroke:none" />
          </g>
        </g>
      </g>
    </g>
  </g>
</svg>
