<?xml version="1.0" encoding="UTF-8" standalone="no"?>
<svg
   xmlns:dc="http://purl.org/dc/elements/1.1/"
   xmlns:cc="http://creativecommons.org/ns#"
   xmlns:rdf="http://www.w3.org/1999/02/22-rdf-syntax-ns#"
   xmlns:svg="http://www.w3.org/2000/svg"
   xmlns="http://www.w3.org/2000/svg"
   xmlns:sodipodi="http://sodipodi.sourceforge.net/DTD/sodipodi-0.dtd"
   xmlns:inkscape="http://www.inkscape.org/namespaces/inkscape"
   width="200"
   height="200"
   version="1"
   id="svg30"
   sodipodi:docname="Papirus-Team-Papirus-Apps-Visual-studio-code.svg"
   inkscape:version="0.92.4 (unknown)">
  <metadata
     id="metadata36">
    <rdf:RDF>
      <cc:Work
         rdf:about="">
        <dc:format>image/svg+xml</dc:format>
        <dc:type
           rdf:resource="http://purl.org/dc/dcmitype/StillImage" />
        <dc:title></dc:title>
      </cc:Work>
    </rdf:RDF>
  </metadata>
  <defs
     id="defs34" />
  <sodipodi:namedview
     pagecolor="#ffffff"
     bordercolor="#666666"
     borderopacity="1"
     objecttolerance="10"
     gridtolerance="10"
     guidetolerance="10"
     inkscape:pageopacity="0"
     inkscape:pageshadow="2"
     inkscape:window-width="1920"
     inkscape:window-height="1059"
     id="namedview32"
     showgrid="false"
     inkscape:zoom="2.6074563"
     inkscape:cx="228.20479"
     inkscape:cy="101.75648"
     inkscape:window-x="1366"
     inkscape:window-y="21"
     inkscape:window-maximized="1"
     inkscape:current-layer="svg30" />
  <path
     style="opacity:0.2;stroke-width:3.50886488"
     d="M 177.07,169.27004 150.69147,10.970695 C 149.8796,6.0985965 145.27342,2.8248578 140.36371,3.630529 L 16.291594,23.989995 c -4.90971,0.805671 -8.2086886,5.376567 -7.3968155,10.248664 L 35.273314,192.538 c 0.811872,4.8721 5.418057,8.14581 10.327763,7.34017 l 124.072103,-20.3595 c 4.90975,-0.80564 8.20872,-5.37653 7.39682,-10.24863 z"
     id="path2"
     inkscape:connector-curvature="0" />
  <path
     d="M 177.07,165.76134 150.69147,7.4620015 C 149.8796,2.589903 145.27342,-0.68379919 140.36371,0.12183641 L 16.291594,20.481338 c -4.90971,0.805636 -8.2086886,5.376533 -7.3968155,10.24863 L 35.273314,189.0293 c 0.811872,4.87211 5.418057,8.14585 10.327763,7.34018 L 169.67318,176.01001 c 4.90975,-0.80568 8.20872,-5.37657 7.39682,-10.24867 z"
     style="fill:#3f3f3f;stroke-width:3.50886488"
     id="path4"
     inkscape:connector-curvature="0" />
  <path
     style="opacity:0.1;fill:#ffffff;stroke-width:3.50886488"
     d="m 142.18409,0.00825401 c -0.5974,-0.021055 -1.20924,0.017552 -1.82295,0.1164953 L 16.290009,20.478917 c -4.90971,0.805636 -8.2065238,5.380358 -7.3946505,10.25249 l 0.06168,0.390607 C 9.6371425,27.551812 12.457191,24.616713 16.29001,23.987785 L 140.36114,3.6336162 c 4.90971,-0.8056713 9.51596,2.4677527 10.32783,7.3398498 l 26.31646,157.926464 c 0.19477,-1.0093 0.24098,-2.06284 0.0618,-3.1388 L 150.689,7.4645997 c -0.71039,-4.2631001 -4.323,-7.30286749 -8.50488,-7.45634569 z"
     id="path6"
     inkscape:connector-curvature="0" />
  <path
     d="M 36.842132,79.188481 114.25416,136.84207 135.08759,123.75 47.697432,75.493293 Z"
     style="opacity:0.2;stroke-width:3.50886488"
     id="path8"
     inkscape:connector-curvature="0" />
  <path
     d="M 38.245638,140.35092 H 152.21037 l 4.04006,28.07022 z"
     style="fill:#1c65c2;stroke-width:3.50886488"
     id="path10"
     inkscape:connector-curvature="0" />
  <path
     style="opacity:0.2;stroke-width:3.50886488"
     d="m 131.57882,17.543785 39.67678,8.918697 19.97225,124.979178 -34.97742,20.48814 z"
     id="path12"
     inkscape:connector-curvature="0" />
  <path
     d="m 131.57882,14.035092 39.67678,8.918699 19.97225,124.979169 -34.97742,20.48818 z"
     style="fill:#2996dd;stroke-width:3.50886488"
     id="path14"
     inkscape:connector-curvature="0" />
  <path
     d="m 100.2196,42.105295 23.75731,5.913741 11.11068,72.222294 -20.83343,13.09209 z"
     style="fill:#1c65c2;stroke-width:3.50886488"
     id="path16"
     inkscape:connector-curvature="0" />
  <path
     style="fill:#2996dd;stroke-width:3.50886488"
     d="M 36.842132,75.679789 114.25416,133.33342 135.08759,120.24133 47.697432,71.984636 Z"
     id="path18"
     inkscape:connector-curvature="0" />
  <path
     style="opacity:0.1;fill:#ffffff;stroke-width:3.50886488"
     d="m 47.698425,71.988005 -10.855538,3.69389 3.234731,2.405504 7.620807,-2.597405 84.418255,46.615896 2.97431,-1.8641 z"
     id="path20"
     inkscape:connector-curvature="0" />
  <path
     style="opacity:0.2;stroke-width:3.50886488"
     d="M 43.859412,124.80255 100.2196,45.613953 123.97691,51.527728 55.299484,124.90855 Z"
     id="path22"
     inkscape:connector-curvature="0" />
  <path
     d="M 43.859412,121.29385 100.2196,42.105295 123.97691,48.019036 55.299484,121.39985 Z"
     style="fill:#2996dd;stroke-width:3.50886488"
     id="path24"
     inkscape:connector-curvature="0" />
  <path
     style="opacity:0.2;fill:#ffffff;stroke-width:3.50886488"
     d="m 131.58213,14.036847 0.58252,3.639083 39.09091,8.785887 19.45636,121.775543 0.51399,-0.30141 -19.97035,-124.982859 z"
     id="path26"
     inkscape:connector-curvature="0" />
  <path
     style="opacity:0.2;fill:#ffffff;stroke-width:3.50886488"
     d="m 100.22168,42.107787 -56.361072,79.189403 2.47402,0.0211 53.887052,-75.701095 21.08744,5.249617 2.6659,-2.844112 z"
     id="path28"
     inkscape:connector-curvature="0" />
</svg>
