<?xml version="1.0" encoding="UTF-8" standalone="no"?>
<svg
   xmlns:dc="http://purl.org/dc/elements/1.1/"
   xmlns:cc="http://creativecommons.org/ns#"
   xmlns:rdf="http://www.w3.org/1999/02/22-rdf-syntax-ns#"
   xmlns:svg="http://www.w3.org/2000/svg"
   xmlns="http://www.w3.org/2000/svg"
   xmlns:sodipodi="http://sodipodi.sourceforge.net/DTD/sodipodi-0.dtd"
   xmlns:inkscape="http://www.inkscape.org/namespaces/inkscape"
   data-name="Layer 1"
   viewBox="0 0 10.24 10.24"
   width="200"
   height="200"
   version="1.1"
   id="svg54"
   sodipodi:docname="datagrip-icon.svg"
   inkscape:version="0.92.2 (unknown)">
  <metadata
     id="metadata58">
    <rdf:RDF>
      <cc:Work
         rdf:about="">
        <dc:format>image/svg+xml</dc:format>
        <dc:type
           rdf:resource="http://purl.org/dc/dcmitype/StillImage" />
        <dc:title>icon_DataGrip</dc:title>
      </cc:Work>
    </rdf:RDF>
  </metadata>
  <sodipodi:namedview
     pagecolor="#ffffff"
     bordercolor="#666666"
     borderopacity="1"
     objecttolerance="10"
     gridtolerance="10"
     guidetolerance="10"
     inkscape:pageopacity="0"
     inkscape:pageshadow="2"
     inkscape:window-width="1920"
     inkscape:window-height="1059"
     id="namedview56"
     showgrid="false"
     inkscape:zoom="3.0208"
     inkscape:cx="121.6423"
     inkscape:cy="96.653104"
     inkscape:window-x="1366"
     inkscape:window-y="21"
     inkscape:window-maximized="1"
     inkscape:current-layer="svg54" />
  <defs
     id="defs32">
    <linearGradient
       id="a"
       x1="75.150002"
       y1="5346.5801"
       x2="85.120003"
       y2="5371.4199"
       gradientTransform="matrix(0.08,0,0,-0.08,0,430.3056)"
       gradientUnits="userSpaceOnUse">
      <stop
         offset="0"
         stop-color="#9775f8"
         id="stop2" />
      <stop
         offset=".95"
         stop-color="#22d88f"
         id="stop4" />
    </linearGradient>
    <linearGradient
       id="b"
       x1="31.209999"
       y1="5312.5601"
       x2="44.16"
       y2="5256.1602"
       gradientTransform="matrix(0.08,0,0,-0.08,0,430.3056)"
       gradientUnits="userSpaceOnUse">
      <stop
         offset="0"
         stop-color="#9775f8"
         id="stop7" />
      <stop
         offset=".21"
         stop-color="#689cce"
         id="stop9" />
      <stop
         offset=".42"
         stop-color="#42bdac"
         id="stop11" />
      <stop
         offset=".59"
         stop-color="#2bd197"
         id="stop13" />
      <stop
         offset=".69"
         stop-color="#22d88f"
         id="stop15" />
    </linearGradient>
    <linearGradient
       id="c"
       x1="8.9099998"
       y1="5316.54"
       x2="121.07"
       y2="5254.6099"
       gradientTransform="matrix(0.08,0,0,-0.08,0,430.3056)"
       gradientUnits="userSpaceOnUse">
      <stop
         offset=".08"
         stop-color="#22d88f"
         id="stop18" />
      <stop
         offset=".72"
         stop-color="#9775f8"
         id="stop20" />
    </linearGradient>
    <linearGradient
       id="d"
       y1="5329.8198"
       x2="112.72"
       y2="5329.8198"
       gradientTransform="matrix(0.08,0,0,-0.08,0,430.3056)"
       gradientUnits="userSpaceOnUse">
      <stop
         offset=".08"
         stop-color="#22d88f"
         id="stop23" />
      <stop
         offset=".27"
         stop-color="#5ab0b4"
         id="stop25" />
      <stop
         offset=".56"
         stop-color="#b86cf2"
         id="stop27" />
      <stop
         offset="1"
         stop-color="#ff59e6"
         id="stop29" />
    </linearGradient>
  </defs>
  <title
     id="title34">icon_DataGrip</title>
  <path
     d="M 9.584,1.584 10.24,5.776 7.76,7.232 7.28,4.848 Z"
     id="path36"
     inkscape:connector-curvature="0"
     style="fill:#9775f8;stroke-width:0.08" />
  <path
     d="M 9.584,1.584 5.92,0 2.848,2.56 7.28,4.848 Z"
     id="path38"
     inkscape:connector-curvature="0"
     style="fill:url(#a);stroke-width:0.08" />
  <path
     d="M 6.912,10.24 2.64,4.464 1.36,5.328 0.096,9.136 Z"
     id="path40"
     inkscape:connector-curvature="0"
     style="fill:url(#b);stroke-width:0.08" />
  <path
     d="M 7.728,7.328 4.72,5.36 0,4.72 6.912,10.24 Z"
     id="path42"
     inkscape:connector-curvature="0"
     style="fill:url(#c);stroke-width:0.08" />
  <path
     d="M 0,0.064 V 4.72 L 8.88,7.776 9.584,1.584 Z"
     id="path44"
     inkscape:connector-curvature="0"
     style="fill:url(#d);stroke-width:0.08" />
  <g
     id="g52"
     transform="scale(0.08)">
    <path
       d="m 24,24 h 80 v 80 H 24 Z"
       id="path46"
       inkscape:connector-curvature="0" />
    <g
       id="g50"
       style="fill:#ffffff">
      <path
         d="M 32.11,34.4 H 45 c 10.41,0 17.61,7.15 17.61,16.47 V 51 c 0,9.32 -7.19,16.56 -17.61,16.56 H 32.11 Z M 39.4,41 V 61 H 45 c 6,0 10,-4 10,-9.89 V 51 C 55,45.13 51,41 45,41 Z M 63.93,51.06 V 51 A 17,17 0 0 1 81.3,33.83 c 6,0 9.56,1.61 13,4.54 l -4.59,5.54 a 12.2,12.2 0 0 0 -8.66,-3.36 c -5.3,0 -9.51,4.68 -9.51,10.32 V 51 c 0,6.06 4.16,10.51 10,10.51 a 11.63,11.63 0 0 0 6.86,-2 V 54.75 H 81.11 V 48.46 H 95.5 V 62.84 A 21.5,21.5 0 0 1 81.35,68.1 C 71,68.1 63.93,60.86 63.93,51.06 Z M 31.36,88.99 h 30 v 5 h -30 z"
         id="path48"
         inkscape:connector-curvature="0" />
    </g>
  </g>
</svg>
