<?xml version="1.0" encoding="UTF-8" standalone="no"?>
<!-- Created with Inkscape (http://www.inkscape.org/) -->

<svg
   xmlns:dc="http://purl.org/dc/elements/1.1/"
   xmlns:cc="http://creativecommons.org/ns#"
   xmlns:rdf="http://www.w3.org/1999/02/22-rdf-syntax-ns#"
   xmlns:svg="http://www.w3.org/2000/svg"
   xmlns="http://www.w3.org/2000/svg"
   xmlns:xlink="http://www.w3.org/1999/xlink"
   xmlns:sodipodi="http://sodipodi.sourceforge.net/DTD/sodipodi-0.dtd"
   xmlns:inkscape="http://www.inkscape.org/namespaces/inkscape"
   width="200"
   height="200"
   id="svg2"
   version="1.1"
   inkscape:version="0.91 r13725"
   sodipodi:docname="eclipse.svg">
  <defs
     id="defs4">
    <linearGradient
       id="linearGradient4258">
      <stop
         id="stop4260"
         offset="0"
         style="stop-color:#729534;stop-opacity:1" />
      <stop
         id="stop4262"
         offset="1"
         style="stop-color:#7da439;stop-opacity:1" />
    </linearGradient>
    <linearGradient
       id="linearGradient4829">
      <stop
         style="stop-color:#f4fbfc;stop-opacity:1;"
         offset="0"
         id="stop4831" />
      <stop
         style="stop-color:#d6d6d6;stop-opacity:1;"
         offset="1"
         id="stop4833" />
    </linearGradient>
    <clipPath
       clipPathUnits="userSpaceOnUse"
       id="clipPath4282">
      <rect
         style="color:#000000;fill:#4d4d4d;fill-opacity:1;fill-rule:nonzero;stroke:none;stroke-width:9.13434315;marker:none;visibility:visible;display:inline;overflow:visible;enable-background:accumulate"
         id="rect4284"
         width="246.875"
         height="234.375"
         x="462.5"
         y="1646.1122"
         ry="17"
         rx="17" />
    </clipPath>
    <linearGradient
       inkscape:collect="always"
       xlink:href="#linearGradient4829"
       id="linearGradient4835"
       x1="102.29776"
       y1="-0.42686829"
       x2="102.29776"
       y2="199.16539"
       gradientUnits="userSpaceOnUse" />
    <linearGradient
       inkscape:collect="always"
       xlink:href="#linearGradient5423"
       id="linearGradient5429"
       x1="408.66196"
       y1="44.604382"
       x2="408.66196"
       y2="562.04968"
       gradientUnits="userSpaceOnUse" />
    <linearGradient
       id="linearGradient5423">
      <stop
         style="stop-color:#00b6ff;stop-opacity:1;"
         offset="0"
         id="stop5425" />
      <stop
         style="stop-color:#0194cf;stop-opacity:1;"
         offset="1"
         id="stop5427" />
    </linearGradient>
    <linearGradient
       inkscape:collect="always"
       xlink:href="#linearGradient4829"
       id="linearGradient6211"
       x1="100.89178"
       y1="0"
       x2="100.89178"
       y2="200"
       gradientUnits="userSpaceOnUse" />
    <clipPath
       clipPathUnits="userSpaceOnUse"
       id="clipPath6245">
      <rect
         style="opacity:0.85;color:#000000;fill:#ffffff;fill-opacity:1;fill-rule:nonzero;stroke:none;stroke-width:1.5;marker:none;visibility:visible;display:inline;overflow:visible;enable-background:accumulate"
         id="rect6247"
         width="300"
         height="259.375"
         x="-901.5625"
         y="792.98718"
         rx="16.46875"
         ry="16.46875" />
    </clipPath>
    <linearGradient
       gradientTransform="matrix(0,-1,1,0,-1.5e-6,47.999998)"
       gradientUnits="userSpaceOnUse"
       x2="47"
       x1="1"
       id="linearGradient3764">
      <stop
         id="stop4160"
         stop-opacity="1"
         stop-color="#7ca339" />
      <stop
         id="stop4162"
         stop-opacity="1"
         stop-color="#87b23e"
         offset="1" />
    </linearGradient>
    <clipPath
       id="clipPath-780059703">
      <g
         id="g4165"
         transform="translate(0,-1004.3622)">
        <path
           id="path4167"
           fill="#1890d0"
           transform="matrix(15.333333,0,0,11.5,414.99999,878.8622)"
           d="m -24 13 c 0 1.105 -0.672 2 -1.5 2 -0.828 0 -1.5 -0.895 -1.5 -2 0 -1.105 0.672 -2 1.5 -2 0.828 0 1.5 0.895 1.5 2 z" />
      </g>
    </clipPath>
    <clipPath
       id="clipPath-790372096">
      <g
         id="g4170"
         transform="translate(0,-1004.3622)">
        <path
           id="path4172"
           fill="#1890d0"
           transform="matrix(15.333333,0,0,11.5,414.99999,878.8622)"
           d="m -24 13 c 0 1.105 -0.672 2 -1.5 2 -0.828 0 -1.5 -0.895 -1.5 -2 0 -1.105 0.672 -2 1.5 -2 0.828 0 1.5 0.895 1.5 2 z" />
      </g>
    </clipPath>
    <linearGradient
       gradientTransform="matrix(0,-1,1,0,-1.5e-6,47.999998)"
       gradientUnits="userSpaceOnUse"
       x2="47"
       x1="1"
       id="linearGradient3764-1">
      <stop
         id="stop4185"
         style="stop-color:#e4e4e4;stop-opacity:1" />
      <stop
         id="stop4187"
         style="stop-color:#eee;stop-opacity:1"
         offset="1" />
    </linearGradient>
    <clipPath
       id="clipPath-573871031">
      <g
         id="g4190"
         transform="translate(0,-1004.3622)">
        <path
           id="path4192"
           style="fill:#1890d0"
           transform="matrix(15.333333,0,0,11.5,414.99999,878.8622)"
           d="m -24 13 c 0 1.105 -0.672 2 -1.5 2 -0.828 0 -1.5 -0.895 -1.5 -2 0 -1.105 0.672 -2 1.5 -2 0.828 0 1.5 0.895 1.5 2 z" />
      </g>
    </clipPath>
    <clipPath
       id="clipPath-580041823">
      <g
         id="g4195"
         transform="translate(0,-1004.3622)">
        <path
           id="path4197"
           style="fill:#1890d0"
           transform="matrix(15.333333,0,0,11.5,414.99999,878.8622)"
           d="m -24 13 c 0 1.105 -0.672 2 -1.5 2 -0.828 0 -1.5 -0.895 -1.5 -2 0 -1.105 0.672 -2 1.5 -2 0.828 0 1.5 0.895 1.5 2 z" />
      </g>
    </clipPath>
  </defs>
  <sodipodi:namedview
     id="base"
     pagecolor="#ffffff"
     bordercolor="#666666"
     borderopacity="1.0"
     inkscape:pageopacity="0.0"
     inkscape:pageshadow="2"
     inkscape:zoom="1.8101934"
     inkscape:cx="81.958447"
     inkscape:cy="94.828852"
     inkscape:document-units="px"
     inkscape:current-layer="layer1"
     showgrid="false"
     inkscape:window-width="1366"
     inkscape:window-height="693"
     inkscape:window-x="0"
     inkscape:window-y="21"
     inkscape:window-maximized="1"
     inkscape:snap-from-guide="true"
     showguides="true"
     inkscape:guide-bbox="true">
    <sodipodi:guide
       position="0,0"
       orientation="0,200"
       id="guide3764" />
    <sodipodi:guide
       position="200,0"
       orientation="-200,0"
       id="guide3766" />
    <sodipodi:guide
       position="200,200"
       orientation="0,-200"
       id="guide3768" />
    <sodipodi:guide
       position="0,200"
       orientation="200,0"
       id="guide3770" />
  </sodipodi:namedview>
  <metadata
     id="metadata7">
    <rdf:RDF>
      <cc:Work
         rdf:about="">
        <dc:format>image/svg+xml</dc:format>
        <dc:type
           rdf:resource="http://purl.org/dc/dcmitype/StillImage" />
        <dc:title />
      </cc:Work>
    </rdf:RDF>
  </metadata>
  <g
     inkscape:label="Layer 1"
     inkscape:groupmode="layer"
     id="layer1"
     transform="translate(0,-852.36218)">
    <path
       sodipodi:type="arc"
       style="color:#000000;fill:url(#linearGradient4835);fill-opacity:1;fill-rule:nonzero;stroke:none;stroke-width:9.13434315;marker:none;visibility:visible;display:inline;overflow:visible;enable-background:accumulate"
       id="path4188"
       sodipodi:cx="100"
       sodipodi:cy="100"
       sodipodi:rx="100"
       sodipodi:ry="100"
       d="M 200,100 A 100,100 0 0 1 100,200 100,100 0 0 1 0,100 100,100 0 0 1 100,0 100,100 0 0 1 200,100 Z"
       transform="translate(0,852.36219)" />
    <path
       sodipodi:type="arc"
       style="color:#000000;fill:#e6e6e6;fill-opacity:1;fill-rule:nonzero;stroke:none;stroke-width:9.13434315;marker:none;visibility:visible;display:inline;overflow:visible;enable-background:accumulate"
       id="path4188-6"
       sodipodi:cx="100"
       sodipodi:cy="100"
       sodipodi:rx="100"
       sodipodi:ry="100"
       d="M 200,100 A 100,100 0 0 1 100,200 100,100 0 0 1 0,100 100,100 0 0 1 100,0 100,100 0 0 1 200,100 Z"
       transform="matrix(0.91020408,0,0,0.91020408,8.9795918,861.34178)" />
    <g
       id="g4254"
       transform="matrix(5.5721667,0,0,5.5719297,-33.732001,815.86384)">
      <g
         id="g4199" />
      <g
         id="g4207" />
      <g
         id="g4211">
        <g
           clip-path="url(#clipPath-573871031)"
           id="g4213">
          <g
             id="g4215"
             transform="translate(1,1)">
            <g
               id="g4217"
               style="opacity:0.1">
              <!-- color: #eeeeee -->
              <g
                 id="g4219">
                <path
                   id="path4221"
                   style="fill:#000000;fill-opacity:1;fill-rule:evenodd;stroke:none"
                   d="M 25.996,12 26,12 c 6.648,0 12,5.352 12,12 l 0,0.004 C 38,30.649 32.648,36 26,36 l -0.004,0 C 19.351,36 14,30.648 14,24.004 L 14,24 c 0,-6.648 5.352,-12 11.996,-12 m 0,0"
                   inkscape:connector-curvature="0" />
                <path
                   id="path4223"
                   style="fill:#000000;fill-opacity:1;fill-rule:evenodd;stroke:none"
                   d="m 21,12 c -6.648,0 -12,5.352 -12,12 0,6.648 5.352,12 12,12 0.34,0 0.664,-0.035 1,-0.063 C 15.828,35.425 11,30.304 11,23.999 11,17.69 15.828,12.569 22,12.061 21.664,12.03 21.34,11.995 21,11.995 m 0,0.004"
                   inkscape:connector-curvature="0" />
              </g>
            </g>
          </g>
        </g>
      </g>
      <g
         id="g4225">
        <g
           clip-path="url(#clipPath-580041823)"
           id="g4227">
          <!-- color: #eeeeee -->
          <g
             id="g4229">
            <path
               id="path4231"
               style="fill:#2c2053;fill-opacity:1;fill-rule:evenodd;stroke:none"
               d="M 25.996,12 26,12 c 6.648,0 12,5.352 12,12 l 0,0.004 C 38,30.649 32.648,36 26,36 l -0.004,0 C 19.351,36 14,30.648 14,24.004 L 14,24 c 0,-6.648 5.352,-12 11.996,-12 m 0,0"
               inkscape:connector-curvature="0" />
            <path
               id="path4233"
               style="fill:#f4941e;fill-opacity:1;fill-rule:evenodd;stroke:none"
               d="m 21,12 c -6.648,0 -12,5.352 -12,12 0,6.648 5.352,12 12,12 0.34,0 0.664,-0.035 1,-0.063 C 15.828,35.425 11,30.304 11,23.999 11,17.69 15.828,12.569 22,12.061 21.664,12.03 21.34,11.995 21,11.995 m 0,0.004"
               inkscape:connector-curvature="0" />
            <path
               id="path4235"
               style="fill:#f9f9f9;fill-opacity:1;fill-rule:nonzero;stroke:none"
               d="m 15.09,19 c -0.293,0.641 -0.539,1.305 -0.719,2 l 23.25,0 c -0.18,-0.695 -0.426,-1.359 -0.719,-2 m -22.844,4 c -0.027,0.336 -0.063,0.66 -0.063,1 0,0.34 0.035,0.664 0.063,1 l 23.875,0 c 0.027,-0.336 0.063,-0.66 0.063,-1 0,-0.34 -0.035,-0.664 -0.063,-1 M 14.37,27 c 0.18,0.695 0.43,1.359 0.719,2 l 21.813,0 c 0.293,-0.641 0.543,-1.305 0.719,-2 m -23.25,0"
               inkscape:connector-curvature="0" />
          </g>
        </g>
      </g>
      <g
         id="g4237" />
    </g>
  </g>
</svg>
