<?xml version="1.0" encoding="UTF-8" standalone="no"?>
<svg
   xmlns:dc="http://purl.org/dc/elements/1.1/"
   xmlns:cc="http://creativecommons.org/ns#"
   xmlns:rdf="http://www.w3.org/1999/02/22-rdf-syntax-ns#"
   xmlns:svg="http://www.w3.org/2000/svg"
   xmlns="http://www.w3.org/2000/svg"
   xmlns:xlink="http://www.w3.org/1999/xlink"
   xmlns:sodipodi="http://sodipodi.sourceforge.net/DTD/sodipodi-0.dtd"
   xmlns:inkscape="http://www.inkscape.org/namespaces/inkscape"
   version="1.1"
   width="200"
   height="200"
   id="svg3062"
   sodipodi:docname="filezilla.svg"
   inkscape:version="0.92.2 (unknown)">
  <metadata
     id="metadata12">
    <rdf:RDF>
      <cc:Work
         rdf:about="">
        <dc:format>image/svg+xml</dc:format>
        <dc:type
           rdf:resource="http://purl.org/dc/dcmitype/StillImage" />
        <dc:title />
      </cc:Work>
    </rdf:RDF>
  </metadata>
  <sodipodi:namedview
     pagecolor="#ffffff"
     bordercolor="#666666"
     borderopacity="1"
     objecttolerance="10"
     gridtolerance="10"
     guidetolerance="10"
     inkscape:pageopacity="0"
     inkscape:pageshadow="2"
     inkscape:window-width="1681"
     inkscape:window-height="885"
     id="namedview10"
     showgrid="false"
     inkscape:zoom="1.7566048"
     inkscape:cx="96.350756"
     inkscape:cy="95.425833"
     inkscape:window-x="10"
     inkscape:window-y="34"
     inkscape:window-maximized="0"
     inkscape:current-layer="svg3062" />
  <defs
     id="defs3064">
    <linearGradient
       x1="187.94679"
       y1="123.8594"
       x2="187.94679"
       y2="258.86539"
       id="XMLID_2_"
       gradientUnits="userSpaceOnUse">
      <stop
         id="stop2308"
         style="stop-color:#bf0000;stop-opacity:1"
         offset="0" />
      <stop
         id="stop2310"
         style="stop-color:#8f0000;stop-opacity:1"
         offset="1" />
    </linearGradient>
    <linearGradient
       x1="187.94679"
       y1="123.8594"
       x2="187.94679"
       y2="258.86539"
       id="linearGradient3060"
       xlink:href="#XMLID_2_"
       gradientUnits="userSpaceOnUse"
       gradientTransform="matrix(1.0586068,0,0,1.0585764,-99.21583,-100.89968)" />
  </defs>
  <path
     d="m 7.25,13.944788 v 8.166917 c 3.415064,0 6.193904,2.778761 6.193904,6.192674 0,3.416025 -2.77884,6.194788 -6.193904,6.194788 v 8.166916 c 3.415064,0 6.193904,2.778767 6.193904,6.192675 0,3.416025 -2.77884,6.194789 -6.193904,6.194789 v 8.16692 c 3.415064,0 6.193904,2.778763 6.193904,6.196906 0,3.418142 -2.77884,6.196905 -6.193904,6.196905 v 8.166916 c 3.415064,0 6.193904,2.77665 6.193904,6.192675 0,3.416026 -2.77884,6.194788 -6.193904,6.194788 v 8.166923 c 3.415064,0 6.193904,2.77664 6.193904,6.19267 0,3.41602 -2.77884,6.19479 -6.193904,6.19479 v 8.16692 c 3.415064,0 6.193904,2.77664 6.193904,6.19267 0,3.41602 -2.77884,6.19479 -6.193904,6.19479 v 8.16691 c 3.415064,0 6.193904,2.77665 6.193904,6.19267 0,3.41604 -2.77884,6.1948 -6.193904,6.1948 v 8.16692 c 3.415064,0 6.193904,2.77664 6.193904,6.19267 0,3.41602 -2.77884,6.19477 -6.193904,6.19477 v 8.17117 c 1.6302508,0 3.226632,0.6595 4.380514,1.81333 1.151764,1.15173 1.81339,2.74807 1.81339,4.37934 h 8.167155 c 0,-3.41602 2.77884,-6.19267 6.193909,-6.19267 3.415064,0 6.193904,2.77665 6.193904,6.19267 h 8.167155 c 0,-3.41602 2.778841,-6.19267 6.193905,-6.19267 3.415068,0 6.193909,2.77665 6.193909,6.19267 h 8.167154 c 0,-3.41602 2.778845,-6.19267 6.193909,-6.19267 3.415064,0 6.193911,2.77665 6.193911,6.19267 h 8.167147 c 0,-3.41602 2.778848,-6.19267 6.193911,-6.19267 3.415063,0 6.19391,2.77665 6.19391,6.19267 h 8.167147 c 0,-3.41602 2.77884,-6.19267 6.1939,-6.19267 3.41507,0 6.19392,2.77665 6.19392,6.19267 h 8.16715 c 0,-3.41602 2.77883,-6.19267 6.1939,-6.19267 3.41507,0 6.19392,2.77665 6.19392,6.19267 h 8.16715 c 0,-3.41602 2.77883,-6.19267 6.19389,-6.19267 3.41508,0 6.19392,2.77665 6.19392,6.19267 h 8.16715 c 0,-3.41602 2.77884,-6.19267 6.19391,-6.19267 3.41506,0 6.19391,2.77665 6.19391,6.19267 h 8.17138 c 0,-1.63127 0.66164,-3.22761 1.81551,-4.37934 1.15176,-1.15383 2.74815,-1.81333 4.37946,-1.81333 v -8.16693 c -3.41612,0 -6.19497,-2.77875 -6.19497,-6.19478 0,-3.41602 2.77885,-6.19267 6.19497,-6.19267 v -8.16692 c -3.41612,0 -6.19497,-2.77877 -6.19497,-6.19478 0,-3.41604 2.77885,-6.19268 6.19497,-6.19268 v -8.16692 c -3.41612,0 -6.19497,-2.77876 -6.19497,-6.19479 0,-3.41603 2.77885,-6.19267 6.19497,-6.19267 v -8.16691 c -3.41612,0 -6.19497,-2.77877 -6.19497,-6.1948 0,-3.41603 2.77885,-6.19268 6.19497,-6.19268 v -8.166908 c -3.41612,0 -6.19497,-2.778761 -6.19497,-6.194787 0,-3.41603 2.77885,-6.192675 6.19497,-6.192675 v -8.166916 c -3.41612,0 -6.19497,-2.778763 -6.19497,-6.196906 0,-3.418143 2.77885,-6.19691 6.19497,-6.19691 v -8.166916 c -3.41612,0 -6.19497,-2.778763 -6.19497,-6.194789 0,-3.413912 2.77885,-6.192674 6.19497,-6.192674 v -8.166917 c -3.41612,0 -6.19497,-2.778761 -6.19497,-6.194787 0,-3.413913 2.77885,-6.192675 6.19497,-6.192675 v -8.171152 c -1.63131,0 -3.2277,-0.661609 -4.37946,-1.813343 -1.15387,-1.153847 -1.81551,-2.75018 -1.81551,-4.381445 h -8.16713 c 0,3.416025 -2.77885,6.194788 -6.19392,6.194788 -3.41507,0 -6.19391,-2.778763 -6.19391,-6.194788 h -8.16715 c 0,3.416025 -2.77884,6.194788 -6.19391,6.194788 -3.41507,0 -6.19391,-2.778763 -6.19391,-6.194788 h -8.16716 c 0,3.416025 -2.77883,6.194788 -6.1939,6.194788 -3.41506,0 -6.19391,-2.778763 -6.19391,-6.194788 h -8.16715 c 0,3.416025 -2.77883,6.194788 -6.19391,6.194788 -3.41506,0 -6.1939,-2.778763 -6.1939,-6.194788 h -8.167157 c 0,3.416025 -2.77884,6.194788 -6.193905,6.194788 -3.415068,0 -6.193909,-2.778763 -6.193909,-6.194788 h -8.167154 c 0,3.416025 -2.778842,6.194788 -6.193906,6.194788 -3.415068,0 -6.193909,-2.778763 -6.193909,-6.194788 h -8.167154 c 0,3.416025 -2.778841,6.194788 -6.193909,6.194788 -3.415064,0 -6.19391,-2.778763 -6.19391,-6.194788 h -8.167149 c 0,3.416025 -2.77884,6.194788 -6.193909,6.194788 -3.415064,0 -6.193909,-2.778763 -6.193909,-6.194788 h -8.171386 c 0,1.631265 -0.661626,3.227598 -1.81339,4.381445 C 10.476632,13.283179 8.8802508,13.944788 7.25,13.944788 Z"
     id="path2312"
     style="fill:url(#linearGradient3060);stroke-width:0.48684195"
     inkscape:connector-curvature="0" />
  <path
     d="M 164.84692,81.774136 H 72.531107 l 4.817716,-22.54027 H 133.61378 L 138.77555,34.97341 H 57.904336 L 32.438488,155.07315 h 24.433706 l 11.182064,-52.48 h 58.605532 l -50.924285,50.41471 8.947345,15.8289 c 4.12857,-2.7523 10.839076,-3.0974 15.48531,-3.0974 8.2603,0 16.347,2.75442 24.77562,2.75442 7.7289,0 15.64092,-0.51659 28.54745,-6.71138 l 4.50966,-21.16306 c -8.77689,3.61187 -21.76283,7.05436 -33.05711,7.05436 -4.64305,0 -8.94522,-1.03212 -13.41889,-1.72019 l 49.36389,-48.00433 z"
     id="path2314"
     style="fill:#ffffff;stroke-width:0.48684195"
     inkscape:connector-curvature="0" />
</svg>
