<?xml version="1.0" encoding="UTF-8" standalone="no"?>
<svg
   xmlns:dc="http://purl.org/dc/elements/1.1/"
   xmlns:cc="http://creativecommons.org/ns#"
   xmlns:rdf="http://www.w3.org/1999/02/22-rdf-syntax-ns#"
   xmlns:svg="http://www.w3.org/2000/svg"
   xmlns="http://www.w3.org/2000/svg"
   xmlns:xlink="http://www.w3.org/1999/xlink"
   xmlns:sodipodi="http://sodipodi.sourceforge.net/DTD/sodipodi-0.dtd"
   xmlns:inkscape="http://www.inkscape.org/namespaces/inkscape"
   version="1.1"
   width="200"
   height="200"
   id="svg3062"
   sodipodi:docname="filezilla.svg"
   inkscape:version="0.92.2 (unknown)">
  <metadata
     id="metadata12">
    <rdf:RDF>
      <cc:Work
         rdf:about="">
        <dc:format>image/svg+xml</dc:format>
        <dc:type
           rdf:resource="http://purl.org/dc/dcmitype/StillImage" />
        <dc:title />
      </cc:Work>
    </rdf:RDF>
  </metadata>
  <sodipodi:namedview
     pagecolor="#ffffff"
     bordercolor="#666666"
     borderopacity="1"
     objecttolerance="10"
     gridtolerance="10"
     guidetolerance="10"
     inkscape:pageopacity="0"
     inkscape:pageshadow="2"
     inkscape:window-width="1681"
     inkscape:window-height="885"
     id="namedview10"
     showgrid="false"
     inkscape:zoom="1.7566048"
     inkscape:cx="94.642916"
     inkscape:cy="88.831875"
     inkscape:window-x="10"
     inkscape:window-y="34"
     inkscape:window-maximized="0"
     inkscape:current-layer="svg3062" />
  <defs
     id="defs3064">
    <linearGradient
       x1="187.94679"
       y1="123.8594"
       x2="187.94679"
       y2="258.86539"
       id="XMLID_2_"
       gradientUnits="userSpaceOnUse">
      <stop
         id="stop2308"
         style="stop-color:#bf0000;stop-opacity:1"
         offset="0" />
      <stop
         id="stop2310"
         style="stop-color:#8f0000;stop-opacity:1"
         offset="1" />
    </linearGradient>
    <linearGradient
       x1="187.94679"
       y1="123.8594"
       x2="187.94679"
       y2="258.86539"
       id="linearGradient3060"
       xlink:href="#XMLID_2_"
       gradientUnits="userSpaceOnUse"
       gradientTransform="matrix(1.0872178,0,0,1.0871866,-104.34328,-106.58616)" />
  </defs>
  <path
     d="m 5,11.362215 v 8.387644 c 3.5073629,0 6.361307,2.853863 6.361307,6.360044 0,3.50835 -2.8539441,6.362214 -6.361307,6.362214 v 8.387644 c 3.5073629,0 6.361307,2.853869 6.361307,6.360044 0,3.508351 -2.8539441,6.362216 -6.361307,6.362216 v 8.387648 c 3.5073629,0 6.361307,2.853864 6.361307,6.36439 0,3.510524 -2.8539441,6.364389 -6.361307,6.364389 v 8.387643 c 3.5073629,0 6.361307,2.851695 6.361307,6.360045 0,3.508351 -2.8539441,6.362214 -6.361307,6.362214 v 8.38765 c 3.5073629,0 6.361307,2.85169 6.361307,6.36004 0,3.50835 -2.8539441,6.36222 -6.361307,6.36222 v 8.38764 c 3.5073629,0 6.361307,2.85169 6.361307,6.36004 0,3.50835 -2.8539441,6.36222 -6.361307,6.36222 v 8.38764 c 3.5073629,0 6.361307,2.85169 6.361307,6.36004 0,3.50836 -2.8539441,6.36222 -6.361307,6.36222 v 8.38765 c 3.5073629,0 6.361307,2.85169 6.361307,6.36004 0,3.50835 -2.8539441,6.3622 -6.361307,6.3622 v 8.39201 c 1.6743116,0 3.3138384,0.67732 4.498906,1.86234 1.182893,1.18286 1.862401,2.82234 1.862401,4.4977 h 8.387889 c 0,-3.50835 2.853944,-6.36004 6.361312,-6.36004 3.507363,0 6.361307,2.85169 6.361307,6.36004 h 8.387888 c 0,-3.50835 2.853945,-6.36004 6.361308,-6.36004 3.507367,0 6.361312,2.85169 6.361312,6.36004 h 8.387888 c 0,-3.50835 2.853949,-6.36004 6.361312,-6.36004 3.507363,0 6.361314,2.85169 6.361314,6.36004 h 8.387881 c 0,-3.50835 2.853952,-6.36004 6.361314,-6.36004 3.507362,0 6.361313,2.85169 6.361313,6.36004 h 8.387885 c 0,-3.50835 2.85394,-6.36004 6.3613,-6.36004 3.50737,0 6.36132,2.85169 6.36132,6.36004 h 8.38788 c 0,-3.50835 2.85394,-6.36004 6.36131,-6.36004 3.50737,0 6.36132,2.85169 6.36132,6.36004 h 8.38788 c 0,-3.50835 2.85394,-6.36004 6.3613,-6.36004 3.50738,0 6.36132,2.85169 6.36132,6.36004 h 8.38788 c 0,-3.50835 2.85395,-6.36004 6.36132,-6.36004 3.50736,0 6.36131,2.85169 6.36131,6.36004 h 8.39223 c 0,-1.67536 0.67952,-3.31484 1.86458,-4.4977 1.18289,-1.18502 2.82242,-1.86234 4.49782,-1.86234 v -8.38766 c -3.50845,0 -6.3624,-2.85385 -6.3624,-6.3622 0,-3.50835 2.85395,-6.36004 6.3624,-6.36004 v -8.38765 c -3.50845,0 -6.3624,-2.85387 -6.3624,-6.36221 0,-3.50836 2.85395,-6.36005 6.3624,-6.36005 v -8.38764 c -3.50845,0 -6.3624,-2.85387 -6.3624,-6.36222 0,-3.50836 2.85395,-6.36004 6.3624,-6.36004 v -8.38764 c -3.50845,0 -6.3624,-2.85387 -6.3624,-6.36223 0,-3.50835 2.85395,-6.36004 6.3624,-6.36004 V 95.8127 c -3.50845,0 -6.3624,-2.853863 -6.3624,-6.362214 0,-3.508355 2.85395,-6.360044 6.3624,-6.360044 v -8.387644 c -3.50845,0 -6.3624,-2.853865 -6.3624,-6.36439 0,-3.510525 2.85395,-6.364394 6.3624,-6.364394 v -8.387643 c -3.50845,0 -6.3624,-2.853865 -6.3624,-6.362216 0,-3.50618 2.85395,-6.360044 6.3624,-6.360044 v -8.387644 c -3.50845,0 -6.3624,-2.853863 -6.3624,-6.362214 0,-3.506181 2.85395,-6.360044 6.3624,-6.360044 v -8.391994 c -1.6754,0 -3.31493,-0.679491 -4.49782,-1.862353 C 189.31712,8.31483 188.6376,6.675353 188.6376,5 h -8.38787 c 0,3.50835 -2.85395,6.362215 -6.36132,6.362215 -3.50737,0 -6.36131,-2.853865 -6.36131,-6.362215 h -8.38789 c 0,3.50835 -2.85394,6.362215 -6.36131,6.362215 -3.50737,0 -6.36131,-2.853865 -6.36131,-6.362215 h -8.38789 c 0,3.50835 -2.85394,6.362215 -6.36131,6.362215 -3.50736,0 -6.36131,-2.853865 -6.36131,-6.362215 h -8.38788 c 0,3.50835 -2.85394,6.362215 -6.36132,6.362215 -3.50736,0 -6.3613,-2.853865 -6.3613,-6.362215 h -8.387891 c 0,3.50835 -2.853944,6.362215 -6.361308,6.362215 -3.507367,0 -6.361312,-2.853865 -6.361312,-6.362215 h -8.387888 c 0,3.50835 -2.853945,6.362215 -6.361308,6.362215 -3.507368,0 -6.361312,-2.853865 -6.361312,-6.362215 h -8.387888 c 0,3.50835 -2.853945,6.362215 -6.361312,6.362215 -3.507363,0 -6.361313,-2.853865 -6.361313,-6.362215 h -8.387883 c 0,3.50835 -2.853944,6.362215 -6.361312,6.362215 C 22.60749,11.362215 19.753541,8.50835 19.753541,5 h -8.392234 c 0,1.675353 -0.679508,3.31483 -1.862401,4.499862 C 8.3138384,10.682724 6.6743116,11.362215 5,11.362215 Z"
     id="path2312"
     style="fill:url(#linearGradient3060);stroke-width:0.49999985"
     inkscape:connector-curvature="0" />
  <path
     d="M 166.8563,81.024788 H 72.045461 l 4.947925,-23.149466 h 57.785634 l 5.30127,-24.916144 H 57.023372 L 30.869258,156.30486 h 25.094076 l 11.484282,-53.89838 h 60.189464 l -52.300615,51.77727 9.189165,16.25671 c 4.240153,-2.82669 11.132024,-3.18112 15.90383,-3.18112 8.48355,0 16.78881,2.82887 25.44523,2.82887 7.93779,0 16.06365,-0.53056 29.31901,-6.89277 l 4.63154,-21.73504 c -9.01411,3.70949 -22.35102,7.24502 -33.95055,7.24502 -4.76853,0 -9.18698,-1.06001 -13.78156,-1.76668 L 162.79118,97.637 Z"
     id="path2314"
     style="fill:#ffffff;stroke-width:0.49999985"
     inkscape:connector-curvature="0" />
</svg>
