<?xml version="1.0" encoding="UTF-8" standalone="no"?>
<!-- Created with Inkscape (http://www.inkscape.org/) -->

<svg
   xmlns:dc="http://purl.org/dc/elements/1.1/"
   xmlns:cc="http://creativecommons.org/ns#"
   xmlns:rdf="http://www.w3.org/1999/02/22-rdf-syntax-ns#"
   xmlns:svg="http://www.w3.org/2000/svg"
   xmlns="http://www.w3.org/2000/svg"
   xmlns:xlink="http://www.w3.org/1999/xlink"
   xmlns:sodipodi="http://sodipodi.sourceforge.net/DTD/sodipodi-0.dtd"
   xmlns:inkscape="http://www.inkscape.org/namespaces/inkscape"
   width="200"
   height="200"
   id="svg2"
   version="1.1"
   inkscape:version="0.91 r"
   sodipodi:docname="jaspersoft.svg">
  <defs
     id="defs4">
    <linearGradient
       id="linearGradient4258">
      <stop
         id="stop4260"
         offset="0"
         style="stop-color:#729534;stop-opacity:1" />
      <stop
         id="stop4262"
         offset="1"
         style="stop-color:#7da439;stop-opacity:1" />
    </linearGradient>
    <linearGradient
       id="linearGradient4829">
      <stop
         style="stop-color:#f4fbfc;stop-opacity:1;"
         offset="0"
         id="stop4831" />
      <stop
         style="stop-color:#d6d6d6;stop-opacity:1;"
         offset="1"
         id="stop4833" />
    </linearGradient>
    <clipPath
       clipPathUnits="userSpaceOnUse"
       id="clipPath4282">
      <rect
         style="color:#000000;fill:#4d4d4d;fill-opacity:1;fill-rule:nonzero;stroke:none;stroke-width:9.13434315;marker:none;visibility:visible;display:inline;overflow:visible;enable-background:accumulate"
         id="rect4284"
         width="246.875"
         height="234.375"
         x="462.5"
         y="1646.1122"
         ry="17"
         rx="17" />
    </clipPath>
    <linearGradient
       inkscape:collect="always"
       xlink:href="#linearGradient4829"
       id="linearGradient4835"
       x1="102.29776"
       y1="-0.42686829"
       x2="102.29776"
       y2="199.16539"
       gradientUnits="userSpaceOnUse" />
    <linearGradient
       inkscape:collect="always"
       xlink:href="#linearGradient5423"
       id="linearGradient5429"
       x1="408.66196"
       y1="44.604382"
       x2="408.66196"
       y2="562.04968"
       gradientUnits="userSpaceOnUse" />
    <linearGradient
       id="linearGradient5423">
      <stop
         style="stop-color:#00b6ff;stop-opacity:1;"
         offset="0"
         id="stop5425" />
      <stop
         style="stop-color:#0194cf;stop-opacity:1;"
         offset="1"
         id="stop5427" />
    </linearGradient>
    <linearGradient
       inkscape:collect="always"
       xlink:href="#linearGradient3764-3"
       id="linearGradient6197"
       gradientUnits="userSpaceOnUse"
       x1="99.036476"
       y1="-0.50471628"
       x2="99.036476"
       y2="199.83986"
       gradientTransform="matrix(0.91020408,0,0,0.91020408,8.979592,861.34179)" />
    <linearGradient
       inkscape:collect="always"
       xlink:href="#linearGradient4829"
       id="linearGradient6211"
       x1="100.89178"
       y1="0"
       x2="100.89178"
       y2="200"
       gradientUnits="userSpaceOnUse" />
    <clipPath
       clipPathUnits="userSpaceOnUse"
       id="clipPath6245">
      <rect
         style="opacity:0.85;color:#000000;fill:#ffffff;fill-opacity:1;fill-rule:nonzero;stroke:none;stroke-width:1.5;marker:none;visibility:visible;display:inline;overflow:visible;enable-background:accumulate"
         id="rect6247"
         width="300"
         height="259.375"
         x="-901.5625"
         y="792.98718"
         rx="16.46875"
         ry="16.46875" />
    </clipPath>
    <linearGradient
       gradientTransform="matrix(0,-1,1,0,-1.5e-6,47.999998)"
       gradientUnits="userSpaceOnUse"
       x2="47"
       x1="1"
       id="linearGradient3764">
      <stop
         id="stop4160"
         stop-opacity="1"
         stop-color="#7ca339" />
      <stop
         id="stop4162"
         stop-opacity="1"
         stop-color="#87b23e"
         offset="1" />
    </linearGradient>
    <clipPath
       id="clipPath-780059703">
      <g
         id="g4165"
         transform="translate(0,-1004.3622)">
        <path
           id="path4167"
           fill="#1890d0"
           transform="matrix(15.333333,0,0,11.5,414.99999,878.8622)"
           d="m -24 13 c 0 1.105 -0.672 2 -1.5 2 -0.828 0 -1.5 -0.895 -1.5 -2 0 -1.105 0.672 -2 1.5 -2 0.828 0 1.5 0.895 1.5 2 z" />
      </g>
    </clipPath>
    <clipPath
       id="clipPath-790372096">
      <g
         id="g4170"
         transform="translate(0,-1004.3622)">
        <path
           id="path4172"
           fill="#1890d0"
           transform="matrix(15.333333,0,0,11.5,414.99999,878.8622)"
           d="m -24 13 c 0 1.105 -0.672 2 -1.5 2 -0.828 0 -1.5 -0.895 -1.5 -2 0 -1.105 0.672 -2 1.5 -2 0.828 0 1.5 0.895 1.5 2 z" />
      </g>
    </clipPath>
    <linearGradient
       gradientTransform="matrix(0,-1,1,0,-1.5e-6,47.999998)"
       gradientUnits="userSpaceOnUse"
       x2="47"
       x1="1"
       id="linearGradient3764-3">
      <stop
         id="stop3385"
         style="stop-color:#43a0e7;stop-opacity:1" />
      <stop
         id="stop3387"
         style="stop-color:#55a7e9;stop-opacity:1"
         offset="1" />
    </linearGradient>
  </defs>
  <sodipodi:namedview
     id="base"
     pagecolor="#ffffff"
     bordercolor="#666666"
     borderopacity="1.0"
     inkscape:pageopacity="0.0"
     inkscape:pageshadow="2"
     inkscape:zoom="1.8101934"
     inkscape:cx="-93.44305"
     inkscape:cy="72.731766"
     inkscape:document-units="px"
     inkscape:current-layer="layer1"
     showgrid="false"
     inkscape:window-width="1920"
     inkscape:window-height="1059"
     inkscape:window-x="1366"
     inkscape:window-y="21"
     inkscape:window-maximized="1"
     inkscape:snap-from-guide="true"
     showguides="true"
     inkscape:guide-bbox="true">
    <sodipodi:guide
       position="0,0"
       orientation="0,200"
       id="guide3764" />
    <sodipodi:guide
       position="200,0"
       orientation="-200,0"
       id="guide3766" />
    <sodipodi:guide
       position="200,200"
       orientation="0,-200"
       id="guide3768" />
    <sodipodi:guide
       position="0,200"
       orientation="200,0"
       id="guide3770" />
  </sodipodi:namedview>
  <metadata
     id="metadata7">
    <rdf:RDF>
      <cc:Work
         rdf:about="">
        <dc:format>image/svg+xml</dc:format>
        <dc:type
           rdf:resource="http://purl.org/dc/dcmitype/StillImage" />
        <dc:title></dc:title>
      </cc:Work>
    </rdf:RDF>
  </metadata>
  <g
     inkscape:label="Layer 1"
     inkscape:groupmode="layer"
     id="layer1"
     transform="translate(0,-852.36218)">
    <path
       sodipodi:type="arc"
       style="color:#000000;fill:url(#linearGradient4835);fill-opacity:1;fill-rule:nonzero;stroke:none;stroke-width:9.13434315;marker:none;visibility:visible;display:inline;overflow:visible;enable-background:accumulate"
       id="path4188"
       sodipodi:cx="100"
       sodipodi:cy="100"
       sodipodi:rx="100"
       sodipodi:ry="100"
       d="M 200,100 A 100,100 0 0 1 100,200 100,100 0 0 1 0,100 100,100 0 0 1 100,0 100,100 0 0 1 200,100 Z"
       transform="translate(0,852.36219)" />
    <circle
       style="color:#000000;display:inline;overflow:visible;visibility:visible;fill:url(#linearGradient6197);fill-opacity:1;fill-rule:nonzero;stroke:none;stroke-width:9.13434315;marker:none;enable-background:accumulate"
       id="path4188-6"
       cx="100"
       cy="952.36218"
       r="91.020409" />
    <g
       id="g3416"
       transform="matrix(4.2555002,0,0,4.2553191,-187.38382,886.76073)">
      <path
         id="path3405"
         style="color:#000000;white-space:normal;display:inline;visibility:visible;opacity:1;isolation:auto;mix-blend-mode:normal;color-interpolation:sRGB;color-interpolation-filters:linearRGB;solid-color:#000000;solid-opacity:1;fill:#000000;fill-opacity:0.09800002;fill-rule:evenodd;stroke:none;color-rendering:auto;image-rendering:auto;shape-rendering:auto"
         white-space="normal"
         isolation="auto"
         mix-blend-mode="normal"
         d="m 72.318533,2.9725731 c -0.569,-0.078 -1.027,-0.079 -1.446,0.021 -0.419,0.1 -0.808,0.344 -1.039,0.65 -0.231,0.307 -0.303,0.608 -0.339,0.754 -0.813,1.946 -1.775,3.88 -2.655,5.534 -0.882,1.6549999 -1.579,2.8719999 -1.881,3.4999999 -0.397,0.612 -0.731,1.462 -1.134,2.587 -0.402,1.125 -0.836,2.481 -1.263,3.895 -0.887,2.961 -1.687,5.921 -2.464,8.896 1.266,0.107 1.266,0.098 2.243,0.107 0.719,-1.609 1.912,-3.14 2.91,-4.257 1.727,-1.921 4.218,-3.885 6.597,-4.323 l 0.801,-0.145 c 0.044,-3.034 0.272,-6.318 1.502,-8.979 0.504,-1.106 1.208,-1.9839999 1.86,-2.9879999 0.168,-0.165 0.036,-0.36 0.054,-0.54 -0.487,-2.945 -2.136,-4.407 -3.7,-4.704 -0.014,0.006 -0.041,-0.007 -0.046,-0.008 z"
         inkscape:connector-curvature="0" />
      <path
         id="path3407"
         style="color:#000000;white-space:normal;display:inline;visibility:visible;opacity:1;isolation:auto;mix-blend-mode:normal;color-interpolation:sRGB;color-interpolation-filters:linearRGB;solid-color:#000000;solid-opacity:1;fill:#f8f8f8;fill-opacity:1;fill-rule:evenodd;stroke:none;color-rendering:auto;image-rendering:auto;shape-rendering:auto"
         white-space="normal"
         isolation="auto"
         mix-blend-mode="normal"
         d="m 71.188718,1.9725731 c -0.569,-0.078 -1.027,-0.079 -1.446,0.021 -0.419,0.1 -0.808,0.344 -1.039,0.65 -0.231,0.307 -0.303,0.608 -0.339,0.754 -0.813,1.946 -1.775,3.88 -2.655,5.534 -0.882,1.6549999 -1.579,2.8719999 -1.881,3.4999999 -0.397,0.612 -0.731,1.462 -1.134,2.587 -0.402,1.125 -0.836,2.481 -1.263,3.895 -0.887,2.961 -1.687,5.921 -2.464,8.896 1.266,0.107 1.266,0.098 2.243,0.107 0.719,-1.609 1.912,-3.14 2.91,-4.257 1.727,-1.921 4.218,-3.885 6.597,-4.323 l 0.801,-0.145 c 0.044,-3.034 0.272,-6.318 1.502,-8.979 0.504,-1.1059999 1.208,-1.9839999 1.86,-2.9879999 0.168,-0.165 0.036,-0.36 0.054,-0.54 -0.487,-2.945 -2.136,-4.407 -3.7,-4.704 -0.014,0.006 -0.041,-0.007 -0.046,-0.008 z"
         inkscape:connector-curvature="0" />
    </g>
  </g>
</svg>
