<?xml version="1.0" encoding="UTF-8" standalone="no"?>
<svg
   xmlns:dc="http://purl.org/dc/elements/1.1/"
   xmlns:cc="http://creativecommons.org/ns#"
   xmlns:rdf="http://www.w3.org/1999/02/22-rdf-syntax-ns#"
   xmlns:svg="http://www.w3.org/2000/svg"
   xmlns="http://www.w3.org/2000/svg"
   xmlns:sodipodi="http://sodipodi.sourceforge.net/DTD/sodipodi-0.dtd"
   xmlns:inkscape="http://www.inkscape.org/namespaces/inkscape"
   viewBox="0 0 200 200"
   version="1.1"
   id="svg29"
   sodipodi:docname="jaspersoft.svg"
   width="200"
   height="200"
   inkscape:version="0.92.2 (unknown)">
  <metadata
     id="metadata33">
    <rdf:RDF>
      <cc:Work
         rdf:about="">
        <dc:format>image/svg+xml</dc:format>
        <dc:type
           rdf:resource="http://purl.org/dc/dcmitype/StillImage" />
        <dc:title />
      </cc:Work>
    </rdf:RDF>
  </metadata>
  <sodipodi:namedview
     pagecolor="#ffffff"
     bordercolor="#666666"
     borderopacity="1"
     objecttolerance="10"
     gridtolerance="10"
     guidetolerance="10"
     inkscape:pageopacity="0"
     inkscape:pageshadow="2"
     inkscape:window-width="1920"
     inkscape:window-height="1007"
     id="namedview31"
     showgrid="false"
     inkscape:zoom="2.4583333"
     inkscape:cx="49.09992"
     inkscape:cy="119.74212"
     inkscape:window-x="0"
     inkscape:window-y="24"
     inkscape:window-maximized="1"
     inkscape:current-layer="svg29" />
  <defs
     id="defs7">
    <linearGradient
       id="linearGradient3764"
       x1="1"
       x2="47"
       gradientUnits="userSpaceOnUse"
       gradientTransform="rotate(-90,23.999998,24)">
      <stop
         style="stop-color:#43a0e7;stop-opacity:1"
         id="stop2" />
      <stop
         offset="1"
         style="stop-color:#55a7e9;stop-opacity:1"
         id="stop4" />
    </linearGradient>
  </defs>
  <g
     id="g15"
     transform="matrix(4.2555002,0,0,4.2553191,-4.2555002,-4.2553168)">
    <path
       d="m 36.31,5 c 5.859,4.062 9.688,10.831 9.688,18.5 0,12.426 -10.07,22.5 -22.5,22.5 -7.669,0 -14.438,-3.828 -18.5,-9.688 1.037,1.822 2.306,3.499 3.781,4.969 4.085,3.712 9.514,5.969 15.469,5.969 12.703,0 23,-10.298 23,-23 0,-5.954 -2.256,-11.384 -5.969,-15.469 C 39.81,7.306 38.132,6.037 36.31,5 Z m 4.969,3.781 c 3.854,4.113 6.219,9.637 6.219,15.719 0,12.703 -10.297,23 -23,23 -6.081,0 -11.606,-2.364 -15.719,-6.219 4.16,4.144 9.883,6.719 16.219,6.719 12.703,0 23,-10.298 23,-23 0,-6.335 -2.575,-12.06 -6.719,-16.219 z"
       style="opacity:0.05"
       id="path9"
       inkscape:connector-curvature="0" />
    <path
       d="m 41.28,8.781 c 3.712,4.085 5.969,9.514 5.969,15.469 0,12.703 -10.297,23 -23,23 -5.954,0 -11.384,-2.256 -15.469,-5.969 4.113,3.854 9.637,6.219 15.719,6.219 12.703,0 23,-10.298 23,-23 0,-6.081 -2.364,-11.606 -6.219,-15.719 z"
       style="opacity:0.1"
       id="path11"
       inkscape:connector-curvature="0" />
    <path
       d="M 31.25,2.375 C 39.865,5.529 46,13.792 46,23.505 c 0,12.426 -10.07,22.5 -22.5,22.5 -9.708,0 -17.971,-6.135 -21.12,-14.75 a 23,23 0 0 0 44.875,-7 23,23 0 0 0 -16,-21.875 z"
       style="opacity:0.2"
       id="path13"
       inkscape:connector-curvature="0" />
  </g>
  <g
     id="g19"
     transform="matrix(4.2555002,0,0,4.2553191,-4.2555002,-4.2553168)">
    <path
       d="M 24,1 C 36.703,1 47,11.297 47,24 47,36.703 36.703,47 24,47 11.297,47 1,36.703 1,24 1,11.297 11.297,1 24,1 Z"
       style="fill:url(#linearGradient3764);fill-opacity:1"
       id="path17"
       inkscape:connector-curvature="0" />
  </g>
  <g
     id="g23"
     transform="matrix(4.2555002,0,0,4.2553191,-4.2555002,-4.2553168)">
    <path
       d="m 40.03,7.531 c 3.712,4.084 5.969,9.514 5.969,15.469 0,12.703 -10.297,23 -23,23 C 17.045,46 11.615,43.744 7.53,40.031 11.708,44.322 17.54,47 23.999,47 c 12.703,0 23,-10.298 23,-23 0,-6.462 -2.677,-12.291 -6.969,-16.469 z"
       style="opacity:0.1"
       id="path21"
       inkscape:connector-curvature="0" />
  </g>
  <path
     d="m 120.09022,47.063833 c -2.42138,-0.331915 -4.3704,-0.336171 -6.15346,0.08936 -1.78305,0.425531 -3.43844,1.46383 -4.42146,2.765957 -0.98302,1.306383 -1.28942,2.587234 -1.44261,3.208511 -3.45973,8.280851 -7.55352,16.510638 -11.298358,23.548935 -3.753352,7.042553 -6.719435,12.221277 -8.004596,14.893617 -1.689434,2.604255 -3.110771,6.221272 -4.825737,11.008517 -1.710712,4.78723 -3.557599,10.55744 -5.374698,16.57446 -3.774629,12.6 -7.179029,25.19574 -10.485552,37.85532 5.387463,0.45532 5.387463,0.41702 9.545086,0.45532 3.059705,-6.8468 8.136517,-13.36171 12.383506,-18.1149 7.349249,-8.17446 17.949699,-16.5319 28.073539,-18.39574 l 3.40865,-0.61702 c 0.18725,-12.91064 1.1575,-26.885106 6.39177,-38.20851 2.14477,-4.706383 5.14063,-8.442552 7.91523,-12.714893 0.71492,-0.702128 0.15319,-1.531915 0.22979,-2.297873 -2.07243,-12.531915 -9.08975,-18.75319 -15.74535,-20.01702 -0.0596,0.02553 -0.17447,-0.02978 -0.19575,-0.03404 z"
     mix-blend-mode="normal"
     isolation="auto"
     style="color:#000000;white-space:normal;display:inline;visibility:visible;opacity:1;isolation:auto;mix-blend-mode:normal;color-interpolation:sRGB;color-interpolation-filters:linearRGB;solid-color:#000000;solid-opacity:1;fill:#000000;fill-opacity:0.09800002;fill-rule:evenodd;stroke:none;stroke-width:4.25540972;color-rendering:auto;image-rendering:auto;shape-rendering:auto"
     id="path25"
     inkscape:connector-curvature="0" />
  <path
     d="m 115.83472,42.808514 c -2.42139,-0.331915 -4.3704,-0.336171 -6.15346,0.08936 -1.78305,0.425531 -3.43844,1.46383 -4.42146,2.765957 -0.98302,1.306382 -1.28942,2.587234 -1.44262,3.208511 -3.45971,8.280851 -7.553509,16.510638 -11.298349,23.548936 -3.753351,7.042552 -6.719435,12.221275 -8.004596,14.893616 -1.689433,2.604255 -3.110771,6.221277 -4.825737,11.008509 -1.710711,4.787237 -3.557598,10.557447 -5.374696,16.574477 -3.774629,12.6 -7.17903,25.19574 -10.485553,37.85531 5.387463,0.45532 5.387463,0.41703 9.545087,0.45532 3.059705,-6.84681 8.136516,-13.3617 12.383506,-18.11489 7.349248,-8.17447 17.949698,-16.53192 28.073538,-18.39574 l 3.40866,-0.61703 c 0.18724,-12.91064 1.15748,-26.885105 6.39175,-38.208509 2.14478,-4.706382 5.14065,-8.442552 7.91523,-12.714893 0.71492,-0.702128 0.1532,-1.531915 0.2298,-2.297873 -2.07242,-12.531915 -9.08975,-18.753191 -15.74535,-20.017021 -0.0596,0.02553 -0.17448,-0.02979 -0.19575,-0.03404 z"
     mix-blend-mode="normal"
     isolation="auto"
     style="color:#000000;white-space:normal;display:inline;visibility:visible;opacity:1;isolation:auto;mix-blend-mode:normal;color-interpolation:sRGB;color-interpolation-filters:linearRGB;solid-color:#000000;solid-opacity:1;fill:#f8f8f8;fill-opacity:1;fill-rule:evenodd;stroke:none;stroke-width:4.25540972;color-rendering:auto;image-rendering:auto;shape-rendering:auto"
     id="path27"
     inkscape:connector-curvature="0" />
</svg>
