<?xml version="1.0" encoding="UTF-8" standalone="no"?>
<svg
   xmlns:dc="http://purl.org/dc/elements/1.1/"
   xmlns:cc="http://creativecommons.org/ns#"
   xmlns:rdf="http://www.w3.org/1999/02/22-rdf-syntax-ns#"
   xmlns:svg="http://www.w3.org/2000/svg"
   xmlns="http://www.w3.org/2000/svg"
   xmlns:sodipodi="http://sodipodi.sourceforge.net/DTD/sodipodi-0.dtd"
   xmlns:inkscape="http://www.inkscape.org/namespaces/inkscape"
   version="1.1"
   viewBox="0 0 200 200"
   id="svg23"
   sodipodi:docname="jbds.svg"
   width="200"
   height="200"
   inkscape:version="0.92.2 (unknown)">
  <metadata
     id="metadata27">
    <rdf:RDF>
      <cc:Work
         rdf:about="">
        <dc:format>image/svg+xml</dc:format>
        <dc:type
           rdf:resource="http://purl.org/dc/dcmitype/StillImage" />
        <dc:title></dc:title>
      </cc:Work>
    </rdf:RDF>
  </metadata>
  <sodipodi:namedview
     pagecolor="#ffffff"
     bordercolor="#666666"
     borderopacity="1"
     objecttolerance="10"
     gridtolerance="10"
     guidetolerance="10"
     inkscape:pageopacity="0"
     inkscape:pageshadow="2"
     inkscape:window-width="1920"
     inkscape:window-height="1007"
     id="namedview25"
     showgrid="false"
     inkscape:zoom="3.4766083"
     inkscape:cx="49.880886"
     inkscape:cy="87.410155"
     inkscape:window-x="0"
     inkscape:window-y="24"
     inkscape:window-maximized="1"
     inkscape:current-layer="svg23" />
  <defs
     id="defs7">
    <linearGradient
       id="linearGradient4186"
       x1="1"
       x2="47"
       gradientTransform="matrix(0,-4.1489017,4.1491127,0,-1.6491127,197.49999)"
       gradientUnits="userSpaceOnUse">
      <stop
         style="stop-color:#b7261a"
         offset="0"
         id="stop2" />
      <stop
         style="stop-color:#c8291c"
         offset="1"
         id="stop4" />
    </linearGradient>
  </defs>
  <path
     d="m 149.00517,19.097225 c 24.30965,16.852839 40.1966,44.936755 40.1966,76.754682 0,51.554253 -41.78156,93.350293 -93.355032,93.350293 -31.819545,0 -59.904889,-15.882 -76.758585,-40.19456 4.30263,7.5593 9.567854,14.517 15.687795,20.61589 16.949125,15.40072 39.474658,24.76479 64.182625,24.76479 52.706177,0 95.429597,-42.72539 95.429597,-95.42474 0,-24.702557 -9.3604,-47.231094 -24.76606,-64.179357 -6.09505,-6.119631 -13.05726,-11.384587 -20.61694,-15.686998 z m 20.61694,15.686998 c 15.99068,17.064432 25.80333,39.982966 25.80333,65.216587 0,52.7035 -42.72341,95.42474 -95.429589,95.42474 -25.230755,0 -48.154602,-9.808 -65.219903,-25.80202 C 52.036257,186.81658 75.781629,197.5 102.07041,197.5 154.77659,197.5 197.5,154.77461 197.5,102.07526 197.5,75.791967 186.81603,52.039505 169.62211,34.784223 Z"
     style="opacity:0.05;stroke-width:4.14900684"
     id="path9"
     inkscape:connector-curvature="0" />
  <path
     d="m 169.62626,34.784223 c 15.40151,16.948263 24.76605,39.472651 24.76605,64.179357 0,52.7035 -42.72341,95.42474 -95.429588,95.42474 -24.703817,0 -47.233499,-9.35992 -64.182625,-24.76479 17.065301,15.98987 39.984999,25.80202 65.219903,25.80202 52.70618,0 95.42959,-42.72539 95.42959,-95.42474 0,-25.229472 -9.8085,-48.152155 -25.80333,-65.216587 z"
     style="opacity:0.1;stroke-width:4.14900684"
     id="path11"
     inkscape:connector-curvature="0" />
  <path
     d="m 128.01066,8.206358 c 35.74461,13.085636 61.19941,47.368011 61.19941,87.666294 0,51.554248 -41.78156,93.350288 -93.355034,93.350288 -40.279586,0 -74.563704,-25.45351 -87.6292604,-61.1963 A 95.429593,95.42474 0 0 0 194.41721,98.98433 95.429593,95.42474 0 0 0 128.03141,8.227102 Z"
     style="opacity:0.2;stroke-width:4.14900684"
     id="path13"
     inkscape:connector-curvature="0" />
  <path
     d="M 2.5,97.92636 C 2.5,45.222859 45.223414,2.5016181 97.929593,2.5016181 c 52.706177,0 95.429597,42.7212409 95.429597,95.4247419 0,52.7035 -42.72342,95.42474 -95.429597,95.42474 C 45.223414,193.3511 2.5,150.62986 2.5,97.92636 Z"
     style="fill:url(#linearGradient4186);stroke-width:4.14900684"
     id="path15"
     inkscape:connector-curvature="0" />
  <path
     d="m 97.929593,2.5016181 c -1.057319,0 -2.103351,0.046883 -3.152372,0.080904 A 74.684029,74.680231 0 0 1 98.148375,7.2500361 91.28048,91.275838 0 0 0 50.611991,43.836711 16.596451,16.595607 0 0 0 39.842139,39.841775 16.596451,16.595607 0 0 0 23.245688,56.437382 16.596451,16.595607 0 0 0 25.81457,65.262096 78.833142,78.829133 0 0 0 4.9395538,76.517652 C 3.993971,80.640415 3.3140144,84.859434 2.9217158,89.166823 a 70.534916,70.53133 0 0 1 30.1540912,-17.600471 16.596451,16.595607 0 0 0 5.137847,1.36947 91.28048,91.275838 0 0 0 -2.520254,20.841593 91.28048,91.275838 0 0 0 2.382503,20.331275 29.043789,29.042312 0 0 0 -9.327205,8.36253 74.684029,74.680231 0 0 1 -24.5785142,-6.80669 c 0.6397102,3.40098 1.4489532,6.74446 2.4392219,10.00757 a 82.982255,82.978035 0 0 0 18.1440703,4.61897 29.043789,29.042312 0 0 0 -1.50729,9.12426 29.043789,29.042312 0 0 0 29.043789,29.04232 29.043789,29.042312 0 0 0 16.045449,-4.8538 91.28048,91.275838 0 0 0 39.392096,19.28575 70.534916,70.53133 0 0 1 -5.23494,5.89932 c 4.31259,-0.39041 8.53846,-1.07265 12.666,-2.01773 a 78.833142,78.829133 0 0 0 1.76661,-2.38238 91.28048,91.275838 0 0 0 5.59964,0.39705 c 7.64723,-2.41338 14.8754,-5.77362 21.55588,-9.92667 a 82.982255,82.978035 0 0 1 -17.10679,1.89618 82.982255,82.978035 0 0 1 -5.18639,-0.25931 78.833142,78.829133 0 0 0 8.83305,-28.96141 53.938465,53.935723 0 0 0 37.66606,-19.16419 53.938465,53.935723 0 0 0 13.41159,2.56066 c 1.12063,-2.64862 2.1165,-5.36328 2.9984,-8.1277 a 45.64024,45.637919 0 0 1 -11.36152,-1.57206 53.938465,53.935723 0 0 0 7.44724,-23.77528 20.745564,20.744509 0 0 0 4.27857,0.46999 20.745564,20.744509 0 0 0 4.05186,-0.40535 c 0.048,-1.243841 0.0891,-2.488138 0.0891,-3.74372 0,-0.185041 -0.0153,-0.366348 -0.0162,-0.551016 a 16.596451,16.595607 0 0 1 -4.1248,0.551016 16.596451,16.595607 0 0 1 -4.17359,-0.551016 53.938465,53.935723 0 0 0 -7.87668,-27.421751 16.596451,16.595607 0 0 1 10.24333,-5.113106 c -0.49184,-1.332005 -1.0152,-2.6431 -1.56401,-3.946311 A 20.745564,20.744509 0 0 0 170.67694,62.26327 53.938465,53.935723 0 0 0 151.85989,45.951448 45.64024,45.637919 0 0 1 168.66711,34.68801 c -1.36879,-1.73308 -2.7463,-3.456409 -4.23002,-5.089043 1.61745,1.574383 3.1642,3.226352 4.66775,4.91064 a 45.64024,45.637919 0 0 1 0.081,-0.03319 c -1.98764,-2.230409 -4.07775,-4.36672 -6.26434,-6.401756 a 53.938465,53.935723 0 0 0 -19.17346,14.512858 53.938465,53.935723 0 0 0 -16.77486,-2.747029 53.938465,53.935723 0 0 0 -8.67082,0.769829 82.982255,82.978035 0 0 0 -7.77129,-28.078108 82.982255,82.978035 0 0 1 16.44252,-1.734116 82.982255,82.978035 0 0 1 12.09093,1.004822 C 130.99201,7.940372 122.29049,5.1891522 113.15705,3.7237601 a 91.28048,91.275838 0 0 0 -6.74231,1.2155037 82.982255,82.978035 0 0 0 -1.4668,-2.1554789 C 102.62784,2.6149246 100.29347,2.5 97.930135,2.5 Z M 102.40275,14.608113 A 74.684029,74.680231 0 0 1 110.15786,42.572541 53.938465,53.935723 0 0 0 80.838568,65.934592 78.833142,78.829133 0 0 0 55.870867,60.707805 16.596451,16.595607 0 0 0 56.438134,56.437341 16.596451,16.595607 0 0 0 55.684489,51.494339 82.982255,82.978035 0 0 1 102.4035,14.608113 Z M 39.842429,43.990636 a 12.447338,12.446705 0 0 1 8.60609,3.468232 A 91.28048,91.275838 0 0 0 41.66555,61.396689 78.833142,78.829133 0 0 0 29.882899,63.876322 12.447338,12.446705 0 0 1 27.39505,56.437341 12.447338,12.446705 0 0 1 39.842388,43.990636 Z m 87.131371,4.148901 a 45.64024,45.637919 0 0 1 11.72622,1.588241 53.938465,53.935723 0 0 0 -7.44724,23.775282 20.745564,20.744509 0 0 0 -4.27857,-0.469988 20.745564,20.744509 0 0 0 -14.11652,5.583177 82.982255,82.978035 0 0 0 5.78593,-29.682487 45.64024,45.637919 0 0 1 8.33059,-0.794142 z m -16.75868,3.200795 a 74.684029,74.680231 0 0 1 -6.8394,28.159011 78.833142,78.829133 0 0 0 -14.918967,-10.10465 45.64024,45.637919 0 0 1 21.758367,-18.054361 z m 36.418,1.312754 a 45.64024,45.637919 0 0 1 19.07638,17.049497 20.745564,20.744509 0 0 0 -1.39385,7.479225 20.745564,20.744509 0 0 0 8.29822,16.563245 45.64024,45.637919 0 0 1 0,0.03319 45.64024,45.637919 0 0 1 -7.2124,24.528727 45.64024,45.637919 0 0 1 -19.07638,-17.0495 20.745564,20.744509 0 0 0 1.39386,-7.479227 20.745564,20.744509 0 0 0 -8.29823,-16.563246 45.64024,45.637919 0 0 1 0,-0.03319 45.64024,45.637919 0 0 1 7.2124,-24.528721 z m 37.28517,3.84097 a 20.745564,20.744509 0 0 0 -0.0567,0.0083 c 0.65672,1.354907 1.27846,2.726783 1.87195,4.116499 a 16.596451,16.595607 0 0 1 0.0567,0 c -0.59245,-1.393367 -1.21611,-2.766114 -1.87196,-4.124589 z M 52.159071,58.122832 a 12.447338,12.446705 0 0 1 -0.615895,2.503945 78.833142,78.829133 0 0 0 -0.615894,0.02489 82.982255,82.978035 0 0 1 1.231789,-2.528258 z m 0.129659,10.761421 a 70.534916,70.53133 0 0 1 24.756926,4.578313 53.938465,53.935723 0 0 0 -4.011362,20.315098 53.938465,53.935723 0 0 0 2.893052,17.268146 74.684029,74.680231 0 0 1 -7.584993,4.19744 29.043789,29.042312 0 0 0 -16.053332,-4.86998 29.043789,29.042312 0 0 0 -6.369718,0.72929 82.982255,82.978035 0 0 1 -1.928674,-17.324979 82.982255,82.978035 0 0 1 3.184776,-22.47875 16.596451,16.595607 0 0 0 3.557533,-2.35807 70.534916,70.53133 0 0 1 1.555917,-0.05684 z m 116.30378,6.312554 a 45.64024,45.637919 0 0 1 3.54135,12.389866 16.596451,16.595607 0 0 1 -3.67101,-10.404616 16.596451,16.595607 0 0 1 0.12966,-1.985333 z M 84.647661,76.817451 A 70.534916,70.53133 0 0 1 99.364148,86.995122 74.684029,74.680231 0 0 1 82.970174,105.89213 45.64024,45.637919 0 0 1 81.333225,93.777747 45.64024,45.637919 0 0 1 84.647661,76.817451 Z m 42.325099,0.364689 a 16.596451,16.595607 0 0 1 4.17359,0.551016 53.938465,53.935723 0 0 0 7.87668,27.421754 16.596451,16.595607 0 0 1 -12.05027,5.21849 16.596451,16.595607 0 0 1 -1.4992,-0.073 78.833142,78.829133 0 0 0 -13.88169,-22.729754 16.596451,16.595607 0 0 1 15.38077,-10.388435 z m 12.92532,6.190991 a 16.596451,16.595607 0 0 1 3.67101,10.404616 16.596451,16.595607 0 0 1 -0.12966,1.985332 45.64024,45.637919 0 0 1 -3.54135,-12.389865 z m -34.4978,9.772738 a 70.534916,70.53133 0 0 1 0.84277,0.956197 20.745564,20.744509 0 0 0 10.98062,17.965164 70.534916,70.53133 0 0 1 5.59176,27.13796 45.64024,45.637919 0 0 1 -36.75035,-25.2498 82.982255,82.978035 0 0 0 19.3357,-20.80923 z m 87.8948,2.495813 c 0.005,0.192095 0.0129,0.382944 0.0162,0.575329 a 20.745564,20.744509 0 0 0 0.008,-0.0083 c -0.003,-0.190435 -0.0199,-0.377135 -0.0245,-0.567238 z M 141.35649,108.6962 a 53.938465,53.935723 0 0 0 18.81705,16.31182 45.64024,45.637919 0 0 1 -29.05997,14.18095 78.833142,78.829133 0 0 0 -4.09239,-24.66647 20.745564,20.744509 0 0 0 14.3356,-5.8263 z m -89.18103,9.97521 a 20.745564,20.744509 0 0 1 0.113436,0 20.745564,20.744509 0 0 1 5.429529,0.74551 74.684029,74.680231 0 0 1 -8.825163,2.20411 82.982255,82.978035 0 0 1 -0.834677,-2.49582 20.745564,20.744509 0 0 1 4.116709,-0.4538 z m 27.001595,0.0166 a 53.938465,53.935723 0 0 0 43.142475,28.79131 70.534916,70.53133 0 0 1 -9.49773,27.9806 82.982255,82.978035 0 0 1 -38.27391,-17.43036 29.043789,29.042312 0 0 0 6.78297,-18.61322 29.043789,29.042312 0 0 0 -6.426146,-18.18381 82.982255,82.978035 0 0 0 4.270682,-2.54444 z m -38.784661,3.76803 a 91.28048,91.275838 0 0 0 0.07294,0.19459 74.684029,74.680231 0 0 1 -0.364666,0.0166 20.745564,20.744509 0 0 1 0.291724,-0.21076 z m 26.709914,2.44719 a 20.745564,20.744509 0 0 1 5.931986,14.51286 20.745564,20.744509 0 0 1 -4.643272,13.05452 82.982255,82.978035 0 0 1 -16.247925,-22.99736 82.982255,82.978035 0 0 0 14.959625,-4.57043 z m -23.525055,5.81801 a 91.28048,91.275838 0 0 0 18.395506,27.0247 20.745564,20.744509 0 0 1 -9.684029,2.41478 20.745564,20.744509 0 0 1 -20.745563,-20.7445 20.745564,20.744509 0 0 1 1.782832,-8.37871 82.982255,82.978035 0 0 0 2.36628,0.0809 82.982255,82.978035 0 0 0 7.884974,-0.39705 z m 112.934697,42.50135 c -0.20347,0.15849 -0.403,0.32112 -0.60776,0.47807 0.20472,-0.15682 0.40437,-0.31946 0.60776,-0.47807 z m -11.23994,7.54436 c -0.23522,0.13484 -0.46856,0.27258 -0.70502,0.40535 0.23658,-0.13277 0.46972,-0.27051 0.70502,-0.40535 z m -40.7862,12.33344 c -0.15418,0.008 -0.30749,0.029 -0.46192,0.0415 0.1546,-0.008 0.30753,-0.029 0.46192,-0.0415 z"
     style="opacity:0.1;fill-rule:evenodd;stroke-width:4.14900684;paint-order:normal"
     id="path17"
     inkscape:connector-curvature="0" />
  <path
     d="m 97.929593,2.5016181 c -1.437792,0 -2.864631,0.042319 -4.286864,0.1053821 A 74.684029,74.680231 0 0 1 93.999304,3.1013003 91.28048,91.275838 0 0 0 46.46292,39.687975 16.596451,16.595607 0 0 0 35.693068,35.693039 16.596451,16.595607 0 0 0 19.096617,52.288646 16.596451,16.595607 0 0 0 21.665499,61.11336 78.833142,78.829133 0 0 0 7.3381974,67.936229 C 6.0177422,71.926436 4.9500926,76.032811 4.1615537,80.236893 a 70.534916,70.53133 0 0 1 24.7652243,-12.819276 16.596451,16.595607 0 0 0 5.137846,1.369469 91.28048,91.275838 0 0 0 -2.520254,20.841593 91.28048,91.275838 0 0 0 2.382503,20.331281 29.043789,29.042312 0 0 0 -9.327205,8.36252 74.684029,74.680231 0 0 1 -20.8671326,-5.12928 c 0.5179753,3.21975 1.2024129,6.38557 2.0340196,9.48895 a 82.982255,82.978035 0 0 0 14.838057,3.4601 29.043789,29.042312 0 0 0 -1.50729,9.12427 29.043789,29.042312 0 0 0 29.043789,29.04231 29.043789,29.042312 0 0 0 16.045449,-4.8538 91.28048,91.275838 0 0 0 39.39209,19.28575 70.534916,70.53133 0 0 1 -14.918963,14.15647 c 3.051589,0.29416 6.141931,0.45381 9.270777,0.45381 1.122501,0 2.233716,-0.0427 3.346836,-0.0809 a 78.833142,78.829133 0 0 0 11.49927,-13.03004 91.28048,91.275838 0 0 0 10.04874,0.66449 91.28048,91.275838 0 0 0 30.81048,-5.51845 c 8.37332,-6.03168 15.72638,-13.38436 21.75836,-21.75726 a 82.982255,82.978035 0 0 1 -52.56926,18.97791 82.982255,82.978035 0 0 1 -5.18639,-0.25931 78.833142,78.829133 0 0 0 8.83305,-28.96141 53.938465,53.935723 0 0 0 37.66606,-19.16419 53.938465,53.935723 0 0 0 16.77486,2.74703 53.938465,53.935723 0 0 0 8.17666,-0.71311 c 0.8999,-2.8988 1.6535,-5.86323 2.27715,-8.87326 a 45.64024,45.637919 0 0 1 -10.45369,1.28844 45.64024,45.637919 0 0 1 -11.72622,-1.58824 53.938465,53.935723 0 0 0 7.44724,-23.775281 20.745564,20.744509 0 0 0 4.27857,0.469987 20.745564,20.744509 0 0 0 12.08263,-3.905817 c -0.13829,-1.65284 -0.32151,-3.290909 -0.54295,-4.918523 a 16.596451,16.595607 0 0 1 -11.53951,4.675812 16.596451,16.595607 0 0 1 -4.1736,-0.551016 53.938465,53.935723 0 0 0 -7.87667,-27.421751 16.596451,16.595607 0 0 1 12.05027,-5.218488 16.596451,16.595607 0 0 1 3.11992,0.307848 c -0.71697,-1.496052 -1.46953,-2.972771 -2.26093,-4.424389 a 20.745564,20.744509 0 0 0 -0.85899,-0.03319 20.745564,20.744509 0 0 0 -14.38415,5.826303 53.938465,53.935723 0 0 0 -18.81705,-16.311822 45.64024,45.637919 0 0 1 17.50427,-11.538926 c -2.17447,-2.1622 -4.44951,-4.220678 -6.82321,-6.166512 a 53.938465,53.935723 0 0 0 -18.79258,14.342753 53.938465,53.935723 0 0 0 -16.77486,-2.747029 53.938465,53.935723 0 0 0 -8.67082,0.769828 82.982255,82.978035 0 0 0 -7.77129,-28.078107 82.982255,82.978035 0 0 1 16.44252,-1.7341166 82.982255,82.978035 0 0 1 3.62238,0.1862857 C 117.44233,4.020614 107.86452,2.5014106 97.930713,2.5014106 Z m 0.32417,7.9575939 A 74.684029,74.680231 0 0 1 106.00887,38.423639 53.938465,53.935723 0 0 0 76.689579,61.78569 78.833142,78.829133 0 0 0 51.721879,56.558904 16.596451,16.595607 0 0 0 52.289145,52.288439 16.596451,16.595607 0 0 0 51.5355,47.345437 82.982255,82.978035 0 0 1 98.25451,10.459212 Z M 35.69342,39.841734 a 12.447338,12.446705 0 0 1 8.60609,3.468233 91.28048,91.275838 0 0 0 -6.782969,13.93782 A 78.833142,78.829133 0 0 0 25.73389,59.72742 12.447338,12.446705 0 0 1 23.246041,52.288439 12.447338,12.446705 0 0 1 35.693379,39.841734 Z m 87.13137,4.148902 a 45.64024,45.637919 0 0 1 11.72622,1.588241 53.938465,53.935723 0 0 0 -7.44724,23.775281 20.745564,20.744509 0 0 0 -4.27857,-0.469988 20.745564,20.744509 0 0 0 -14.11652,5.583178 82.982255,82.978035 0 0 0 5.78593,-29.682488 45.64024,45.637919 0 0 1 8.33059,-0.794142 z M 106.06611,47.19143 A 74.684029,74.680231 0 0 1 99.226709,75.350441 78.833142,78.829133 0 0 0 84.307744,65.245791 45.64024,45.637919 0 0 1 106.06611,47.19143 Z m 36.418,1.312754 a 45.64024,45.637919 0 0 1 19.07638,17.049497 20.745564,20.744509 0 0 0 -1.39385,7.479225 20.745564,20.744509 0 0 0 8.29822,16.563246 45.64024,45.637919 0 0 1 0,0.03319 45.64024,45.637919 0 0 1 -7.2124,24.528718 45.64024,45.637919 0 0 1 -19.07638,-17.049493 20.745564,20.744509 0 0 0 1.39386,-7.479225 20.745564,20.744509 0 0 0 -8.29823,-16.563246 45.64024,45.637919 0 0 1 0,-0.03319 45.64024,45.637919 0 0 1 7.2124,-24.528722 z m -94.475293,5.469912 a 12.447338,12.446705 0 0 1 -0.615894,2.503945 78.833142,78.829133 0 0 0 -0.615895,0.02489 82.982255,82.978035 0 0 1 1.231789,-2.528258 z m 0.12966,10.761422 a 70.534916,70.53133 0 0 1 24.756925,4.578313 53.938465,53.935723 0 0 0 -4.011362,20.315097 53.938465,53.935723 0 0 0 2.893052,17.268142 74.684029,74.680231 0 0 1 -7.584993,4.19745 29.043789,29.042312 0 0 0 -16.053332,-4.86998 29.043789,29.042312 0 0 0 -6.369718,0.72929 82.982255,82.978035 0 0 1 -1.928673,-17.324985 82.982255,82.978035 0 0 1 3.184776,-22.47875 16.596451,16.595607 0 0 0 3.557532,-2.358069 70.534916,70.53133 0 0 1 1.555917,-0.05684 z m 116.303783,6.312554 a 45.64024,45.637919 0 0 1 3.54135,12.389865 16.596451,16.595607 0 0 1 -3.67101,-10.404616 16.596451,16.595607 0 0 1 0.12966,-1.985332 z m -83.944853,1.620644 a 70.534916,70.53133 0 0 1 14.716488,10.17767 74.684029,74.680231 0 0 1 -16.393974,18.897004 45.64024,45.637919 0 0 1 -1.63695,-12.114379 45.64024,45.637919 0 0 1 3.314436,-16.960295 z m 42.325103,0.364688 a 16.596451,16.595607 0 0 1 4.17359,0.551016 53.938465,53.935723 0 0 0 7.87667,27.42175 16.596451,16.595607 0 0 1 -12.05026,5.21849 16.596451,16.595607 0 0 1 -1.4992,-0.073 78.833142,78.829133 0 0 0 -13.88169,-22.729759 16.596451,16.595607 0 0 1 15.38076,-10.388435 z m 12.92531,6.190991 a 16.596451,16.595607 0 0 1 3.67101,10.404616 16.596451,16.595607 0 0 1 -0.12966,1.985333 45.64024,45.637919 0 0 1 -3.54135,-12.389866 z m -34.4978,9.772738 a 70.534916,70.53133 0 0 1 0.84277,0.956198 20.745564,20.744509 0 0 0 10.98063,17.965159 70.534916,70.53133 0 0 1 5.59176,27.13797 45.64024,45.637919 0 0 1 -36.750353,-25.2498 82.982255,82.978035 0 0 0 19.335693,-20.809236 z m 35.95621,15.550087 a 53.938465,53.935723 0 0 0 18.81706,16.31182 45.64024,45.637919 0 0 1 -29.05997,14.18095 78.833142,78.829133 0 0 0 -4.09239,-24.66647 20.745564,20.744509 0 0 0 14.3356,-5.8263 z m -89.181024,9.9752 a 20.745564,20.744509 0 0 1 0.113437,0 20.745564,20.744509 0 0 1 5.429529,0.74552 74.684029,74.680231 0 0 1 -8.825163,2.2041 82.982255,82.978035 0 0 1 -0.834677,-2.49581 20.745564,20.744509 0 0 1 4.116708,-0.45381 z m 27.001596,0.0166 a 53.938465,53.935723 0 0 0 43.142478,28.7913 70.534916,70.53133 0 0 1 -9.49774,27.98061 82.982255,82.978035 0 0 1 -38.273903,-17.43037 29.043789,29.042312 0 0 0 6.782969,-18.61321 29.043789,29.042312 0 0 0 -6.426146,-18.18381 82.982255,82.978035 0 0 0 4.270682,-2.54444 z m -38.784661,3.76803 a 91.28048,91.275838 0 0 0 0.07293,0.19458 74.684029,74.680231 0 0 1 -0.36467,0.0166 20.745564,20.744509 0 0 1 0.291732,-0.21077 z m 26.709913,2.44719 a 20.745564,20.744509 0 0 1 5.931986,14.51286 20.745564,20.744509 0 0 1 -4.643272,13.05452 82.982255,82.978035 0 0 1 -16.247925,-22.99737 82.982255,82.978035 0 0 0 14.959626,-4.57043 z m -23.525054,5.818 a 91.28048,91.275838 0 0 0 18.395506,27.0247 20.745564,20.744509 0 0 1 -9.684029,2.41479 20.745564,20.744509 0 0 1 -20.745564,-20.74451 20.745564,20.744509 0 0 1 1.782832,-8.37871 82.982255,82.978035 0 0 0 2.366281,0.0809 82.982255,82.978035 0 0 0 7.884974,-0.39705 z"
     style="fill:#f9f9f9;fill-rule:evenodd;stroke-width:4.14900684;paint-order:normal"
     id="path19"
     inkscape:connector-curvature="0" />
  <path
     d="m 164.43987,29.598095 c 15.40151,16.944115 24.76605,39.472652 24.76605,64.179361 0,52.703504 -42.72341,95.424744 -95.429589,95.424744 -24.703817,0 -47.233499,-9.35993 -64.182625,-24.7648 17.334993,17.80294 41.532619,28.9137 68.331738,28.9137 52.706176,0 95.429596,-42.72539 95.429596,-95.42474 0,-26.810205 -11.10718,-50.994153 -28.91517,-68.328265 z"
     style="opacity:0.1;stroke-width:4.14900684"
     id="path21"
     inkscape:connector-curvature="0" />
</svg>
