<?xml version="1.0" encoding="UTF-8" standalone="no"?>
<svg
   xmlns:dc="http://purl.org/dc/elements/1.1/"
   xmlns:cc="http://creativecommons.org/ns#"
   xmlns:rdf="http://www.w3.org/1999/02/22-rdf-syntax-ns#"
   xmlns:svg="http://www.w3.org/2000/svg"
   xmlns="http://www.w3.org/2000/svg"
   xmlns:sodipodi="http://sodipodi.sourceforge.net/DTD/sodipodi-0.dtd"
   xmlns:inkscape="http://www.inkscape.org/namespaces/inkscape"
   width="200"
   height="200"
   viewBox="0 0 200 200"
   version="1.1"
   id="svg4"
   sodipodi:docname="mysql-workbeanch.svg"
   inkscape:version="0.92.2 (unknown)">
  <metadata
     id="metadata10">
    <rdf:RDF>
      <cc:Work
         rdf:about="">
        <dc:format>image/svg+xml</dc:format>
        <dc:type
           rdf:resource="http://purl.org/dc/dcmitype/StillImage" />
        <dc:title></dc:title>
      </cc:Work>
    </rdf:RDF>
  </metadata>
  <defs
     id="defs8" />
  <sodipodi:namedview
     pagecolor="#ffffff"
     bordercolor="#666666"
     borderopacity="1"
     objecttolerance="10"
     gridtolerance="10"
     guidetolerance="10"
     inkscape:pageopacity="0"
     inkscape:pageshadow="2"
     inkscape:window-width="1920"
     inkscape:window-height="1007"
     id="namedview6"
     showgrid="false"
     inkscape:zoom="2.6074563"
     inkscape:cx="153.31637"
     inkscape:cy="102.0074"
     inkscape:window-x="0"
     inkscape:window-y="24"
     inkscape:window-maximized="1"
     inkscape:current-layer="svg4" />
  <path
     d="m 193.6168,159.20965 c 0.0461,-0.42857 0.0461,-0.85666 0.0928,-1.23713 -2.32942,-2.76094 -4.33299,-5.85474 -6.98872,-8.28188 -11.22893,-10.18568 -23.24987,-19.08566 -37.50792,-24.41659 -3.44775,-1.28477 -5.63731,-3.47428 -7.12857,-6.71093 -3.9139,-8.47236 -7.96719,-16.89661 -11.83447,-25.416113 -3.21513,-7.044263 -5.68439,-14.51662 -9.45891,-21.227552 C 111.00625,54.356656 97.68098,39.982891 81.46644,28.274357 69.91119,19.945336 57.796554,13.519642 43.166499,13.424881 c -2.190033,0 -4.613148,-1.47571 -6.523017,-2.9038 C 28.62921,4.8096698 20.382323,-0.13983813 10.225101,0.0030177 4.2143966,0.09825288 -0.35120236,4.66729 0.02126164,10.806793 c 0.185999,3.283799 1.30478996,6.806169 2.93542696,9.613779 2.748963,4.712366 6.429785,8.805211 9.4584454,13.37472 1.863719,2.807609 3.494356,5.854267 4.659297,9.043304 2.329882,6.044743 3.820671,12.46996 6.476401,18.371847 2.469265,5.426172 6.05732,10.328062 8.946131,15.563759 0.652162,1.189996 0.978476,2.998563 0.55893,4.283795 -4.053286,13.612339 -6.802715,27.319913 -3.58759,41.550823 1.723871,7.71045 4.332984,14.99233 10.343688,20.37136 5.591157,4.94951 12.068024,2.66523 13.698662,-4.71236 0.279231,-1.33238 0.41908,-2.71285 0.652162,-4.0457 0.558929,-3.28428 1.164941,-6.56808 1.770486,-10.09045 3.867289,6.23521 6.942559,12.37472 11.135699,17.61042 4.24022,5.28332 9.59829,9.61426 14.49067,14.32663 0.23308,-0.2381 0.41908,-0.47619 0.65216,-0.66667 -10.99585,-14.51663 -19.84874,-30.27038 -25.952681,-47.49985 -9.738142,7.94807 -8.992748,19.60946 -10.809384,30.36562 -3.820671,-0.80905 -5.451309,-3.37904 -6.709482,-6.23474 -6.243786,-14.13615 -6.5701,-28.50991 -1.910802,-43.168917 0.93186,-2.950942 2.236649,-5.854743 2.562963,-8.853305 0.233082,-1.99904 -0.326314,-4.854746 -1.631103,-6.187123 C 32.030801,67.92185 28.769059,60.687587 26.672258,52.929516 23.457599,41.030506 18.332139,30.273875 10.364949,20.945333 8.9203106,19.231529 7.4761376,17.280582 6.8701256,15.138684 6.2645806,13.044406 5.9382666,10.188224 6.8235056,8.4277535 7.9884466,6.142522 10.830642,6.4287117 13.206674,7.2853757 c 7.128563,2.5223736 13.977893,5.5209353 19.895365,10.4237763 1.67772,1.379996 4.100368,2.284279 6.290401,2.569517 6.662866,0.856664 13.465581,0.571426 19.70937,3.807606 3.77359,1.999041 7.68749,3.759988 11.32216,5.9976 22.03878,13.802336 38.43933,32.555134 48.45717,57.162199 4.98561,12.232344 10.85646,24.083736 16.44715,36.077026 1.77049,3.80761 4.38007,6.99664 8.71305,7.99664 14.21098,3.18856 25.62638,11.80378 37.18162,20.08518 1.35094,0.9519 2.46926,2.3319 4.19314,4.04522 -1.72388,0.14334 -2.37604,0.2862 -3.02867,0.2862 -9.03889,-0.14286 -17.79856,1.37999 -26.32514,4.61664 -2.7485,1.04666 -3.77406,2.18951 -2.04972,4.90236 1.07171,1.71334 1.91033,3.66475 3.12142,5.2357 5.03223,6.56808 11.83495,10.70902 18.82366,14.65948 6.56963,3.66476 12.95327,7.71046 19.33644,11.66091 1.44417,0.85667 2.60911,2.1419 3.9139,3.18857 0.2797,-0.28572 0.55893,-0.57095 0.79201,-0.85667 -2.0968,-2.42761 -4.28637,-4.71236 -6.24332,-7.23425 -5.82424,-7.47236 -12.81295,-13.42235 -21.01369,-17.9909 -2.04972,-1.14239 -3.96052,-2.6181 -5.731,-4.18904 -1.16495,-1.04666 -1.95696,-2.52237 -3.35451,-4.33094 10.57583,-2.23808 20.26736,-4.18951 29.95935,-6.18855 z M 47.77915,46.741441 c 2.982044,-3.141418 3.261742,-6.092361 1.025093,-9.23378 -2.329416,-3.284275 -4.845763,-3.902845 -8.153655,-2.094279 a 3394.3854,3467.3909 0 0 0 7.128562,11.328059 z"
     id="path2"
     inkscape:connector-curvature="0"
     style="fill:#008cdb;stroke-width:0.47114927" />
</svg>
