<?xml version="1.0" encoding="UTF-8" standalone="no"?>
<!-- Created with Inkscape (http://www.inkscape.org/) -->

<svg
   xmlns:dc="http://purl.org/dc/elements/1.1/"
   xmlns:cc="http://creativecommons.org/ns#"
   xmlns:rdf="http://www.w3.org/1999/02/22-rdf-syntax-ns#"
   xmlns:svg="http://www.w3.org/2000/svg"
   xmlns="http://www.w3.org/2000/svg"
   xmlns:xlink="http://www.w3.org/1999/xlink"
   xmlns:sodipodi="http://sodipodi.sourceforge.net/DTD/sodipodi-0.dtd"
   xmlns:inkscape="http://www.inkscape.org/namespaces/inkscape"
   width="200"
   height="200"
   id="svg2"
   version="1.1"
   inkscape:version="0.92.2 (unknown)"
   sodipodi:docname="postman.svg">
  <defs
     id="defs4">
    <linearGradient
       id="linearGradient4829">
      <stop
         style="stop-color:#f4fbfc;stop-opacity:1;"
         offset="0"
         id="stop4831" />
      <stop
         style="stop-color:#d6d6d6;stop-opacity:1;"
         offset="1"
         id="stop4833" />
    </linearGradient>
    <clipPath
       clipPathUnits="userSpaceOnUse"
       id="clipPath4282">
      <rect
         style="color:#000000;fill:#4d4d4d;fill-opacity:1;fill-rule:nonzero;stroke:none;stroke-width:9.13434315;marker:none;visibility:visible;display:inline;overflow:visible;enable-background:accumulate"
         id="rect4284"
         width="246.875"
         height="234.375"
         x="462.5"
         y="1646.1122"
         ry="17"
         rx="17" />
    </clipPath>
    <linearGradient
       inkscape:collect="always"
       xlink:href="#linearGradient4829"
       id="linearGradient4835"
       x1="102.29776"
       y1="-0.42686829"
       x2="102.29776"
       y2="199.16539"
       gradientUnits="userSpaceOnUse"
       gradientTransform="translate(-3.7231445e-6,852.36218)" />
    <linearGradient
       inkscape:collect="always"
       xlink:href="#linearGradient5423"
       id="linearGradient5429"
       x1="408.66196"
       y1="44.604382"
       x2="408.66196"
       y2="562.04968"
       gradientUnits="userSpaceOnUse" />
    <linearGradient
       id="linearGradient5423">
      <stop
         style="stop-color:#15c4fc;stop-opacity:1;"
         offset="0"
         id="stop5425" />
      <stop
         style="stop-color:#1863ee;stop-opacity:1;"
         offset="1"
         id="stop5427" />
    </linearGradient>
    <clipPath
       clipPathUnits="userSpaceOnUse"
       id="clipPath6245">
      <rect
         style="opacity:0.85;color:#000000;fill:#ffffff;fill-opacity:1;fill-rule:nonzero;stroke:none;stroke-width:1.5;marker:none;visibility:visible;display:inline;overflow:visible;enable-background:accumulate"
         id="rect6247"
         width="300"
         height="259.375"
         x="-901.5625"
         y="792.98718"
         rx="16.46875"
         ry="16.46875" />
    </clipPath>
    <linearGradient
       inkscape:collect="always"
       xlink:href="#linearGradient4829"
       id="linearGradient6261"
       x1="105.47797"
       y1="852.77802"
       x2="105.47797"
       y2="1052.7781"
       gradientUnits="userSpaceOnUse"
       gradientTransform="translate(-2.5989256,-0.41583663)" />
    <linearGradient
       id="linearGradient3764"
       x1="1"
       x2="47"
       gradientUnits="userSpaceOnUse"
       gradientTransform="rotate(-90,23.999998,24)">
      <stop
         style="stop-color:#31ace5;stop-opacity:1"
         id="stop2" />
      <stop
         offset="1"
         style="stop-color:#43b4e7;stop-opacity:1"
         id="stop4" />
    </linearGradient>
    <linearGradient
       id="linearGradient3764-3"
       x1="1"
       x2="47"
       gradientUnits="userSpaceOnUse"
       gradientTransform="rotate(-90,23.999998,24)">
      <stop
         style="stop-color:#31ace5;stop-opacity:1"
         id="stop2-5" />
      <stop
         offset="1"
         style="stop-color:#43b4e7;stop-opacity:1"
         id="stop4-6" />
    </linearGradient>
  </defs>
  <sodipodi:namedview
     id="base"
     pagecolor="#ffffff"
     bordercolor="#666666"
     borderopacity="1.0"
     inkscape:pageopacity="0.0"
     inkscape:pageshadow="2"
     inkscape:zoom="1.8101935"
     inkscape:cx="125.85974"
     inkscape:cy="25.415913"
     inkscape:document-units="px"
     inkscape:current-layer="layer1"
     showgrid="false"
     inkscape:window-width="1920"
     inkscape:window-height="1059"
     inkscape:window-x="1366"
     inkscape:window-y="21"
     inkscape:window-maximized="1"
     inkscape:snap-from-guide="true"
     showguides="true"
     inkscape:guide-bbox="true">
    <sodipodi:guide
       position="0,0"
       orientation="0,200"
       id="guide3764"
       inkscape:locked="false" />
    <sodipodi:guide
       position="200,0"
       orientation="-200,0"
       id="guide3766"
       inkscape:locked="false" />
    <sodipodi:guide
       position="200,200"
       orientation="0,-200"
       id="guide3768"
       inkscape:locked="false" />
    <sodipodi:guide
       position="0,200"
       orientation="200,0"
       id="guide3770"
       inkscape:locked="false" />
  </sodipodi:namedview>
  <metadata
     id="metadata7">
    <rdf:RDF>
      <cc:Work
         rdf:about="">
        <dc:format>image/svg+xml</dc:format>
        <dc:type
           rdf:resource="http://purl.org/dc/dcmitype/StillImage" />
        <dc:title />
      </cc:Work>
    </rdf:RDF>
  </metadata>
  <g
     inkscape:label="Layer 1"
     inkscape:groupmode="layer"
     id="layer1"
     transform="translate(0,-852.36218)">
    <circle
       style="color:#000000;display:inline;overflow:visible;visibility:visible;fill:url(#linearGradient4835);fill-opacity:1;fill-rule:nonzero;stroke:none;stroke-width:9.13434315;marker:none;enable-background:accumulate"
       id="path4188"
       cx="100"
       cy="952.36218"
       r="100" />
    <g
       id="g15"
       transform="matrix(3.8733776,0,0,3.8732128,2.4334916,854.80564)">
      <path
         d="m 36.31,5 c 5.859,4.062 9.688,10.831 9.688,18.5 0,12.426 -10.07,22.5 -22.5,22.5 -7.669,0 -14.438,-3.828 -18.5,-9.688 1.037,1.822 2.306,3.499 3.781,4.969 4.085,3.712 9.514,5.969 15.469,5.969 12.703,0 23,-10.298 23,-23 0,-5.954 -2.256,-11.384 -5.969,-15.469 C 39.81,7.306 38.132,6.037 36.31,5 Z m 4.969,3.781 c 3.854,4.113 6.219,9.637 6.219,15.719 0,12.703 -10.297,23 -23,23 -6.081,0 -11.606,-2.364 -15.719,-6.219 4.16,4.144 9.883,6.719 16.219,6.719 12.703,0 23,-10.298 23,-23 0,-6.335 -2.575,-12.06 -6.719,-16.219 z"
         style="opacity:0.05"
         id="path9"
         inkscape:connector-curvature="0" />
      <path
         d="m 41.28,8.781 c 3.712,4.085 5.969,9.514 5.969,15.469 0,12.703 -10.297,23 -23,23 -5.954,0 -11.384,-2.256 -15.469,-5.969 4.113,3.854 9.637,6.219 15.719,6.219 12.703,0 23,-10.298 23,-23 0,-6.081 -2.364,-11.606 -6.219,-15.719 z"
         style="opacity:0.1"
         id="path11"
         inkscape:connector-curvature="0" />
      <path
         d="M 31.25,2.375 C 39.865,5.529 46,13.792 46,23.505 c 0,12.426 -10.07,22.5 -22.5,22.5 -9.708,0 -17.971,-6.135 -21.12,-14.75 a 23,23 0 0 0 44.875,-7 23,23 0 0 0 -16,-21.875 z"
         style="opacity:0.2"
         id="path13"
         inkscape:connector-curvature="0" />
    </g>
    <g
       id="g19"
       transform="matrix(3.8733776,0,0,3.8732128,7.0389376,859.40508)">
      <path
         d="M 24,1 C 36.703,1 47,11.297 47,24 47,36.703 36.703,47 24,47 11.297,47 1,36.703 1,24 1,11.297 11.297,1 24,1 Z"
         style="fill:url(#linearGradient3764-3);fill-opacity:1"
         id="path17"
         inkscape:connector-curvature="0" />
    </g>
    <g
       id="g31"
       transform="matrix(3.8733776,0,0,3.8732128,9.6702893,862.51074)">
      <g
         id="g29">
        <g
           transform="translate(1,1)"
           id="g27">
          <g
             style="opacity:0.1"
             id="g25">
            <!-- color: #43b4e7 -->
            <g
               id="g23">
              <path
                 d="m 32.3,14.895 v 3.086 c -0.703,-1.059 -1.566,-1.98 -2.594,-2.746 -2.133,-1.582 -4.672,-2.289 -7.156,-2.168 -0.355,0.02 -0.688,0.066 -1.039,0.113 -2.809,0.398 -5.496,1.871 -7.324,4.285 -3.656,4.824 -2.625,11.742 2.25,15.363 4.875,3.621 11.855,2.602 15.508,-2.227 0.23,-0.316 0.355,-0.707 0.352,-1.098 0.008,-0.094 0.008,-0.191 0,-0.285 v -1.543 h -1.672 c -0.055,-0.004 -0.117,-0.004 -0.172,0 -0.582,-0.004 -1.156,0.281 -1.5,0.746 -2.461,3.246 -7.04,3.859 -10.32,1.426 -3.281,-2.434 -3.902,-6.977 -1.445,-10.223 2.461,-3.246 7.05,-3.859 10.324,-1.426 0.793,0.586 1.418,1.34 1.902,2.168 h -2.656 c -0.965,0 -1.844,0.871 -1.844,1.828 -0.016,0.133 -0.016,0.266 0,0.398 v 1.43 h 11.07 v -9.137 c 0.008,-0.113 0.008,-0.23 0,-0.352 v -1.477 h -1.5 c -1.492,-0.066 -2.074,0.938 -2.199,1.836 m 0.016,0"
                 style="fill:#000000;fill-opacity:1;fill-rule:nonzero;stroke:none"
                 id="path21"
                 inkscape:connector-curvature="0" />
            </g>
          </g>
        </g>
      </g>
    </g>
    <g
       id="g39"
       transform="matrix(3.8733776,0,0,3.8732128,7.0673796,859.30372)">
      <g
         id="g37">
        <!-- color: #43b4e7 -->
        <g
           id="g35">
          <path
             d="m 32.3,14.895 v 3.086 c -0.703,-1.059 -1.566,-1.98 -2.594,-2.746 -2.133,-1.582 -4.672,-2.289 -7.156,-2.168 -0.355,0.02 -0.688,0.066 -1.039,0.113 -2.809,0.398 -5.496,1.871 -7.324,4.285 -3.656,4.824 -2.625,11.742 2.25,15.363 4.875,3.621 11.855,2.602 15.508,-2.227 0.23,-0.316 0.355,-0.707 0.352,-1.098 0.008,-0.094 0.008,-0.191 0,-0.285 v -1.543 h -1.672 c -0.055,-0.004 -0.117,-0.004 -0.172,0 -0.582,-0.004 -1.156,0.281 -1.5,0.746 -2.461,3.246 -7.04,3.859 -10.32,1.426 -3.281,-2.434 -3.902,-6.977 -1.445,-10.223 2.461,-3.246 7.05,-3.859 10.324,-1.426 0.793,0.586 1.418,1.34 1.902,2.168 h -2.656 c -0.965,0 -1.844,0.871 -1.844,1.828 -0.016,0.133 -0.016,0.266 0,0.398 v 1.43 h 11.07 v -9.137 c 0.008,-0.113 0.008,-0.23 0,-0.352 v -1.477 h -1.5 c -1.492,-0.066 -2.074,0.938 -2.199,1.836 m 0.016,0"
             style="fill:#288b2c;fill-opacity:1;fill-rule:nonzero;stroke:none"
             id="path33"
             inkscape:connector-curvature="0" />
        </g>
      </g>
    </g>
  </g>
</svg>
