<?xml version="1.0" encoding="UTF-8" standalone="no"?>
<!-- Created with Inkscape (http://www.inkscape.org/) -->

<svg
   xmlns:dc="http://purl.org/dc/elements/1.1/"
   xmlns:cc="http://creativecommons.org/ns#"
   xmlns:rdf="http://www.w3.org/1999/02/22-rdf-syntax-ns#"
   xmlns:svg="http://www.w3.org/2000/svg"
   xmlns="http://www.w3.org/2000/svg"
   xmlns:sodipodi="http://sodipodi.sourceforge.net/DTD/sodipodi-0.dtd"
   xmlns:inkscape="http://www.inkscape.org/namespaces/inkscape"
   width="200"
   height="200"
   viewBox="0 0 52.916665 52.916668"
   version="1.1"
   id="svg8"
   inkscape:version="0.92.3 (unknown)"
   sodipodi:docname="drawing.svg">
  <defs
     id="defs2" />
  <sodipodi:namedview
     id="base"
     pagecolor="#ffffff"
     bordercolor="#666666"
     borderopacity="1.0"
     inkscape:pageopacity="0.0"
     inkscape:pageshadow="2"
     inkscape:zoom="2.8284271"
     inkscape:cx="20.14249"
     inkscape:cy="79.32333"
     inkscape:document-units="mm"
     inkscape:current-layer="layer1"
     showgrid="false"
     units="px"
     inkscape:window-width="1920"
     inkscape:window-height="1059"
     inkscape:window-x="1366"
     inkscape:window-y="21"
     inkscape:window-maximized="1" />
  <metadata
     id="metadata5">
    <rdf:RDF>
      <cc:Work
         rdf:about="">
        <dc:format>image/svg+xml</dc:format>
        <dc:type
           rdf:resource="http://purl.org/dc/dcmitype/StillImage" />
        <dc:title></dc:title>
      </cc:Work>
    </rdf:RDF>
  </metadata>
  <g
     inkscape:label="Layer 1"
     inkscape:groupmode="layer"
     id="layer1"
     transform="translate(0,-244.08332)">
    <g
       id="g3749"
       transform="matrix(0.20704084,0,0,0.20116081,0,243.98465)"
       style="fill:none">
      <polygon
         id="polygon3713"
         points="23.572767,234.08284 45.98718,256.45687 45.985344,256.45504 0,258.0503 "
         style="fill:#f15a24;fill-rule:nonzero" />
      <path
         id="path3715"
         d="M 254.58074,137.57971 C 246.0372,204.19329 185.10524,251.25621 118.50267,242.70349 51.889092,234.15811 4.8261665,173.22799 13.369711,106.61991 21.918763,40.008168 82.837871,-7.0602649 149.45696,1.4942942 216.06687,10.036003 263.14081,70.971633 254.58074,137.57787"
         inkscape:connector-curvature="0"
         style="fill:#f15a24;fill-rule:nonzero" />
      <path
         id="path3717"
         d="m 164.98183,87.531864 c 7.99099,8.49398 0.10464,28.576996 0.10464,28.576996 0,0 -7.79456,28.39343 -52.42146,65.21291 l -8.3306,-8.17639 56.65101,-57.89931 1.0941,-1.47778 c 1.50715,-2.45622 2.75545,-26.401643 2.90231,-26.236426"
         inkscape:connector-curvature="0"
         style="fill:#999999;fill-rule:nonzero" />
      <path
         id="path3719"
         d="m 164.98183,87.531864 c 7.99099,8.49398 0.10464,28.576996 0.10464,28.576996 0,0 -7.79456,28.39343 -52.42146,65.21291 l -8.3306,-8.17639 56.65101,-57.89931 1.0941,-1.47778 c 1.50715,-2.45622 2.75545,-26.401643 2.90231,-26.236426 z"
         inkscape:connector-curvature="0"
         style="stroke:#ffffff;stroke-width:1.91799998;stroke-linecap:round;stroke-linejoin:round" />
      <path
         id="path3721"
         d="M 92.099191,161.10841 164.86251,87.32259 c 3.69351,4.385588 4.47921,9.110789 3.40714,15.84246 -0.72145,4.66278 -8.77485,13.98101 -8.77485,13.98101 l -55.16039,55.99932"
         inkscape:connector-curvature="0"
         style="fill:#666666;fill-rule:nonzero" />
      <path
         id="path3723"
         d="M 92.099191,161.10841 164.86251,87.32259 c 3.69351,4.385588 4.47921,9.110789 3.40714,15.84246 -0.72145,4.66278 -8.77485,13.98101 -8.77485,13.98101 l -55.16039,55.99932"
         inkscape:connector-curvature="0"
         style="stroke:#ffffff;stroke-width:1.20099998;stroke-linecap:round;stroke-linejoin:round" />
      <path
         id="path3725"
         d="m 164.98183,87.583265 -72.882639,73.526985 0.146859,-0.14319 -0.02754,0.011 -18.082061,-17.81772 C 111.84444,96.255312 136.22493,87.509835 136.22493,87.509835 c 0,0 15.87183,-6.19563 27.19468,-1.387821 0.87015,0.466279 1.24831,0.734297 1.56039,1.463087"
         inkscape:connector-curvature="0"
         style="fill:#ff931e;fill-rule:nonzero" />
      <path
         id="path3727"
         d="m 164.98183,87.583265 -72.882639,73.526985 0.146859,-0.14319 -0.02754,0.011 -18.082061,-17.81772 C 111.84444,96.255312 136.22493,87.509835 136.22493,87.509835 c 0,0 15.87183,-6.19563 27.19468,-1.387821 0.87015,0.466279 1.24831,0.734297 1.56039,1.463087 z"
         inkscape:connector-curvature="0"
         style="stroke:#ffffff;stroke-width:1.91799998;stroke-linecap:round;stroke-linejoin:round" />
      <path
         id="path3729"
         d="m 112.66501,181.31994 c -17.388149,14.32062 -39.641017,36.81581 -69.888543,52.5059 l 6.727996,28.76241 -28.516421,-28.08686 71.109313,-73.39298"
         inkscape:connector-curvature="0"
         style="fill:#999999;fill-rule:nonzero" />
      <path
         id="path3731"
         d="m 112.66501,181.31994 c -17.388149,14.32062 -39.641017,36.81581 -69.888543,52.5059 l 6.727996,28.76241 -28.516421,-28.08686 71.109313,-73.39298"
         inkscape:connector-curvature="0"
         style="stroke:#ffffff;stroke-width:1.91799998;stroke-linecap:round;stroke-linejoin:round" />
      <polygon
         id="polygon3733"
         points="74.231911,143.08326 74.62476,143.40085 74.622924,143.40085 92.288273,160.99643 51.477885,169.83553 "
         style="fill:#f15a24;fill-rule:nonzero" />
      <polygon
         id="polygon3735"
         points="74.231911,143.08326 74.62476,143.40085 74.622924,143.40085 92.288273,160.99643 51.477885,169.83553 "
         style="stroke:#ffffff;stroke-width:1.91799998;stroke-linecap:round;stroke-linejoin:round" />
      <path
         id="path3737"
         d="m 158.02437,66.246432 c -1.73294,15.640525 9.5275,29.720668 25.16802,31.464623 15.62768,1.736612 29.72067,-9.53301 31.46463,-25.168027 1.73845,-15.635017 -9.54035,-29.729846 -25.17354,-31.468294 -15.64236,-1.727434 -29.72434,9.527502 -31.45911,25.171698"
         inkscape:connector-curvature="0"
         style="fill:#999999;fill-rule:nonzero" />
      <path
         id="path3739"
         d="m 158.02437,66.246432 c -1.73294,15.640525 9.5275,29.720668 25.16802,31.464623 15.62768,1.736612 29.72067,-9.53301 31.46463,-25.168027 1.73845,-15.635017 -9.54035,-29.729846 -25.17354,-31.468294 -15.64236,-1.727434 -29.72434,9.527502 -31.45911,25.171698 z"
         inkscape:connector-curvature="0"
         style="stroke:#ffffff;stroke-width:1.91799998;stroke-linecap:round;stroke-linejoin:round" />
      <path
         id="path3741"
         d="m 210.56515,85.138056 c 5.25573,-7.67891 4.98404,-19.166985 3.92849,-22.570451 -1.2942,-4.167135 -4.191,-10.944696 -9.24297,-14.467485 l -26.71372,24.606289 c 0,0 20.53094,22.05828 21.06515,22.131709 0.22212,0.0257 6.16993,-2.698541 10.96305,-9.700062"
         inkscape:connector-curvature="0"
         style="fill:#666666;fill-rule:nonzero" />
      <path
         id="path3743"
         d="m 210.56515,85.138056 c 5.25573,-7.67891 4.98404,-19.166985 3.92849,-22.570451 -1.2942,-4.167135 -4.191,-10.944696 -9.24297,-14.467485 l -26.71372,24.606289 c 0,0 20.53094,22.05828 21.06515,22.131709 0.22212,0.0257 6.16993,-2.698541 10.96305,-9.700062 z m -5.38974,-19.275294 c 0,0 2.5682,6.307611 -0.69024,11.21455 z"
         inkscape:connector-curvature="0"
         style="stroke:#ffffff;stroke-width:1.91799998;stroke-linecap:round;stroke-linejoin:round" />
      <polyline
         id="polyline3745"
         points="104.964073 173.156392 75.4820518 178.402944 93.2777376 159.913347"
         style="fill:#666666;fill-rule:nonzero" />
      <path
         id="path3747"
         d="m 104.96407,173.15639 -29.482018,5.24655 17.795686,-18.48959 m -17.970082,-16.384 37.480354,35.27378"
         inkscape:connector-curvature="0"
         style="stroke:#ffffff;stroke-width:1.91799998;stroke-linecap:round;stroke-linejoin:round" />
    </g>
  </g>
</svg>
