<?xml version="1.0" encoding="UTF-8" standalone="no"?>
<svg
   xmlns:dc="http://purl.org/dc/elements/1.1/"
   xmlns:cc="http://creativecommons.org/ns#"
   xmlns:rdf="http://www.w3.org/1999/02/22-rdf-syntax-ns#"
   xmlns:svg="http://www.w3.org/2000/svg"
   xmlns="http://www.w3.org/2000/svg"
   xmlns:sodipodi="http://sodipodi.sourceforge.net/DTD/sodipodi-0.dtd"
   xmlns:inkscape="http://www.inkscape.org/namespaces/inkscape"
   width="200"
   height="200"
   viewBox="0 0 150.00001 150.00001"
   version="1.1"
   id="svg2"
   inkscape:version="0.92.2 (unknown)"
   sodipodi:docname="skype.svg">
  <metadata
     id="metadata16">
    <rdf:RDF>
      <cc:Work
         rdf:about="">
        <dc:format>image/svg+xml</dc:format>
        <dc:type
           rdf:resource="http://purl.org/dc/dcmitype/StillImage" />
        <dc:title />
      </cc:Work>
    </rdf:RDF>
  </metadata>
  <defs
     id="defs14" />
  <sodipodi:namedview
     pagecolor="#ffffff"
     bordercolor="#666666"
     borderopacity="1"
     objecttolerance="10"
     gridtolerance="10"
     guidetolerance="10"
     inkscape:pageopacity="0"
     inkscape:pageshadow="2"
     inkscape:window-width="1920"
     inkscape:window-height="1059"
     id="namedview12"
     showgrid="false"
     inkscape:zoom="2.085965"
     inkscape:cx="93.685168"
     inkscape:cy="61.349699"
     inkscape:window-x="1366"
     inkscape:window-y="21"
     inkscape:window-maximized="1"
     inkscape:current-layer="svg2"
     units="px" />
  <path
     d="M -5.6250004,-5.6249998 H 155.62501 V 155.62501 H -5.6250004 Z"
     id="path4"
     style="fill:none;stroke-width:0.62988287"
     inkscape:connector-curvature="0" />
  <path
     d="M 18.310547,8.2261234 C 31.116066,-1.0142573 49.225196,-1.8079093 62.86216,6.0971201 78.2376,3.4327155 94.494881,5.9648446 108.21373,13.441554 c 15.31244,8.226268 27.33692,22.35454 32.93657,38.819679 3.84858,11.142622 4.74302,23.25527 2.73999,34.864012 4.92568,8.660888 6.63266,19.085455 4.63594,28.854935 -2.11011,10.7773 -8.75537,20.54678 -17.94537,26.54957 -12.72363,8.5538 -30.20287,9.03882 -43.455613,1.36683 -14.758154,2.53844 -30.322559,0.34015 -43.676076,-6.47519 C 27.928859,129.62344 15.55166,115.82901 9.4984866,99.54654 5.1145018,87.912596 4.0122069,75.113378 6.0971192,62.868462 1.0643551,54.056397 -0.56704117,43.405079 1.5808594,33.490722 3.7098633,23.362207 9.8386235,14.159619 18.310547,8.2261234 Z"
     id="path6"
     inkscape:connector-curvature="0"
     style="fill:#00aff0;stroke-width:0.62988287" />
  <path
     d="m 25.239258,16.408301 c 7.779054,-5.221728 17.983157,-6.5255856 26.845608,-3.508447 3.149413,1.001513 5.983886,2.733691 8.830957,4.365089 11.111132,-2.42505 22.902541,-2.072316 33.654639,1.776268 17.113928,5.914599 31.084718,20.105859 36.703278,37.320556 3.56514,10.493849 3.80448,21.919928 1.45502,32.709819 2.77149,4.541456 5.15875,9.454534 5.71934,14.808554 1.37314,10.08442 -2.73369,20.65385 -10.46235,27.25503 -7.546,6.65156 -18.44298,9.18368 -28.155771,6.53188 -3.873773,-0.93853 -7.34443,-2.94786 -10.758396,-4.93199 -11.70322,2.56363 -24.162305,1.99674 -35.355321,-2.40615 C 37.194434,124.03638 23.88501,109.9774 18.549903,93.121734 15.129638,82.760153 14.959571,71.53565 17.271241,60.915821 13.699804,55.347655 11.173974,48.935452 11.299951,42.227197 11.205469,31.9979 16.672852,21.976464 25.239258,16.408301 Z"
     id="path8"
     style="fill:#00aff0;fill-opacity:1;stroke-width:0.62988287"
     inkscape:connector-curvature="0" />
  <path
     d="m 65.810014,32.652978 c 10.071826,-1.524315 20.68535,0.0189 29.673779,4.89419 3.930473,2.179394 7.734957,5.127246 9.561617,9.360059 1.19047,2.784079 1.32276,6.418504 -0.87553,8.749072 -2.38096,2.437648 -6.267337,3.187213 -9.460839,2.160502 -3.697418,-1.549515 -5.536674,-5.423288 -8.673488,-7.728668 -3.943068,-3.250193 -9.252979,-4.12573 -14.222758,-4.037547 -3.634421,0.157472 -7.527101,0.982619 -10.178907,3.65332 -2.450242,2.614013 -3.357272,7.092485 -0.97002,10.034038 2.254983,2.601414 5.738231,3.57143 8.931738,4.459573 6.090971,1.524308 12.251221,2.752581 18.367386,4.195016 6.361814,1.455023 12.786618,4.239112 16.987938,9.423042 7.24365,9.385254 5.61226,24.269395 -3.39507,31.953975 -7.20586,6.3807 -17.227294,8.14437 -26.562153,8.20106 -9.964747,-0.14487 -20.616068,-2.18569 -28.275443,-9.00102 -3.842286,-3.46435 -7.073584,-8.69239 -5.914599,-14.040092 1.266063,-5.316219 8.566406,-7.331844 12.704737,-4.062747 3.162011,2.53843 4.875294,6.399599 7.923925,9.051419 3.647022,3.34467 8.730177,4.67374 13.59287,4.55405 4.768214,0.12598 9.832473,-1.33534 13.101567,-4.96348 2.223486,-2.45024 3.401363,-6.179143 1.95893,-9.31596 -1.18418,-2.947856 -4.226515,-4.554056 -7.136567,-5.347707 -5.366602,-1.404637 -10.771,-2.683307 -16.137604,-4.100544 -5.8957,-1.442424 -12.024461,-2.75888 -17.095018,-6.273624 -3.955664,-2.626612 -6.953906,-6.727157 -7.917626,-11.400881 -1.618799,-7.331843 -0.459814,-15.791166 4.868994,-21.390825 4.875293,-5.423291 12.106349,-7.942822 19.142141,-9.026221 z"
     id="path10"
     style="fill:#ffffff;fill-opacity:1;stroke-width:0.62988287"
     inkscape:connector-curvature="0" />
</svg>
