<?xml version="1.0" encoding="UTF-8" standalone="no"?>
<!-- Created with Inkscape (http://www.inkscape.org/) -->

<svg
   xmlns:dc="http://purl.org/dc/elements/1.1/"
   xmlns:cc="http://creativecommons.org/ns#"
   xmlns:rdf="http://www.w3.org/1999/02/22-rdf-syntax-ns#"
   xmlns:svg="http://www.w3.org/2000/svg"
   xmlns="http://www.w3.org/2000/svg"
   xmlns:xlink="http://www.w3.org/1999/xlink"
   xmlns:sodipodi="http://sodipodi.sourceforge.net/DTD/sodipodi-0.dtd"
   xmlns:inkscape="http://www.inkscape.org/namespaces/inkscape"
   width="200"
   height="200"
   id="svg2"
   version="1.1"
   inkscape:version="0.92.2 (unknown)"
   sodipodi:docname="skype.svg">
  <defs
     id="defs4">
    <linearGradient
       id="linearGradient4829">
      <stop
         style="stop-color:#f4fbfc;stop-opacity:1;"
         offset="0"
         id="stop4831" />
      <stop
         style="stop-color:#d6d6d6;stop-opacity:1;"
         offset="1"
         id="stop4833" />
    </linearGradient>
    <clipPath
       clipPathUnits="userSpaceOnUse"
       id="clipPath4282">
      <rect
         style="color:#000000;fill:#4d4d4d;fill-opacity:1;fill-rule:nonzero;stroke:none;stroke-width:9.13434315;marker:none;visibility:visible;display:inline;overflow:visible;enable-background:accumulate"
         id="rect4284"
         width="246.875"
         height="234.375"
         x="462.5"
         y="1646.1122"
         ry="17"
         rx="17" />
    </clipPath>
    <linearGradient
       inkscape:collect="always"
       xlink:href="#linearGradient4829"
       id="linearGradient4835"
       x1="102.29776"
       y1="-0.42686829"
       x2="102.29776"
       y2="199.16539"
       gradientUnits="userSpaceOnUse" />
    <linearGradient
       inkscape:collect="always"
       xlink:href="#linearGradient5423"
       id="linearGradient5429"
       x1="408.66196"
       y1="44.604382"
       x2="408.66196"
       y2="562.04968"
       gradientUnits="userSpaceOnUse" />
    <linearGradient
       id="linearGradient5423">
      <stop
         style="stop-color:#51b9db;stop-opacity:1;"
         offset="0"
         id="stop5425" />
      <stop
         style="stop-color:#2fabd4;stop-opacity:1;"
         offset="1"
         id="stop5427" />
    </linearGradient>
    <linearGradient
       gradientTransform="matrix(0,-1,1,0,-1.5e-6,47.999998)"
       gradientUnits="userSpaceOnUse"
       x2="47"
       x1="1"
       id="linearGradient3764">
      <stop
         id="stop26"
         style="stop-color:#3db0e3;stop-opacity:1" />
      <stop
         id="stop28"
         style="stop-color:#50b8e6;stop-opacity:1"
         offset="1" />
    </linearGradient>
    <linearGradient
       id="linearGradient3102-2"
       gradientUnits="userSpaceOnUse"
       gradientTransform="matrix(0.05622958,0,0,0.05622958,0.07160145,-0.0527796)"
       x1="135"
       y1="120"
       x2="160"
       y2="160">
      <stop
         id="stop31"
         style="stop-color:#eff7fc" />
      <stop
         id="stop33"
         style="stop-color:#fff"
         offset="1" />
    </linearGradient>
    <linearGradient
       id="linearGradient3764-3"
       x1="1"
       x2="47"
       gradientUnits="userSpaceOnUse"
       gradientTransform="rotate(-90,23.999998,24)">
      <stop
         style="stop-color:#0bb8f9;stop-opacity:1"
         id="stop2" />
      <stop
         offset="1"
         style="stop-color:#20bef9;stop-opacity:1"
         id="stop4" />
    </linearGradient>
  </defs>
  <sodipodi:namedview
     id="base"
     pagecolor="#ffffff"
     bordercolor="#666666"
     borderopacity="1.0"
     inkscape:pageopacity="0.0"
     inkscape:pageshadow="2"
     inkscape:zoom="1.8101934"
     inkscape:cx="-2.1669819"
     inkscape:cy="67.890049"
     inkscape:document-units="px"
     inkscape:current-layer="layer1"
     showgrid="false"
     inkscape:window-width="1920"
     inkscape:window-height="1059"
     inkscape:window-x="1366"
     inkscape:window-y="21"
     inkscape:window-maximized="1"
     inkscape:snap-from-guide="true"
     showguides="false"
     inkscape:guide-bbox="true">
    <sodipodi:guide
       position="0,0"
       orientation="0,200"
       id="guide3764"
       inkscape:locked="false" />
    <sodipodi:guide
       position="200,0"
       orientation="-200,0"
       id="guide3766"
       inkscape:locked="false" />
    <sodipodi:guide
       position="200,200"
       orientation="0,-200"
       id="guide3768"
       inkscape:locked="false" />
    <sodipodi:guide
       position="0,200"
       orientation="200,0"
       id="guide3770"
       inkscape:locked="false" />
  </sodipodi:namedview>
  <metadata
     id="metadata7">
    <rdf:RDF>
      <cc:Work
         rdf:about="">
        <dc:format>image/svg+xml</dc:format>
        <dc:type
           rdf:resource="http://purl.org/dc/dcmitype/StillImage" />
        <dc:title />
      </cc:Work>
    </rdf:RDF>
  </metadata>
  <g
     inkscape:label="Layer 1"
     inkscape:groupmode="layer"
     id="layer1"
     transform="translate(0,-852.36218)">
    <path
       sodipodi:type="arc"
       style="color:#000000;fill:url(#linearGradient4835);fill-opacity:1;fill-rule:nonzero;stroke:none;stroke-width:9.13434315;marker:none;visibility:visible;display:inline;overflow:visible;enable-background:accumulate"
       id="path4188"
       sodipodi:cx="100"
       sodipodi:cy="100"
       sodipodi:rx="100"
       sodipodi:ry="100"
       d="M 200,100 A 100,100 0 0 1 100,200 100,100 0 0 1 0,100 100,100 0 0 1 100,0 100,100 0 0 1 200,100 Z"
       transform="translate(0,852.36219)" />
    <circle
       style="color:#000000;display:inline;overflow:visible;visibility:visible;fill:#14baf9;fill-opacity:1;fill-rule:nonzero;stroke:none;stroke-width:8.31411648;marker:none;enable-background:accumulate"
       id="path4188-6"
       cx="100"
       cy="952.36218"
       r="91.020409" />
    <g
       id="g39"
       transform="matrix(4.2555002,0,0,4.2553191,-2.1490268,850.24517)">
      <g
         id="g37">
        <!-- color: #20bef9 -->
        <g
           id="g35">
          <path
             d="m 18.06,11 c -3.898,0 -7.05,3.156 -7.05,7.05 0,1.203 0.305,2.367 0.836,3.359 -0.176,0.84 -0.273,1.695 -0.273,2.586 0,6.863 5.566,12.43 12.438,12.43 0.887,0 1.746,-0.094 2.582,-0.27 0.996,0.539 2.145,0.84 3.355,0.84 3.898,0 7.05,-3.156 7.05,-7.05 0,-1.211 -0.305,-2.367 -0.84,-3.363 0.176,-0.836 0.27,-1.695 0.27,-2.582 0,-6.859 -5.566,-12.43 -12.43,-12.43 -0.891,0 -1.75,0.09 -2.586,0.27 C 20.42,11.309 19.256,11 18.053,11 m 5.703,5.16 c 3.883,0 5.887,2.043 5.887,3.242 0,1.203 -0.578,1.383 -1.531,1.383 -1.852,0 -1.094,-2.223 -4.563,-2.223 -1.148,0 -2.582,0.523 -2.582,1.859 0,1.074 1.27,1.469 3.512,2.02 3.379,0.902 5.914,1.801 5.914,4.891 0,3 -2.453,4.504 -6.336,4.504 -3.883,0 -6.363,-2.313 -6.363,-3.512 0,-1.199 0.457,-1.5 1.41,-1.5 1.855,0 1.605,2.523 5.074,2.523 1.152,0 2.852,-0.523 2.852,-1.863 0,-1.07 -0.09,-1.441 -2.551,-2.102 -2.629,-0.355 -6.875,-1.207 -6.875,-4.473 0,-3 2.273,-4.746 6.156,-4.746 m 0,0"
             style="fill:#ffffff;fill-opacity:1;fill-rule:nonzero;stroke:none"
             id="path33"
             inkscape:connector-curvature="0" />
        </g>
      </g>
    </g>
  </g>
</svg>
