<?xml version="1.0" encoding="UTF-8" standalone="no"?>
<!-- Created with Inkscape (http://www.inkscape.org/) -->

<svg
   xmlns:dc="http://purl.org/dc/elements/1.1/"
   xmlns:cc="http://creativecommons.org/ns#"
   xmlns:rdf="http://www.w3.org/1999/02/22-rdf-syntax-ns#"
   xmlns:svg="http://www.w3.org/2000/svg"
   xmlns="http://www.w3.org/2000/svg"
   xmlns:xlink="http://www.w3.org/1999/xlink"
   xmlns:sodipodi="http://sodipodi.sourceforge.net/DTD/sodipodi-0.dtd"
   xmlns:inkscape="http://www.inkscape.org/namespaces/inkscape"
   width="200"
   height="200"
   id="svg2"
   version="1.1"
   inkscape:version="0.92.2 (unknown)"
   sodipodi:docname="slack.svg">
  <defs
     id="defs4">
    <linearGradient
       id="linearGradient4829">
      <stop
         style="stop-color:#f4fbfc;stop-opacity:1;"
         offset="0"
         id="stop4831" />
      <stop
         style="stop-color:#d6d6d6;stop-opacity:1;"
         offset="1"
         id="stop4833" />
    </linearGradient>
    <clipPath
       clipPathUnits="userSpaceOnUse"
       id="clipPath4282">
      <rect
         style="color:#000000;fill:#4d4d4d;fill-opacity:1;fill-rule:nonzero;stroke:none;stroke-width:9.13434315;marker:none;visibility:visible;display:inline;overflow:visible;enable-background:accumulate"
         id="rect4284"
         width="246.875"
         height="234.375"
         x="462.5"
         y="1646.1122"
         ry="17"
         rx="17" />
    </clipPath>
    <linearGradient
       inkscape:collect="always"
       xlink:href="#linearGradient4829"
       id="linearGradient4835"
       x1="102.29776"
       y1="-0.42686829"
       x2="102.29776"
       y2="199.16539"
       gradientUnits="userSpaceOnUse"
       gradientTransform="translate(3.7353516e-7,852.36219)" />
    <linearGradient
       inkscape:collect="always"
       xlink:href="#linearGradient5423"
       id="linearGradient5429"
       x1="408.66196"
       y1="44.604382"
       x2="408.66196"
       y2="562.04968"
       gradientUnits="userSpaceOnUse" />
    <linearGradient
       id="linearGradient5423">
      <stop
         style="stop-color:#51b9db;stop-opacity:1;"
         offset="0"
         id="stop5425" />
      <stop
         style="stop-color:#2fabd4;stop-opacity:1;"
         offset="1"
         id="stop5427" />
    </linearGradient>
    <linearGradient
       gradientTransform="matrix(0,-1,1,0,-1.5e-6,47.999998)"
       gradientUnits="userSpaceOnUse"
       x2="47"
       x1="1"
       id="linearGradient3764">
      <stop
         id="stop26"
         style="stop-color:#3db0e3;stop-opacity:1" />
      <stop
         id="stop28"
         style="stop-color:#50b8e6;stop-opacity:1"
         offset="1" />
    </linearGradient>
    <linearGradient
       id="linearGradient3102-2"
       gradientUnits="userSpaceOnUse"
       gradientTransform="matrix(0.05622958,0,0,0.05622958,0.07160145,-0.0527796)"
       x1="135"
       y1="120"
       x2="160"
       y2="160">
      <stop
         id="stop31"
         style="stop-color:#eff7fc" />
      <stop
         id="stop33"
         style="stop-color:#fff"
         offset="1" />
    </linearGradient>
  </defs>
  <sodipodi:namedview
     id="base"
     pagecolor="#ffffff"
     bordercolor="#666666"
     borderopacity="1.0"
     inkscape:pageopacity="0.0"
     inkscape:pageshadow="2"
     inkscape:zoom="1.28"
     inkscape:cx="202.23386"
     inkscape:cy="10.625196"
     inkscape:document-units="px"
     inkscape:current-layer="layer1"
     showgrid="false"
     inkscape:window-width="1920"
     inkscape:window-height="1059"
     inkscape:window-x="1366"
     inkscape:window-y="21"
     inkscape:window-maximized="1"
     inkscape:snap-from-guide="true"
     showguides="true"
     inkscape:guide-bbox="true">
    <sodipodi:guide
       position="0,0"
       orientation="0,200"
       id="guide3764"
       inkscape:locked="false" />
    <sodipodi:guide
       position="200,0"
       orientation="-200,0"
       id="guide3766"
       inkscape:locked="false" />
    <sodipodi:guide
       position="200,200"
       orientation="0,-200"
       id="guide3768"
       inkscape:locked="false" />
    <sodipodi:guide
       position="0,200"
       orientation="200,0"
       id="guide3770"
       inkscape:locked="false" />
  </sodipodi:namedview>
  <metadata
     id="metadata7">
    <rdf:RDF>
      <cc:Work
         rdf:about="">
        <dc:format>image/svg+xml</dc:format>
        <dc:type
           rdf:resource="http://purl.org/dc/dcmitype/StillImage" />
        <dc:title />
      </cc:Work>
    </rdf:RDF>
  </metadata>
  <g
     inkscape:label="Layer 1"
     inkscape:groupmode="layer"
     id="layer1"
     transform="translate(0,-852.36218)">
    <circle
       style="color:#000000;display:inline;overflow:visible;visibility:visible;fill:url(#linearGradient4835);fill-opacity:1;fill-rule:nonzero;stroke:none;stroke-width:9.13434315;marker:none;enable-background:accumulate"
       id="path4188"
       cx="100"
       cy="952.36218"
       r="100" />
    <path
       style="opacity:0.05;stroke-width:3.87396002"
       d="m 138.01072,869.07079 c 22.69719,15.73626 37.53037,41.95949 37.53037,71.66933 0,48.13852 -39.0102,87.16538 -87.16279,87.16538 -29.708961,0 -55.931401,-14.8298 -71.667191,-37.53145 4.01724,7.05845 8.93322,13.55505 14.64723,19.24995 15.82488,14.3804 36.8563,23.1241 59.925381,23.1241 49.21018,0 89.09974,-39.89471 89.09974,-89.10247 0,-23.06591 -8.73952,-44.10182 -23.12332,-59.92719 -5.69076,-5.71418 -12.19117,-10.63031 -19.24942,-14.64765 z m 19.24942,14.64766 c 14.93002,15.93384 24.0918,37.33391 24.0918,60.89569 0,49.21155 -39.88956,89.10236 -89.099739,89.10236 -23.557201,0 -44.960511,-9.1582 -60.893861,-24.0925 16.11543,16.0539 38.28577,26.0296 62.830811,26.0296 49.210169,0 89.099739,-39.8947 89.099739,-89.10245 0,-24.5419 -9.9753,-46.72066 -26.02875,-62.8327 z"
       id="path4"
       inkscape:connector-curvature="0" />
    <path
       style="opacity:0.1;stroke-width:3.87396002"
       d="m 150.90501,877.36317 c 14.37992,15.82536 23.12332,36.85741 23.12332,59.92719 0,49.21166 -39.88957,89.10244 -89.099739,89.10244 -23.065221,0 -44.100501,-8.7399 -59.925391,-23.1241 15.93336,14.9304 37.33279,24.0925 60.893871,24.0925 49.210159,0 89.099729,-39.89458 89.099729,-89.10234 0,-23.5579 -9.1579,-44.96185 -24.09179,-60.89569 z"
       id="path6"
       inkscape:connector-curvature="0" />
    <path
       style="opacity:0.2;stroke-width:3.87396002"
       d="m 124.91888,865.63165 c 33.37365,12.21866 57.14004,44.22966 57.14004,81.858 0,48.13856 -39.01019,87.16535 -87.16279,87.16535 -37.607831,0 -69.617891,-23.7671 -81.8168,-57.14169 a 89.099742,89.10242 0 0 0 173.84134,-27.11814 89.099742,89.10242 0 0 0 -61.98243,-84.74415 z"
       id="path8"
       inkscape:connector-curvature="0" />
    <g
       transform="matrix(3.6656983,-1.2529428,1.2529051,3.6658085,-18.046953,894.45839)"
       id="g32">
      <path
         style="fill:#d6100e;stroke-width:0.99998999"
         d="m 39.941,32.877 c -1.7321,0.10514 -3.4369,1.3039 -5.1465,2.3027 -3.5708,3.0074 -1.7992,6.0558 -0.03125,9.1035 0.0013,-6.86e-4 0.0026,-0.0013 0.0039,-0.002 0.9736,-0.51604 1.9059,-1.0976 2.7891,-1.7422 7.39e-4,-5.39e-4 0.0012,-0.0014 0.002,-0.002 0.44118,-0.32208 0.87074,-0.65974 1.2871,-1.0117 7.03e-4,-5.94e-4 0.0013,-0.0014 0.002,-0.002 0.41702,-0.35262 0.8203,-0.7204 1.2109,-1.1016 1.1725,-1.1441 2.2231,-2.4121 3.1309,-3.7871 0.30193,-0.45735 0.58778,-0.92822 0.85742,-1.4082 h 0.002 c -3.2e-4,-4.24e-4 3.21e-4,-0.0015 0,-0.002 -1.3959,-1.8507 -2.7605,-2.4294 -4.1074,-2.3477 z"
         id="path10"
         inkscape:connector-curvature="0" />
      <path
         style="fill:#40113f;stroke-width:0.99998999"
         d="m 7.8301,33.068 c -1.3007,-0.06285 -2.6144,0.40434 -3.9727,1.9531 0.78482,1.4341 1.7162,2.7732 2.7754,3.998 3.316e-4,3.84e-4 -3.316e-4,0.0016 0,0.002 0.35276,0.40791 0.72122,0.80368 1.1016,1.1855 0.76135,0.76441 1.5762,1.4754 2.4395,2.127 7.31e-4,5.52e-4 0.0012,0.0014 0.002,0.002 0.43097,0.32517 0.87389,0.63477 1.3281,0.92969 7.63e-4,4.95e-4 0.0012,0.0015 0.002,0.002 0.45429,0.29488 0.92035,0.57272 1.3965,0.83594 v 0.002 c 7.83e-4,4.33e-4 0.0012,0.0015 0.002,0.002 2.168,-2.5542 3.2876,-5.5359 0.16797,-9.2168 l -0.23061,-0.11742 c -1.689,-0.667 -3.3386,-1.624 -5.0109,-1.705 z"
         id="path12"
         inkscape:connector-curvature="0" />
      <path
         style="fill:#e5186b;stroke-width:0.99998999"
         d="m 16.861,21.566 c -3.0247,-0.28881 -4.8431,2.9507 -3.9297,13.445 -0.04049,2.9669 -0.0039,6.0945 -0.0039,9.0977 1.1706,0.65411 2.3721,1.204 3.6387,1.6445 0.37562,0.12767 0.75306,0.24594 1.1328,0.35352 5.98e-4,1.69e-4 0.0014,-1.69e-4 0.002,0 1.5256,0.43038 3.0938,0.70116 4.6719,0.8125 0.39193,0.02765 0.78496,0.04461 1.1777,0.05273 0.0026,5.4e-5 0.0052,-5.3e-5 0.0078,0 0.36617,0.0065 0.7319,0.0052 1.0977,-0.0059 3.4968,-0.10528 6.9595,-1.0085 10.111,-2.6855 0.07467,-0.03958 0.14458,-0.08659 0.21875,-0.12695 v -9 c -4.69,-2.826 -13.083,-13.107 -18.125,-13.589 z"
         id="path14"
         inkscape:connector-curvature="0" />
      <path
         style="fill:#76971f;stroke-width:0.99998999"
         d="m 34.893,3.7754 c -9.9e-4,0.0015 -0.0028,0.00242 -0.0039,0.00391 -2.3481,2.9927 -2.3904,6.1047 -0.02539,9.3379 3.1935,2.2356 6.3814,4.3163 9.3574,0.0059 0.002,-0.0028 0.0039,-0.005 0.0059,-0.0078 -1.066,-1.979 -2.411,-3.7797 -3.983,-5.3533 -0.786,-0.7867 -1.629,-1.5172 -2.523,-2.1836 -0.894,-0.6664 -1.839,-1.2692 -2.828,-1.8027 z"
         id="path16"
         inkscape:connector-curvature="0" />
      <path
         style="fill:#20a58f;stroke-width:0.99998999"
         d="M 13.074,3.7969 C 12.582,4.0636 12.101,4.346 11.631,4.6465 11.161,4.9469 10.703,5.265 10.258,5.5977 9.3674,6.263 8.5273,6.9905 7.7441,7.7754 7.3525,8.1678 6.9757,8.5742 6.6133,8.9941 5.5264,10.254 4.5722,11.634 3.7754,13.113 c 0.0037,0.001 0.00607,0.0029 0.00977,0.0039 h -0.004 c 2.0792,0.58218 1.9092,2.4705 9.2539,-0.002 1.9755,-2.7989 1.7488,-5.9412 0.04102,-9.3145 -6.67e-4,-0.00132 -0.0015,-0.00253 -0.002,-0.00391 z"
         id="path18"
         inkscape:connector-curvature="0" />
      <path
         style="fill:#82d2e0;stroke-width:0.99998999"
         d="m 24.418,1.0254 c -0.45692,-0.00757 -0.91302,-7.09e-5 -1.3691,0.019531 -0.07557,0.00311 -0.15103,0.00983 -0.22656,0.013672 -0.42318,0.02237 -0.8463,0.053917 -1.2676,0.099609 -0.03125,0.0033 -0.06252,0.00633 -0.09375,0.00977 -2.908,0.32746 -5.7574,1.2083 -8.3848,2.6328 -9.52e-4,-0.00188 -9.53e-4,-0.00398 -0.002,-0.00586 -0.02934,0.015886 -0.05667,0.034773 -0.08594,0.050781 v 9.0957 c 7.3817,5.8751 14.69,5.0933 21.881,0.17774 l 0.15234,-0.14648 v -9.1234 C 34.97775,3.825251 34.9367,3.796827 34.89268,3.773091 c -0.0015,0.00193 -0.0024,0.00393 -0.0039,0.00586 -1.106,-0.6039 -2.26,-1.1174 -3.45,-1.5332 h -0.002 c -0.053,-0.0178 -0.106,-0.0314 -0.159,-0.0488 -0.447,-0.1486 -0.898,-0.2804 -1.351,-0.4004 -0.147,-0.0389 -0.294,-0.0754 -0.442,-0.1114 -0.454,-0.1106 -0.909,-0.2105 -1.367,-0.2929 C 28.02865,1.376206 27.93947,1.360363 27.8502,1.345376 27.3893,1.268013 26.92671,1.206906 26.4635,1.157876 26.29944,1.140443 26.13561,1.124923 25.97131,1.111001 25.4921,1.07066 25.01164,1.03928 24.53181,1.02897 24.49666,1.0281783 24.4615,1.0257 24.42634,1.02506 c -0.0026,-4.67e-5 -0.0052,4.59e-5 -0.0078,0 z"
         id="path20"
         inkscape:connector-curvature="0" />
      <path
         style="fill:#edb624;stroke-width:0.99998999"
         d="m 35.021,12.973 c -4.2966,6.5299 -4.9489,13.874 -0.03516,22.182 l 9.0605,0.07227 h 0.002 v -0.002 c 0.34062,-0.60275 0.65485,-1.2193 0.93945,-1.8496 2.49e-4,-5.51e-4 -2.49e-4,-0.0014 0,-0.002 0.2848,-0.63082 0.54063,-1.275 0.76758,-1.9297 0.12882,-0.37902 0.2471,-0.75938 0.35547,-1.1426 0.10826,-0.38382 0.207,-0.77007 0.29492,-1.1582 0.3511,-1.55 0.54103,-3.1308 0.57031,-4.7129 4.4e-5,-0.0026 -4.2e-5,-0.0052 0,-0.0078 0.0068,-0.37535 0.0014,-0.75184 -0.0098,-1.127 -0.11462,-3.5214 -1.0377,-7.0067 -2.7461,-10.172 0.002,-0.0028 0.0039,-0.005 0.0059,-0.0078 -0.02624,-0.04875 -0.05741,-0.09404 -0.08398,-0.14258 z"
         id="path22"
         inkscape:connector-curvature="0" />
      <path
         style="fill:#49c39e;stroke-width:0.99998999"
         d="m 3.877,12.941 c -0.032142,0.05846 -0.06991,0.1131 -0.10156,0.17188 0.0037,10e-4 0.00607,0.0029 0.00977,0.0039 H 3.773491 c -0.59654,1.0911 -1.1011,2.2293 -1.5137,3.4023 -0.00466,0.01324 -0.010993,0.02581 -0.015625,0.03906 -1.926e-4,5.51e-4 1.927e-4,0.0014 0,0.002 -0.12957,0.38116 -0.24855,0.76502 -0.35742,1.1504 -1.687e-4,5.96e-4 1.686e-4,0.0014 0,0.002 -0.43586,1.5433 -0.70769,3.1165 -0.81445,4.6953 -4.37e-5,6.46e-4 4.37e-5,0.0013 0,0.002 -0.10663,1.5788 -0.050006,3.1632 0.16797,4.7266 0.16355,1.173 0.41764,2.3335 0.76172,3.4727 1.817e-4,6.02e-4 -1.817e-4,0.0014 0,0.002 0.22927,0.75881 0.49991,1.5083 0.80859,2.2441 2.349e-4,5.6e-4 -2.35e-4,0.0014 0,0.002 0.15426,0.36764 0.3182,0.73109 0.49219,1.0918 2.587e-4,5.36e-4 -2.588e-4,0.0014 0,0.002 0.17402,0.36071 0.35906,0.71733 0.55273,1.0703 h 0.00195 c 4.292e-4,7.85e-4 0.00152,0.0012 0.00195,0.002 l 9.0723,-0.01172 c 3.3681,-8.4406 3.4731,-16.024 0.10156,-21.896 l -0.04492,-0.17383 z"
         id="path24"
         inkscape:connector-curvature="0" />
      <path
         style="fill:#f5f3f1;stroke-width:0.99998999"
         d="M 12.929,35.01 34.984,35.153 35.02,12.97 12.986,12.939 12.925,35.009 Z"
         id="path26"
         inkscape:connector-curvature="0" />
      <path
         d="m 22.306,32.728 c -2.212,-0.75606 -4.4068,-2.5284 -5.111,-3.8567 0,0 0.04893,-0.36016 0.78892,-1.173 0.74002,-0.81292 1.312,-1.0997 1.312,-1.0997 0.94042,1.5422 2.3776,2.7451 4.0779,3.2119 1.3744,0.37763 2.0627,0.07357 2.3574,-0.78847 l 0.0144,-0.04214 c 0.281,-0.82 -0.027,-1.434 -2.145,-2.556 -3.23,-1.711 -4.39,-3.351 -3.391,-6.273 l 0.0144,-0.04214 c 0.91243,-2.6695 3.7744,-3.7072 6.7562,-2.688 2.1268,0.72692 3.9902,1.7056 5.0614,3.4098 0,0 -0.51547,0.73361 -1.0281,1.2562 -0.52423,0.53237 -1.1643,0.96827 -1.1643,0.96827 -0.98341,-1.346 -2.1161,-2.0689 -3.3462,-2.4893 -1.2301,-0.42044 -2.4296,-0.06079 -2.6739,0.65411 l -0.0144,0.04214 c -0.33042,0.96674 0.06804,1.6259 2.6701,2.9134 2.9024,1.4338 3.8655,3.2992 2.989,5.8637 l -0.0144,0.04214 c -0.99882,2.9223 -4.006,3.7265 -7.1544,2.6504"
         style="opacity:0.1"
         id="path28"
         inkscape:connector-curvature="0" />
      <path
         d="m 21.683,31.459 c -2.212,-0.75606 -4.4068,-2.5284 -5.111,-3.8567 0,0 0.04892,-0.36016 0.78892,-1.173 0.74002,-0.81292 1.312,-1.0997 1.312,-1.0997 0.94042,1.5422 2.3776,2.7451 4.0779,3.2119 1.3744,0.37763 2.0627,0.07357 2.3574,-0.78847 l 0.0144,-0.04214 c 0.28025,-0.81994 -0.02789,-1.4344 -2.1458,-2.5565 -3.2299,-1.7112 -4.3896,-3.3506 -3.3908,-6.2729 l 0.0144,-0.04214 c 0.91243,-2.6695 3.7744,-3.7072 6.7562,-2.688 2.1268,0.72692 3.9902,1.7056 5.0614,3.4098 0,0 -0.51547,0.73361 -1.0281,1.2562 -0.52423,0.53237 -1.1643,0.96827 -1.1643,0.96827 -0.98341,-1.346 -2.1161,-2.0689 -3.3462,-2.4893 -1.2301,-0.42044 -2.4296,-0.06079 -2.6739,0.65411 l -0.0144,0.04214 c -0.33042,0.96674 0.06804,1.6259 2.6701,2.9134 2.9024,1.4338 3.8655,3.2992 2.989,5.8637 l -0.0144,0.04214 c -0.99882,2.9223 -4.006,3.7265 -7.1544,2.6504"
         style="fill:#5c3a58"
         id="path30"
         inkscape:connector-curvature="0" />
    </g>
  </g>
</svg>
