<?xml version="1.0" encoding="UTF-8" standalone="no"?>
<svg
   xmlns:dc="http://purl.org/dc/elements/1.1/"
   xmlns:cc="http://creativecommons.org/ns#"
   xmlns:rdf="http://www.w3.org/1999/02/22-rdf-syntax-ns#"
   xmlns:svg="http://www.w3.org/2000/svg"
   xmlns="http://www.w3.org/2000/svg"
   xmlns:sodipodi="http://sodipodi.sourceforge.net/DTD/sodipodi-0.dtd"
   xmlns:inkscape="http://www.inkscape.org/namespaces/inkscape"
   viewBox="0 0 200 200"
   version="1.1"
   id="svg12"
   sodipodi:docname="Slack.svg"
   width="200"
   height="200"
   inkscape:version="0.92.4 (unknown)">
  <metadata
     id="metadata18">
    <rdf:RDF>
      <cc:Work
         rdf:about="">
        <dc:format>image/svg+xml</dc:format>
        <dc:type
           rdf:resource="http://purl.org/dc/dcmitype/StillImage" />
        <dc:title></dc:title>
      </cc:Work>
    </rdf:RDF>
  </metadata>
  <defs
     id="defs16" />
  <sodipodi:namedview
     pagecolor="#ffffff"
     bordercolor="#666666"
     borderopacity="1"
     objecttolerance="10"
     gridtolerance="10"
     guidetolerance="10"
     inkscape:pageopacity="0"
     inkscape:pageshadow="2"
     inkscape:window-width="1920"
     inkscape:window-height="1059"
     id="namedview14"
     showgrid="false"
     inkscape:zoom="3.0903185"
     inkscape:cx="93.242008"
     inkscape:cy="54.011639"
     inkscape:window-x="1366"
     inkscape:window-y="21"
     inkscape:window-maximized="1"
     inkscape:current-layer="svg12" />
  <g
     id="g10"
     style="fill:none;fill-rule:evenodd"
     transform="matrix(3.5342257,0,0,3.5272059,5.0000161,4.5308814)">
    <path
       d="m 19.712,0.133 a 5.381,5.381 0 0 0 -5.376,5.387 5.381,5.381 0 0 0 5.376,5.386 h 5.376 V 5.52 A 5.381,5.381 0 0 0 19.712,0.133 m 0,14.365 H 5.376 A 5.381,5.381 0 0 0 0,19.884 5.381,5.381 0 0 0 5.376,25.271 h 14.336 a 5.381,5.381 0 0 0 5.376,-5.387 5.381,5.381 0 0 0 -5.376,-5.386"
       id="path2"
       inkscape:connector-curvature="0"
       style="fill:#36c5f0" />
    <path
       d="m 53.76,19.884 a 5.381,5.381 0 0 0 -5.376,-5.386 5.381,5.381 0 0 0 -5.376,5.386 v 5.387 h 5.376 a 5.381,5.381 0 0 0 5.376,-5.387 m -14.336,0 V 5.52 A 5.381,5.381 0 0 0 34.048,0.133 5.381,5.381 0 0 0 28.672,5.52 v 14.364 a 5.381,5.381 0 0 0 5.376,5.387 5.381,5.381 0 0 0 5.376,-5.387"
       id="path4"
       inkscape:connector-curvature="0"
       style="fill:#2eb67d" />
    <path
       d="m 34.048,54 a 5.381,5.381 0 0 0 5.376,-5.387 5.381,5.381 0 0 0 -5.376,-5.386 h -5.376 v 5.386 A 5.381,5.381 0 0 0 34.048,54 m 0,-14.365 H 48.384 A 5.381,5.381 0 0 0 53.76,34.249 5.381,5.381 0 0 0 48.384,28.862 H 34.048 a 5.381,5.381 0 0 0 -5.376,5.387 5.381,5.381 0 0 0 5.376,5.386"
       id="path6"
       inkscape:connector-curvature="0"
       style="fill:#ecb22e" />
    <path
       d="m 0,34.249 a 5.381,5.381 0 0 0 5.376,5.386 5.381,5.381 0 0 0 5.376,-5.386 V 28.862 H 5.376 A 5.381,5.381 0 0 0 0,34.25 M 14.336,34.249 V 48.613 A 5.381,5.381 0 0 0 19.712,54 5.381,5.381 0 0 0 25.088,48.613 V 34.25 a 5.381,5.381 0 0 0 -5.376,-5.387 5.381,5.381 0 0 0 -5.376,5.387"
       id="path8"
       inkscape:connector-curvature="0"
       style="fill:#e01e5a" />
  </g>
</svg>
