<?xml version="1.0" encoding="UTF-8" standalone="no"?>
<!-- Generator: Adobe Illustrator 21.1.0, SVG Export Plug-In . SVG Version: 6.00 Build 0)  -->

<svg
   xmlns:dc="http://purl.org/dc/elements/1.1/"
   xmlns:cc="http://creativecommons.org/ns#"
   xmlns:rdf="http://www.w3.org/1999/02/22-rdf-syntax-ns#"
   xmlns:svg="http://www.w3.org/2000/svg"
   xmlns="http://www.w3.org/2000/svg"
   xmlns:sodipodi="http://sodipodi.sourceforge.net/DTD/sodipodi-0.dtd"
   xmlns:inkscape="http://www.inkscape.org/namespaces/inkscape"
   version="1.1"
   id="Layer_1"
   x="0px"
   y="0px"
   viewBox="0 0 200 200"
   xml:space="preserve"
   sodipodi:docname="soapui.svg"
   width="200"
   height="200"
   inkscape:version="0.92.2 (unknown)"><metadata
     id="metadata29"><rdf:RDF><cc:Work
         rdf:about=""><dc:format>image/svg+xml</dc:format><dc:type
           rdf:resource="http://purl.org/dc/dcmitype/StillImage" /><dc:title></dc:title></cc:Work></rdf:RDF></metadata><defs
     id="defs27" /><sodipodi:namedview
     pagecolor="#ffffff"
     bordercolor="#666666"
     borderopacity="1"
     objecttolerance="10"
     gridtolerance="10"
     guidetolerance="10"
     inkscape:pageopacity="0"
     inkscape:pageshadow="2"
     inkscape:window-width="1920"
     inkscape:window-height="1007"
     id="namedview25"
     showgrid="false"
     inkscape:zoom="2.7764706"
     inkscape:cx="44.080508"
     inkscape:cy="114.5339"
     inkscape:window-x="0"
     inkscape:window-y="24"
     inkscape:window-maximized="1"
     inkscape:current-layer="Layer_1" /><style
     type="text/css"
     id="style2">
	.st0{fill:#2698DE;}
</style><g
     id="g22"
     transform="matrix(2.5062657,0,0,2.5252525,-6.140351,-6.4393919)"><g
       id="g20"><g
         id="g6"><path
           class="st0"
           d="m 42.9,9.3 c 3.4,0 6.5,0.3 9.5,0.9 l -6.1,-6 C 44.1,2 40.5,2 38.3,4.2 l -8.5,8.4 c 4,-2.2 8.7,-3.3 13.1,-3.3 z"
           id="path4"
           inkscape:connector-curvature="0"
           style="fill:#2698de" /></g><g
         id="g10"><path
           class="st0"
           d="m 23.1,60.9 c 0.3,-0.9 0.7,-1.7 1.9,-1.7 0.5,0 0.9,0.1 1.6,0.4 4.5,1.7 9.6,2.8 14.3,2.8 3.8,0 8.7,-2 8.7,-6.5 0,-3.5 -2.7,-5.2 -5.6,-6.5 L 31.7,43.8 C 24.9,40.7 20.4,35.1 20.4,27.4 c 0,-2.7 0.6,-5.1 1.7,-7.2 l -18,17.9 c -2.2,2.2 -2.2,5.8 0,8 l 18,17.8 z"
           id="path8"
           inkscape:connector-curvature="0"
           style="fill:#2698de" /></g><g
         id="g14"><path
           class="st0"
           d="m 80.6,38.2 -19.1,-19 -1.7,4.3 c -0.5,1.2 -1,1.6 -1.8,1.6 -0.5,0 -1,-0.2 -1.6,-0.5 -3.8,-1.6 -8.7,-2.9 -12.5,-2.9 -3.7,0 -7.8,1.4 -7.8,5.6 0,2.9 3.7,4.7 6,5.7 l 10.5,4.7 c 7.2,3.3 11.9,8.2 11.9,16.5 0,4.2 -1.1,7.8 -3,10.8 L 80.6,46 c 2.2,-2.1 2.2,-5.6 0,-7.8 z"
           id="path12"
           inkscape:connector-curvature="0"
           style="fill:#2698de" /></g><g
         id="g18"><path
           class="st0"
           d="m 41.4,75 c -2.8,0 -5.8,-0.3 -8.9,-0.7 l 5.9,5.8 c 2.2,2.2 5.8,2.2 8,0 l 8.9,-8.8 C 51.4,73.7 46.6,75 41.4,75 Z"
           id="path16"
           inkscape:connector-curvature="0"
           style="fill:#2698de" /></g></g></g></svg>