<?xml version="1.0" encoding="UTF-8" standalone="no"?>
<!-- Generator: Adobe Illustrator 21.1.0, SVG Export Plug-In . SVG Version: 6.00 Build 0)  -->

<svg
   xmlns:dc="http://purl.org/dc/elements/1.1/"
   xmlns:cc="http://creativecommons.org/ns#"
   xmlns:rdf="http://www.w3.org/1999/02/22-rdf-syntax-ns#"
   xmlns:svg="http://www.w3.org/2000/svg"
   xmlns="http://www.w3.org/2000/svg"
   xmlns:sodipodi="http://sodipodi.sourceforge.net/DTD/sodipodi-0.dtd"
   xmlns:inkscape="http://www.inkscape.org/namespaces/inkscape"
   version="1.1"
   id="Layer_1"
   x="0px"
   y="0px"
   viewBox="0 0 200 200"
   xml:space="preserve"
   sodipodi:docname="soapui.svg"
   width="200"
   height="200"
   inkscape:version="0.92.2 (unknown)"><metadata
     id="metadata29"><rdf:RDF><cc:Work
         rdf:about=""><dc:format>image/svg+xml</dc:format><dc:type
           rdf:resource="http://purl.org/dc/dcmitype/StillImage" /><dc:title /></cc:Work></rdf:RDF></metadata><defs
     id="defs27"><style
       id="style17">.cls-1{fill:#fff;}.cls-2{fill:#68b745;}</style></defs><sodipodi:namedview
     pagecolor="#ffffff"
     bordercolor="#666666"
     borderopacity="1"
     objecttolerance="10"
     gridtolerance="10"
     guidetolerance="10"
     inkscape:pageopacity="0"
     inkscape:pageshadow="2"
     inkscape:window-width="1920"
     inkscape:window-height="1056"
     id="namedview25"
     showgrid="false"
     inkscape:zoom="2.7764706"
     inkscape:cx="106.28178"
     inkscape:cy="114.5339"
     inkscape:window-x="1920"
     inkscape:window-y="24"
     inkscape:window-maximized="1"
     inkscape:current-layer="Layer_1" /><style
     type="text/css"
     id="style2">
	.st0{fill:#2698DE;}
</style><g
     id="g44"
     transform="matrix(6.8049046,0,0,6.797955,-1.971339,-1.9693243)"><polygon
       id="polygon23"
       points="22.93,7.36 24.49,21.09 17.05,28.52 12.5,28.15 1.47,17.09 4.21,10.21 12.24,2.18 18.23,2.7 "
       class="cls-1"
       style="fill:#ffffff" /><path
       id="path25"
       d="m 15.16,2.81 a 17.72,17.72 0 0 1 3.52,0.33 L 16.46,0.92 a 2.1,2.1 0 0 0 -3,0 L 10.39,4 a 9.75,9.75 0 0 1 4.77,-1.19 z"
       class="cls-2"
       inkscape:connector-curvature="0"
       style="fill:#68b745" /><path
       id="path27"
       d="m 7.87,22 c 0.11,-0.33 0.26,-0.63 0.7,-0.63 a 1.38,1.38 0 0 1 0.59,0.15 15.46,15.46 0 0 0 5.29,1 c 1.41,0 3.22,-0.74 3.22,-2.41 0,-1.29 -1,-1.92 -2.07,-2.4 L 11.09,15.6 A 6.53,6.53 0 0 1 6.95,9.58 5.93,5.93 0 0 1 7.58,6.88 l -6.66,6.66 a 2.1,2.1 0 0 0 0,3 l 6.62,6.62 z"
       class="cls-2"
       inkscape:connector-curvature="0"
       style="fill:#68b745" /><path
       id="path29"
       d="M 29.07,13.54 22,6.47 21.37,8.06 C 21.18,8.5 21,8.65 20.7,8.65 A 1.36,1.36 0 0 1 20.11,8.46 12.94,12.94 0 0 0 15.57,7.4 c -1.37,0 -2.89,0.52 -2.89,2.11 0,1.07 1.37,1.78 2.18,2.15 l 3.89,1.78 c 2.66,1.22 4.4,3 4.4,6.1 a 7.89,7.89 0 0 1 -1.07,4 l 7.07,-7.07 a 2.17,2.17 0 0 0 -0.08,-2.93 z"
       class="cls-2"
       inkscape:connector-curvature="0"
       style="fill:#68b745" /><path
       id="path31"
       d="m 14.61,27.23 a 20.09,20.09 0 0 1 -3.26,-0.3 l 2.15,2.15 a 2.1,2.1 0 0 0 3,0 l 3.29,-3.29 a 9.2,9.2 0 0 1 -5.18,1.44 z"
       class="cls-2"
       inkscape:connector-curvature="0"
       style="fill:#68b745" /></g></svg>