<?xml version="1.0" encoding="UTF-8" standalone="no"?>
<svg
   xmlns:dc="http://purl.org/dc/elements/1.1/"
   xmlns:cc="http://creativecommons.org/ns#"
   xmlns:rdf="http://www.w3.org/1999/02/22-rdf-syntax-ns#"
   xmlns:svg="http://www.w3.org/2000/svg"
   xmlns="http://www.w3.org/2000/svg"
   xmlns:sodipodi="http://sodipodi.sourceforge.net/DTD/sodipodi-0.dtd"
   xmlns:inkscape="http://www.inkscape.org/namespaces/inkscape"
   height="200"
   width="200"
   version="1.1"
   viewBox="0 0 200 200"
   id="svg4"
   sodipodi:docname="spotify.svg"
   inkscape:version="0.92.4 (unknown)">
  <metadata
     id="metadata10">
    <rdf:RDF>
      <cc:Work
         rdf:about="">
        <dc:format>image/svg+xml</dc:format>
        <dc:type
           rdf:resource="http://purl.org/dc/dcmitype/StillImage" />
        <dc:title></dc:title>
      </cc:Work>
    </rdf:RDF>
  </metadata>
  <defs
     id="defs8">
    <linearGradient
       gradientUnits="userSpaceOnUse"
       y2="14.3"
       x2="51.987999"
       y1="61.459999"
       x1="51.560001"
       id="0">
      <stop
         id="stop2"
         stop-color="#23cf5f" />
      <stop
         id="stop4"
         stop-color="#60ff98"
         offset="1" />
    </linearGradient>
    <linearGradient
       y2="13.896"
       x2="53.798"
       y1="62.470001"
       x1="53.57"
       gradientUnits="userSpaceOnUse"
       id="1">
      <stop
         id="stop7"
         stop-color="#2e3436" />
      <stop
         id="stop9"
         stop-color="#555753"
         offset="1" />
    </linearGradient>
  </defs>
  <sodipodi:namedview
     pagecolor="#ffffff"
     bordercolor="#666666"
     borderopacity="1"
     objecttolerance="10"
     gridtolerance="10"
     guidetolerance="10"
     inkscape:pageopacity="0"
     inkscape:pageshadow="2"
     inkscape:window-width="1920"
     inkscape:window-height="1059"
     id="namedview6"
     showgrid="false"
     inkscape:zoom="1.4047619"
     inkscape:cx="87.559322"
     inkscape:cy="84"
     inkscape:window-x="1366"
     inkscape:window-y="21"
     inkscape:window-maximized="1"
     inkscape:current-layer="svg4" />
  <circle
     style="fill:#191515;fill-opacity:1;stroke-width:1.5649333"
     id="path835"
     cx="100"
     cy="100"
     r="100" />
  <path
     d="M 99.999393,-8.0000001e-7 C 44.77243,-8.0000001e-7 0,44.772303 0,100.00059 0,155.23128 44.77243,200 99.999393,200 155.23235,200 200,155.23128 200,100.00059 200,44.775886 155.23235,0.0047752 99.998203,0.0047752 Z M 145.85848,144.22956 c -1.79118,2.93762 -5.63625,3.86905 -8.5738,2.06588 -23.47883,-14.34176 -53.03576,-17.58985 -87.84443,-9.6368 -3.35429,0.76425 -6.69783,-1.33745 -7.46207,-4.69302 -0.76782,-3.35556 1.32548,-6.69919 4.68813,-7.46344 38.09249,-8.70656 70.76728,-4.95573 97.12634,11.15337 2.93754,1.80317 3.86896,5.63639 2.06583,8.57401 z m 12.23976,-27.23262 c -2.25689,3.67201 -7.05726,4.83034 -10.72322,2.57339 -26.8797,-16.52585 -67.85363,-21.31081 -99.64714,-11.65968 -4.1233,1.2455 -8.47827,-1.07831 -9.72971,-5.19456 -1.24188,-4.1234 1.08307,-8.470108 5.19921,-9.723966 36.31684,-11.019626 81.46543,-5.681771 112.3335,13.287316 3.66595,2.25695 4.82425,7.05744 2.56736,10.7187 z m 1.05083,-28.353915 C 126.9197,69.49959 73.74541,67.739411 42.97408,77.078867 38.0328,78.577526 32.80732,75.787989 31.30989,70.846592 c -1.49743,-4.943785 1.28965,-10.165807 6.23452,-11.66805 35.32332,-10.723477 94.04431,-8.651625 131.15047,13.376881 4.45408,2.637879 5.91091,8.378163 3.2719,12.816823 -2.62707,4.44463 -8.38274,5.909853 -12.81294,3.270779 z"
     id="path2"
     inkscape:connector-curvature="0"
     style="fill:#1ed760;stroke-width:1.19413674" />
</svg>
