<?xml version="1.0" encoding="UTF-8" standalone="no"?>
<!-- Created with Inkscape (http://www.inkscape.org/) -->

<svg
   xmlns:dc="http://purl.org/dc/elements/1.1/"
   xmlns:cc="http://creativecommons.org/ns#"
   xmlns:rdf="http://www.w3.org/1999/02/22-rdf-syntax-ns#"
   xmlns:svg="http://www.w3.org/2000/svg"
   xmlns="http://www.w3.org/2000/svg"
   xmlns:xlink="http://www.w3.org/1999/xlink"
   xmlns:sodipodi="http://sodipodi.sourceforge.net/DTD/sodipodi-0.dtd"
   xmlns:inkscape="http://www.inkscape.org/namespaces/inkscape"
   width="200"
   height="200"
   id="svg2"
   version="1.1"
   inkscape:version="0.91 r13725"
   sodipodi:docname="skype.svg">
  <defs
     id="defs4">
    <linearGradient
       id="linearGradient4246">
      <stop
         id="stop4248"
         offset="0"
         style="stop-color:#676460;stop-opacity:1" />
      <stop
         id="stop4250"
         offset="1"
         style="stop-color:#5d5a57;stop-opacity:1" />
    </linearGradient>
    <linearGradient
       id="linearGradient4829">
      <stop
         style="stop-color:#f4fbfc;stop-opacity:1;"
         offset="0"
         id="stop4831" />
      <stop
         style="stop-color:#d6d6d6;stop-opacity:1;"
         offset="1"
         id="stop4833" />
    </linearGradient>
    <clipPath
       clipPathUnits="userSpaceOnUse"
       id="clipPath4282">
      <rect
         style="color:#000000;fill:#4d4d4d;fill-opacity:1;fill-rule:nonzero;stroke:none;stroke-width:9.13434315;marker:none;visibility:visible;display:inline;overflow:visible;enable-background:accumulate"
         id="rect4284"
         width="246.875"
         height="234.375"
         x="462.5"
         y="1646.1122"
         ry="17"
         rx="17" />
    </clipPath>
    <linearGradient
       inkscape:collect="always"
       xlink:href="#linearGradient4829"
       id="linearGradient4835"
       x1="102.29776"
       y1="-0.42686829"
       x2="102.29776"
       y2="199.16539"
       gradientUnits="userSpaceOnUse" />
    <linearGradient
       inkscape:collect="always"
       xlink:href="#linearGradient5423"
       id="linearGradient5429"
       x1="408.66196"
       y1="44.604382"
       x2="408.66196"
       y2="562.04968"
       gradientUnits="userSpaceOnUse" />
    <linearGradient
       id="linearGradient5423">
      <stop
         style="stop-color:#00b6ff;stop-opacity:1;"
         offset="0"
         id="stop5425" />
      <stop
         style="stop-color:#0194cf;stop-opacity:1;"
         offset="1"
         id="stop5427" />
    </linearGradient>
    <linearGradient
       inkscape:collect="always"
       xlink:href="#linearGradient4246"
       id="linearGradient6197"
       gradientUnits="userSpaceOnUse"
       x1="99.036476"
       y1="-0.50471628"
       x2="99.036476"
       y2="199.83986" />
    <linearGradient
       inkscape:collect="always"
       xlink:href="#linearGradient4829"
       id="linearGradient6211"
       x1="100.89178"
       y1="0"
       x2="100.89178"
       y2="200"
       gradientUnits="userSpaceOnUse" />
    <clipPath
       clipPathUnits="userSpaceOnUse"
       id="clipPath6245">
      <rect
         style="opacity:0.85;color:#000000;fill:#ffffff;fill-opacity:1;fill-rule:nonzero;stroke:none;stroke-width:1.5;marker:none;visibility:visible;display:inline;overflow:visible;enable-background:accumulate"
         id="rect6247"
         width="300"
         height="259.375"
         x="-901.5625"
         y="792.98718"
         rx="16.46875"
         ry="16.46875" />
    </clipPath>
    <linearGradient
       gradientTransform="matrix(0,-1,1,0,-1.5e-6,47.999998)"
       gradientUnits="userSpaceOnUse"
       x2="47"
       x1="1"
       id="linearGradient3764">
      <stop
         id="stop4160"
         stop-opacity="1"
         stop-color="#5d5a57" />
      <stop
         id="stop4162"
         stop-opacity="1"
         stop-color="#676460"
         offset="1" />
    </linearGradient>
    <clipPath
       id="clipPath-157063053">
      <g
         id="g4165"
         transform="translate(0,-1004.3622)">
        <path
           id="path4167"
           fill="#1890d0"
           transform="matrix(15.333333,0,0,11.5,414.99999,878.8622)"
           d="m -24 13 c 0 1.105 -0.672 2 -1.5 2 -0.828 0 -1.5 -0.895 -1.5 -2 0 -1.105 0.672 -2 1.5 -2 0.828 0 1.5 0.895 1.5 2 z" />
      </g>
    </clipPath>
    <clipPath
       id="clipPath-164676656">
      <g
         id="g4170"
         transform="translate(0,-1004.3622)">
        <path
           id="path4172"
           fill="#1890d0"
           transform="matrix(15.333333,0,0,11.5,414.99999,878.8622)"
           d="m -24 13 c 0 1.105 -0.672 2 -1.5 2 -0.828 0 -1.5 -0.895 -1.5 -2 0 -1.105 0.672 -2 1.5 -2 0.828 0 1.5 0.895 1.5 2 z" />
      </g>
    </clipPath>
  </defs>
  <sodipodi:namedview
     id="base"
     pagecolor="#ffffff"
     bordercolor="#666666"
     borderopacity="1.0"
     inkscape:pageopacity="0.0"
     inkscape:pageshadow="2"
     inkscape:zoom="1.8101934"
     inkscape:cx="82.682911"
     inkscape:cy="85.484544"
     inkscape:document-units="px"
     inkscape:current-layer="layer1"
     showgrid="false"
     inkscape:window-width="1600"
     inkscape:window-height="825"
     inkscape:window-x="0"
     inkscape:window-y="21"
     inkscape:window-maximized="1"
     inkscape:snap-from-guide="true"
     showguides="true"
     inkscape:guide-bbox="true">
    <sodipodi:guide
       position="0,0"
       orientation="0,200"
       id="guide3764" />
    <sodipodi:guide
       position="200,0"
       orientation="-200,0"
       id="guide3766" />
    <sodipodi:guide
       position="200,200"
       orientation="0,-200"
       id="guide3768" />
    <sodipodi:guide
       position="0,200"
       orientation="200,0"
       id="guide3770" />
  </sodipodi:namedview>
  <metadata
     id="metadata7">
    <rdf:RDF>
      <cc:Work
         rdf:about="">
        <dc:format>image/svg+xml</dc:format>
        <dc:type
           rdf:resource="http://purl.org/dc/dcmitype/StillImage" />
        <dc:title />
      </cc:Work>
    </rdf:RDF>
  </metadata>
  <g
     inkscape:label="Layer 1"
     inkscape:groupmode="layer"
     id="layer1"
     transform="translate(0,-852.36218)">
    <path
       sodipodi:type="arc"
       style="color:#000000;fill:url(#linearGradient4835);fill-opacity:1;fill-rule:nonzero;stroke:none;stroke-width:9.13434315;marker:none;visibility:visible;display:inline;overflow:visible;enable-background:accumulate"
       id="path4188"
       sodipodi:cx="100"
       sodipodi:cy="100"
       sodipodi:rx="100"
       sodipodi:ry="100"
       d="M 200,100 A 100,100 0 0 1 100,200 100,100 0 0 1 0,100 100,100 0 0 1 100,0 100,100 0 0 1 200,100 Z"
       transform="translate(0,852.36219)" />
    <path
       sodipodi:type="arc"
       style="color:#000000;fill:url(#linearGradient6197);fill-opacity:1;fill-rule:nonzero;stroke:none;stroke-width:9.13434314999999941;marker:none;visibility:visible;display:inline;overflow:visible;enable-background:accumulate"
       id="path4188-6"
       sodipodi:cx="100"
       sodipodi:cy="100"
       sodipodi:rx="100"
       sodipodi:ry="100"
       d="M 200,100 A 100,100 0 0 1 100,200 100,100 0 0 1 0,100 100,100 0 0 1 100,0 100,100 0 0 1 200,100 Z"
       transform="matrix(0.91020408,0,0,0.91020408,8.9795918,861.34178)" />
    <g
       id="g4225"
       transform="matrix(4.2555002,0,0,4.2553191,-4.266259,848.12991)">
      <g
         id="g4188">
        <g
           id="g4190"
           clip-path="url(#clipPath-157063053)">
          <g
             id="g4192"
             transform="translate(1,1)">
            <g
               id="g4194"
               style="opacity:0.1">
              <!-- color: #676460 -->
              <g
                 id="g4196">
                <path
                   id="path4198"
                   d="m 25.05,11.09 c -2.531,-0.324 -5.324,0.172 -7.488,1.75 -1.078,0.789 -1.957,1.805 -2.457,3.02 -0.504,1.219 -0.609,2.582 -0.223,3.891 0.289,0.992 0.887,1.895 1.563,2.625 0.676,0.727 1.418,1.297 2.234,1.75 1.629,0.91 3.359,1.367 4.805,1.75 1.438,0.387 2.625,0.68 3.578,1.168 0.914,0.473 1.664,1.121 1.902,1.75 0.16,0.434 0.164,1.063 0,1.555 -0.172,0.5 -0.543,0.984 -1.012,1.363 -0.93,0.758 -2.43,1.066 -3.914,0.973 -2.113,-0.133 -4.195,-1.121 -5.473,-2.727 -0.77,-0.992 -2.32,-1.254 -3.465,-0.582 -1.141,0.672 -1.441,2.02 -0.672,3.02 2.137,2.676 5.574,4.34 9.27,4.57 2.641,0.164 5.461,-0.395 7.602,-2.141 1.066,-0.875 1.902,-2.023 2.348,-3.309 0.441,-1.293 0.5,-2.652 0,-3.992 -0.723,-1.922 -2.352,-3.32 -4.02,-4.184 -1.641,-0.848 -3.277,-1.273 -4.691,-1.656 -1.41,-0.379 -2.664,-0.656 -3.578,-1.164 -0.453,-0.25 -0.832,-0.57 -1.117,-0.875 -0.277,-0.301 -0.469,-0.66 -0.559,-0.973 -0.117,-0.406 -0.07,-0.922 0.113,-1.363 0.184,-0.445 0.563,-0.848 1.012,-1.164 0.875,-0.641 2.242,-0.949 3.578,-0.781 1.563,0.203 3.105,0.98 4.133,2.141 0.535,0.621 1.41,0.945 2.293,0.848 0.887,-0.102 1.641,-0.605 1.977,-1.324 0.332,-0.719 0.199,-1.543 -0.355,-2.145 -1.805,-2.047 -4.465,-3.422 -7.375,-3.797 m -0.004,0.016"
                   inkscape:connector-curvature="0"
                   style="fill:#000000;fill-opacity:1;fill-rule:nonzero;stroke:none" />
              </g>
            </g>
          </g>
        </g>
      </g>
      <g
         id="g4200">
        <g
           id="g4202"
           clip-path="url(#clipPath-164676656)">
          <!-- color: #676460 -->
          <g
             id="g4204">
            <path
               id="path4206"
               d="m 25.05,11.09 c -2.531,-0.324 -5.324,0.172 -7.488,1.75 -1.078,0.789 -1.957,1.805 -2.457,3.02 -0.504,1.219 -0.609,2.582 -0.223,3.891 0.289,0.992 0.887,1.895 1.563,2.625 0.676,0.727 1.418,1.297 2.234,1.75 1.629,0.91 3.359,1.367 4.805,1.75 1.438,0.387 2.625,0.68 3.578,1.168 0.914,0.473 1.664,1.121 1.902,1.75 0.16,0.434 0.164,1.063 0,1.555 -0.172,0.5 -0.543,0.984 -1.012,1.363 -0.93,0.758 -2.43,1.066 -3.914,0.973 -2.113,-0.133 -4.195,-1.121 -5.473,-2.727 -0.77,-0.992 -2.32,-1.254 -3.465,-0.582 -1.141,0.672 -1.441,2.02 -0.672,3.02 2.137,2.676 5.574,4.34 9.27,4.57 2.641,0.164 5.461,-0.395 7.602,-2.141 1.066,-0.875 1.902,-2.023 2.348,-3.309 0.441,-1.293 0.5,-2.652 0,-3.992 -0.723,-1.922 -2.352,-3.32 -4.02,-4.184 -1.641,-0.848 -3.277,-1.273 -4.691,-1.656 -1.41,-0.379 -2.664,-0.656 -3.578,-1.164 -0.453,-0.25 -0.832,-0.57 -1.117,-0.875 -0.277,-0.301 -0.469,-0.66 -0.559,-0.973 -0.117,-0.406 -0.07,-0.922 0.113,-1.363 0.184,-0.445 0.563,-0.848 1.012,-1.164 0.875,-0.641 2.242,-0.949 3.578,-0.781 1.563,0.203 3.105,0.98 4.133,2.141 0.535,0.621 1.41,0.945 2.293,0.848 0.887,-0.102 1.641,-0.605 1.977,-1.324 0.332,-0.719 0.199,-1.543 -0.355,-2.145 -1.805,-2.047 -4.465,-3.422 -7.375,-3.797 m -0.004,0.016"
               inkscape:connector-curvature="0"
               style="fill:#ff9c2f;fill-opacity:1;fill-rule:nonzero;stroke:none" />
          </g>
        </g>
      </g>
    </g>
  </g>
</svg>
