<?xml version="1.0" encoding="UTF-8" standalone="no"?>
<svg
   xmlns:dc="http://purl.org/dc/elements/1.1/"
   xmlns:cc="http://creativecommons.org/ns#"
   xmlns:rdf="http://www.w3.org/1999/02/22-rdf-syntax-ns#"
   xmlns:svg="http://www.w3.org/2000/svg"
   xmlns="http://www.w3.org/2000/svg"
   xmlns:xlink="http://www.w3.org/1999/xlink"
   xmlns:sodipodi="http://sodipodi.sourceforge.net/DTD/sodipodi-0.dtd"
   xmlns:inkscape="http://www.inkscape.org/namespaces/inkscape"
   width="200"
   height="200"
   viewBox="0 0 200 200"
   version="1.1"
   id="svg56"
   sodipodi:docname="webstorm.svg"
   inkscape:version="0.92.4 (unknown)">
  <metadata
     id="metadata60">
    <rdf:RDF>
      <cc:Work
         rdf:about="">
        <dc:format>image/svg+xml</dc:format>
        <dc:type
           rdf:resource="http://purl.org/dc/dcmitype/StillImage" />
        <dc:title></dc:title>
      </cc:Work>
    </rdf:RDF>
  </metadata>
  <sodipodi:namedview
     pagecolor="#ffffff"
     bordercolor="#666666"
     borderopacity="1"
     objecttolerance="10"
     gridtolerance="10"
     guidetolerance="10"
     inkscape:pageopacity="0"
     inkscape:pageshadow="2"
     inkscape:window-width="1920"
     inkscape:window-height="1009"
     id="namedview58"
     showgrid="false"
     inkscape:zoom="3.6875"
     inkscape:cx="32.813559"
     inkscape:cy="32"
     inkscape:window-x="0"
     inkscape:window-y="34"
     inkscape:window-maximized="1"
     inkscape:current-layer="svg56" />
  <defs
     id="defs28">
    <linearGradient
       id="webstorm-b"
       x1="29.614651"
       x2="37.908527"
       y1="23.238317"
       y2="55.809101"
       gradientTransform="scale(0.92690611,1.0788579)"
       gradientUnits="userSpaceOnUse">
      <stop
         offset="0%"
         stop-color="#07C3F2"
         id="stop2" />
      <stop
         offset="100%"
         stop-color="#087CFA"
         id="stop4" />
    </linearGradient>
    <polygon
       id="webstorm-a"
       points="44,64 54.9,8.6 35.5,1.1 26.1,6.101 16,0.1 0,6.7 8.6,57.8 " />
    <linearGradient
       id="webstorm-d"
       x1="47.477592"
       x2="52.19595"
       y1="3.5599558"
       y2="14.307318"
       gradientTransform="scale(0.88680535,1.1276432)"
       gradientUnits="userSpaceOnUse">
      <stop
         offset="0%"
         stop-color="#FCF84A"
         id="stop8" />
      <stop
         offset="100%"
         stop-color="#07C3F2"
         id="stop10" />
    </linearGradient>
    <polygon
       id="webstorm-c"
       points="23.8,50.9 35.5,59 64,42.1 57,29 64,21.7 55.7,1.3 40.8,0 17.601,22.2 " />
    <linearGradient
       id="webstorm-f"
       x1="70.559837"
       x2="72.626503"
       y1="11.528712"
       y2="21.838694"
       gradientTransform="scale(0.80002,1.2499687)"
       gradientUnits="userSpaceOnUse">
      <stop
         offset="0%"
         stop-color="#07C3F2"
         id="stop14" />
      <stop
         offset="100%"
         stop-color="#087CFA"
         id="stop16" />
    </linearGradient>
    <polygon
       id="webstorm-e"
       points="64,21.7 58.899,9.001 51.2,18.599 57,29 " />
    <linearGradient
       id="webstorm-h"
       x1="20"
       x2="20"
       y1="-4.6472001"
       y2="24.235601"
       gradientUnits="userSpaceOnUse">
      <stop
         offset="0%"
         stop-color="#A6A5A5"
         id="stop20" />
      <stop
         offset="0%"
         stop-color="#989898"
         stop-opacity=".568"
         id="stop22" />
      <stop
         offset="100%"
         id="stop24" />
    </linearGradient>
    <polygon
       id="webstorm-g"
       points="40,0 0,0 0,40 40,40 " />
  </defs>
  <g
     id="g54"
     style="fill:none;fill-rule:evenodd"
     transform="scale(3.125)">
    <use
       xlink:href="#webstorm-a"
       id="use30"
       style="fill:#07c3f2"
       x="0"
       y="0"
       width="100%"
       height="100%" />
    <use
       xlink:href="#webstorm-a"
       id="use32"
       style="fill:url(#webstorm-b)"
       x="0"
       y="0"
       width="100%"
       height="100%" />
    <use
       xlink:href="#webstorm-c"
       id="use34"
       style="fill:#07c3f2"
       x="0"
       y="0"
       width="100%"
       height="100%" />
    <use
       xlink:href="#webstorm-c"
       id="use36"
       style="fill:url(#webstorm-d)"
       x="0"
       y="0"
       width="100%"
       height="100%" />
    <use
       xlink:href="#webstorm-e"
       id="use38"
       style="fill:#07c3f2"
       x="0"
       y="0"
       width="100%"
       height="100%" />
    <use
       xlink:href="#webstorm-e"
       id="use40"
       style="fill:url(#webstorm-f)"
       x="0"
       y="0"
       width="100%"
       height="100%" />
    <g
       transform="translate(12,12)"
       id="g52">
      <use
         xlink:href="#webstorm-g"
         id="use42"
         style="fill:#000000"
         x="0"
         y="0"
         width="100%"
         height="100%" />
      <use
         xlink:href="#webstorm-g"
         id="use44"
         style="fill:url(#webstorm-h)"
         x="0"
         y="0"
         width="100%"
         height="100%" />
      <path
         d="m 23.4277,19.5254 2.203,-2.637 c 1.524,1.257 3.123,2.056 5.056,2.056 1.527,0 2.446,-0.605 2.446,-1.599 v -0.048 c 0,-0.942 -0.581,-1.427 -3.413,-2.151 -3.412,-0.871 -5.616,-1.818 -5.616,-5.179 v -0.051 c 0,-3.071 2.47,-5.107 5.93,-5.107 2.47,0 4.575,0.776 6.292,2.155 l -1.936,2.808 c -1.5,-1.042 -2.976,-1.67 -4.403,-1.67 -1.428,0 -2.18,0.652 -2.18,1.476 v 0.048 c 0,1.113 0.728,1.479 3.655,2.226 3.437,0.896 5.373,2.132 5.373,5.084 v 0.047 c 0,3.365 -2.565,5.25 -6.22,5.25 -2.565,0 -5.155,-0.895 -7.187,-2.708"
         id="path46"
         inkscape:connector-curvature="0"
         style="fill:#ffffff" />
      <polygon
         points="6.867,5 3,5 7.738,22 10.851,22 13.566,12.398 16.247,22 19.398,22 24.131,5 20.265,5 17.798,14.679 14.971,5 12.161,5 9.334,14.679 "
         id="polygon48"
         style="fill:#ffffff" />
      <polygon
         points="19,35 19,32.5 4,32.5 4,35 "
         id="polygon50"
         style="fill:#ffffff" />
    </g>
  </g>
</svg>
